<svg xmlns="http://www.w3.org/2000/svg" width="64" height="66" viewBox="0 0 64 66"><g><g><g/><g><g><path fill="#f0bf5f" d="M32.79 29.54c-.988 0-1.8-.824-1.8-1.855V6.634C31.003 3.32 33.778.64 37.203.64c3.424 0 6.2 2.694 6.2 6.007 0 1.018-.8 1.856-1.8 1.856s-1.8-.825-1.8-1.856c0-1.263-1.175-2.295-2.613-2.295-1.437 0-2.612 1.032-2.612 2.295v21.05c.012 1.006-.788 1.844-1.788 1.844z"/></g><g><path fill="#f0bf5f" d="M53.39 34.903c-.988 0-1.8-.825-1.8-1.856V6.634C51.603 3.321 54.378.64 57.803.64c3.425 0 6.2 2.681 6.2 5.994 0 1.019-.8 1.856-1.8 1.856-.988 0-1.8-.825-1.8-1.856 0-1.263-1.176-2.294-2.613-2.294s-2.612 1.03-2.612 2.294v26.413c.012 1.018-.788 1.856-1.788 1.856z"/></g><g><path fill="#f0bf5f" d="M42.5 16.113h-9.7c-.988 0-1.8-.825-1.8-1.857 0-1.031.8-1.856 1.8-1.856h9.7c.988 0 1.8.825 1.8 1.856 0 1.032-.813 1.857-1.8 1.857z"/></g><g><path fill="#f0bf5f" d="M42.5 29.543h-9.7c-.988 0-1.8-.825-1.8-1.857 0-1.031.8-1.856 1.8-1.856h9.7c.988 0 1.8.825 1.8 1.856-.013 1.019-.813 1.857-1.8 1.857z"/></g><g><path fill="#f0bf5f" d="M53.39 22.832h-9.7c-.988 0-1.8-.825-1.8-1.856 0-1.031.8-1.856 1.8-1.856h9.7c.988 0 1.8.825 1.8 1.856 0 1.032-.8 1.857-1.8 1.857z"/></g></g><g><path fill="#cee8fa" d="M58.96 48.354c0 2.217-2.563 4.009-5.737 4.009-3.163 0-5.738-1.792-5.738-4.01 0 2.218-2.562 4.01-5.737 4.01-3.163 0-5.738-1.792-5.738-4.01h.088c0 2.218-2.563 4.01-5.738 4.01-3.175 0-5.737-1.792-5.737-4.01 0 2.218-2.563 4.01-5.738 4.01-3.175 0-5.737-1.792-5.737-4.01h.087c0 2.218-2.562 4.01-5.737 4.01-3.175 0-5.738-1.792-5.738-4.01V37.01c0 2.217 2.563 4.009 5.738 4.009 3.175 0 5.737-1.792 5.737-4.009h-.087c0 2.217 2.562 4.009 5.737 4.009 3.175 0 5.738-1.792 5.738-4.009 0 2.217 2.562 4.009 5.737 4.009 3.175 0 5.738-1.792 5.738-4.009h-.088c0 2.217 2.563 4.009 5.738 4.009 3.175 0 5.737-1.792 5.737-4.009 0 2.217 2.563 4.009 5.738 4.009 3.175 0 5.737-1.792 5.737-4.009z"/></g><g><g><path fill="#2d527c" d="M53.225 54.215c-2.325 0-4.362-.773-5.737-2.024-1.375 1.25-3.413 2.024-5.738 2.024-2.275 0-4.312-.76-5.687-1.985-1.375 1.225-3.413 1.985-5.688 1.985-2.325 0-4.362-.773-5.737-2.024-1.375 1.25-3.413 2.024-5.738 2.024-2.275 0-4.312-.76-5.687-1.985-1.375 1.238-3.413 1.985-5.688 1.985C3.3 54.215 0 51.637 0 48.35V37.006c0-1.018.8-1.856 1.8-1.856s1.8.825 1.8 1.856c0 .993 1.725 2.153 3.938 2.153 2 0 3.537-.89 3.875-1.792-.013-.116-.013-.245-.013-.36 0-1.02.8-1.857 1.8-1.857h.088c.987 0 1.8.825 1.8 1.856 0 .116 0 .245-.013.361.338.903 1.875 1.792 3.875 1.792 2.213 0 3.938-1.16 3.938-2.153 0-1.018.8-1.856 1.8-1.856s1.8.825 1.8 1.856c0 .993 1.725 2.153 3.937 2.153 2 0 3.538-.89 3.875-1.792-.012-.116-.012-.245-.012-.36 0-1.02.8-1.857 1.8-1.857h.087c.988 0 1.8.825 1.8 1.856 0 .116 0 .245-.013.361.338.903 1.875 1.792 3.875 1.792 2.213 0 3.938-1.16 3.938-2.153 0-1.018.8-1.856 1.8-1.856.987 0 1.8.825 1.8 1.856 0 .993 1.725 2.153 3.937 2.153 2.213 0 3.938-1.16 3.938-2.153 0-1.018.8-1.856 1.8-1.856s1.8.825 1.8 1.856V48.35c-.088 3.287-3.4 5.865-7.625 5.865zm-3.938-5.865c0 .993 1.726 2.153 3.938 2.153s3.938-1.16 3.938-2.153v-6.33c-1.138.53-2.488.839-3.938.839-2.325 0-4.362-.774-5.737-2.024-1.375 1.25-3.413 2.024-5.738 2.024-2.275 0-4.312-.76-5.687-1.986-1.375 1.238-3.413 1.986-5.688 1.986-2.325 0-4.362-.774-5.737-2.024-1.375 1.25-3.413 2.024-5.738 2.024-2.275 0-4.312-.76-5.687-1.986-1.375 1.238-3.413 1.986-5.688 1.986-1.45 0-2.8-.31-3.937-.838v6.329c0 .993 1.725 2.153 3.937 2.153 2 0 3.538-.89 3.875-1.792-.012-.116-.012-.245-.012-.361 0-1.018.8-1.856 1.8-1.856h.087c.988 0 1.8.825 1.8 1.856 0 .116 0 .245-.012.36.337.903 1.875 1.793 3.875 1.793 2.212 0 3.937-1.16 3.937-2.153 0-1.018.8-1.856 1.8-1.856s1.8.825 1.8 1.856c0 .993 1.725 2.153 3.938 2.153 2 0 3.537-.89 3.875-1.792-.013-.116-.013-.245-.013-.361 0-1.018.8-1.856 1.8-1.856h.087c.988 0 1.8.825 1.8 1.856 0 .116 0 .245-.012.36.337.903 1.875 1.793 3.875 1.793 2.212 0 3.937-1.16 3.937-2.153 0-1.018.8-1.856 1.8-1.856.925.013 1.725.838 1.725 1.856z"/></g><g><path fill="#2d527c" d="M41.765 65.351c-2.3 0-4.325-.76-5.688-1.985-1.374 1.225-3.4 1.985-5.687 1.985-2.325 0-4.362-.773-5.737-2.023-1.375 1.25-3.413 2.023-5.738 2.023-4.225 0-7.525-2.578-7.525-5.865 0-1.018.8-1.856 1.8-1.856h.087c.988 0 1.8.825 1.8 1.856 0 .103-.012.22-.024.323.312.915 1.9 1.843 3.887 1.843 2.212 0 3.938-1.16 3.938-2.153 0-1.018.8-1.856 1.8-1.856s1.8.825 1.8 1.856c0 .993 1.725 2.153 3.937 2.153 1.963 0 3.525-.902 3.863-1.805-.013-.116-.013-.232-.013-.36 0-1.02.8-1.857 1.8-1.857h.087c.988 0 1.8.825 1.8 1.856 0 .116 0 .232-.012.361.337.903 1.912 1.805 3.862 1.805 2.213 0 3.938-1.16 3.938-2.153 0-1.018.8-1.856 1.8-1.856.987 0 1.8.825 1.8 1.856-.05 3.287-3.35 5.852-7.575 5.852z"/></g></g></g></g></svg>