<svg xmlns="http://www.w3.org/2000/svg" width="67" height="58" viewBox="0 0 67 58"><g><g><g/><g><g><path fill="#2d527c" d="M60.51 57.556H6.49c-3.572 0-6.49-2.862-6.49-6.394V6.844C0 3.312 2.918.45 6.49.45h35.45c1.021 0 1.845.812 1.845 1.818 0 1.005-.824 1.817-1.845 1.817H6.49c-1.544 0-2.8 1.238-2.8 2.759v44.318c0 1.52 1.256 2.758 2.8 2.758h54.02c1.544 0 2.8-1.237 2.8-2.758V6.844c0-1.521-1.257-2.759-2.8-2.759h-7.93c-1.021 0-1.846-.812-1.846-1.817 0-1.006.825-1.818 1.845-1.818h7.93C64.095.45 67 3.325 67 6.844v44.318c0 3.532-2.918 6.394-6.49 6.394z"/></g><g><path fill="#2d527c" d="M53.873 49.537H18.135c-1.02 0-1.845-.812-1.845-1.818 0-1.005.824-1.818 1.845-1.818h35.738c.707 0 1.282-.567 1.282-1.263v-31.26c0-.696-.576-1.263-1.282-1.263H18.135c-1.02 0-1.845-.812-1.845-1.817 0-1.006.824-1.818 1.845-1.818h35.738c2.748 0 4.986 2.204 4.986 4.911v31.247c0 2.694-2.238 4.899-4.986 4.899z"/></g><g><path fill="#2d527c" d="M9.985 49.54c-1.02 0-1.845-.813-1.845-1.818V10.288c0-1.006.824-1.818 1.845-1.818 1.02 0 1.845.812 1.845 1.818v37.434c.013 1.005-.824 1.817-1.845 1.817z"/></g></g><g><path fill="#f0bf5f" d="M42.672 43.504c-8.114 0-14.722-6.51-14.722-14.502 0-7.992 6.608-14.502 14.722-14.502 8.113 0 14.721 6.51 14.721 14.502 0 7.992-6.608 14.502-14.721 14.502zm0-25.369c-6.085 0-11.032 4.873-11.032 10.867 0 5.994 4.947 10.867 11.032 10.867s11.031-4.873 11.031-10.867c0-5.994-4.946-10.867-11.031-10.867zm0 17.428c-3.677 0-6.661-2.939-6.661-6.561s2.984-6.561 6.66-6.561c3.678 0 6.661 2.939 6.661 6.561s-2.983 6.561-6.66 6.561zm0-9.487c-1.636 0-2.97 1.315-2.97 2.926 0 1.611 1.334 2.926 2.97 2.926 1.635 0 2.97-1.315 2.97-2.926 0-1.611-1.335-2.926-2.97-2.926z"/></g><g><path fill="#cee8fa" d="M18.12 35.78H9.98v5.891h8.14z"/></g><g><path fill="#2d527c" d="M9.985 43.486c-1.02 0-1.845-.812-1.845-1.817v-5.891c0-1.006.824-1.818 1.845-1.818h8.14c1.02 0 1.845.812 1.845 1.818v5.89c.013 1.006-.812 1.818-1.832 1.818zm1.858-3.635h4.45v-2.256h-4.45z"/></g><g><path fill="#cee8fa" d="M18.12 16.33H9.98v5.891h8.14z"/></g><g><g><path fill="#2d527c" d="M9.985 24.036c-1.02 0-1.845-.812-1.845-1.817v-5.891c0-1.006.824-1.818 1.845-1.818h8.14c1.02 0 1.845.812 1.845 1.818v5.89c.013 1.006-.812 1.818-1.832 1.818zm1.858-3.635h4.45v-2.256h-4.45z"/></g><g><path fill="#f0bf5f" d="M33.988 39.376c-.47 0-.942-.18-1.308-.528a1.81 1.81 0 0 1 0-2.578l5.287-5.208a1.876 1.876 0 0 1 2.617 0c.72.709.72 1.869 0 2.578l-5.287 5.208a1.902 1.902 0 0 1-1.309.528z"/></g><g><path fill="#f0bf5f" d="M46.418 27.131c-.47 0-.942-.18-1.308-.528a1.81 1.81 0 0 1 0-2.579l4.946-4.872a1.876 1.876 0 0 1 2.617 0c.72.709.72 1.869 0 2.578l-4.946 4.873a1.878 1.878 0 0 1-1.309.528z"/></g><g><path fill="#f0bf5f" d="M38.843 27.04c-.47 0-.942-.18-1.308-.528L32.68 21.73a1.81 1.81 0 0 1 0-2.578 1.876 1.876 0 0 1 2.617 0l4.855 4.782c.72.71.72 1.87 0 2.578-.353.361-.838.529-1.309.529z"/></g><g><path fill="#f0bf5f" d="M51.359 39.375c-.471 0-.942-.18-1.309-.528L45.13 34a1.81 1.81 0 0 1 0-2.578 1.876 1.876 0 0 1 2.617 0l4.92 4.847c.72.709.72 1.869 0 2.578a1.902 1.902 0 0 1-1.308.528z"/></g></g></g></g></svg>