<svg xmlns="http://www.w3.org/2000/svg" width="64" height="62" viewBox="0 0 64 62"><g><g><g/><g><g><path fill="#2d527c" d="M37.955 56.408H20.292C11.38 56.408 4.13 48.93 4.13 39.74V23.936c0-1.031.812-1.856 1.8-1.856.987 0 1.8.838 1.8 1.856v15.817c0 7.141 5.625 12.942 12.55 12.942h17.662c1 0 1.8.838 1.8 1.856.013 1.032-.787 1.857-1.787 1.857z"/></g><g><path fill="#2d527c" d="M48.46 55.578c-.75 0-1.437-.477-1.7-1.25-.324-.967.163-2.024 1.1-2.372 5.026-1.818 8.4-6.73 8.4-12.22v-1.87c0-1.031.813-1.856 1.8-1.856.988 0 1.8.838 1.8 1.856v1.87c0 7.064-4.337 13.393-10.812 15.726a1.542 1.542 0 0 1-.587.116z"/></g></g><g><path fill="#cee8fa" d="M58.585 30.075H5.41c-1.987 0-3.6-1.663-3.6-3.712 0-2.05 1.613-3.713 3.6-3.713h53.188c1.987 0 3.6 1.663 3.6 3.713s-1.613 3.712-3.613 3.712z"/></g><g><path fill="#2d527c" d="M5.412 31.923c-2.987 0-5.412-2.5-5.412-5.581 0-3.081 2.425-5.582 5.412-5.582H58.6c2.987 0 5.412 2.5 5.412 5.582 0 3.08-2.437 5.581-5.424 5.581zm0-7.438c-1 0-1.8.838-1.8 1.857 0 1.018.813 1.856 1.8 1.856H58.6c1 0 1.8-.838 1.8-1.856 0-1.019-.813-1.857-1.8-1.857z"/></g><g><path fill="#cee8fa" d="M14.24 59.897c1.74 0 3.15-1.454 3.15-3.249 0-1.794-1.41-3.248-3.15-3.248s-3.15 1.454-3.15 3.248c0 1.795 1.41 3.249 3.15 3.249z"/></g><g><path fill="#2d527c" d="M14.242 61.765c-2.737 0-4.962-2.294-4.962-5.117s2.225-5.118 4.963-5.118c2.737 0 4.962 2.295 4.962 5.118 0 2.823-2.225 5.117-4.963 5.117zm0-6.51c-.75 0-1.35.632-1.35 1.393 0 .76.613 1.392 1.35 1.392.738 0 1.35-.632 1.35-1.392 0-.761-.6-1.393-1.35-1.393z"/></g><g><path fill="#cee8fa" d="M49.76 59.897c1.74 0 3.15-1.454 3.15-3.249 0-1.794-1.41-3.248-3.15-3.248s-3.15 1.454-3.15 3.248c0 1.795 1.41 3.249 3.15 3.249z"/></g><g><g><path fill="#2d527c" d="M49.763 61.765c-2.738 0-4.963-2.294-4.963-5.117s2.225-5.118 4.963-5.118c2.737 0 4.962 2.295 4.962 5.118 0 2.823-2.237 5.117-4.962 5.117zm0-6.51c-.75 0-1.35.632-1.35 1.393 0 .76.612 1.392 1.35 1.392.737 0 1.35-.632 1.35-1.392 0-.761-.613-1.393-1.35-1.393z"/></g><g><path fill="#f0bf5f" d="M40.43 9.432H23.58c-1 0-1.8-.837-1.8-1.856 0-1.018.812-1.856 1.8-1.856h16.863c1 0 1.8.838 1.8 1.856 0 1.019-.813 1.856-1.813 1.856z"/></g><g><path fill="#f0bf5f" d="M41.01 13.056c-1 0-1.8-.838-1.8-1.856V2.086c0-1.031.813-1.856 1.8-1.856.988 0 1.8.838 1.8 1.856V11.2c0 1.031-.8 1.856-1.8 1.856z"/></g><g><path fill="#f0bf5f" d="M44.258 3.953H37.77c-1 0-1.8-.838-1.8-1.857 0-1.018.813-1.856 1.8-1.856h6.488c1 0 1.8.838 1.8 1.856 0 1.019-.813 1.857-1.8 1.857z"/></g><g><path fill="#f0bf5f" d="M22.99 13.056c-1 0-1.8-.838-1.8-1.856V2.086c0-1.031.812-1.856 1.8-1.856s1.8.838 1.8 1.856V11.2c0 1.031-.8 1.856-1.8 1.856z"/></g><g><path fill="#f0bf5f" d="M26.227 3.953H19.74c-1 0-1.8-.838-1.8-1.857 0-1.018.812-1.856 1.8-1.856h6.487c1 0 1.8.838 1.8 1.856 0 1.019-.8 1.857-1.8 1.857z"/></g><g><path fill="#f0bf5f" d="M32 17.334c-1 0-1.8-.838-1.8-1.856V7.756c0-1.031.813-1.856 1.8-1.856.988 0 1.8.838 1.8 1.856v7.722c0 1.018-.8 1.856-1.8 1.856z"/></g></g><g><path fill="#cee8fa" d="M24.468 41.157h-9.713c-1.225 0-2.225-1.031-2.225-2.295V22.62h14.15v16.242c0 1.276-.988 2.295-2.212 2.295z"/></g><g><path fill="#2d527c" d="M14.745 43.03c-2.212 0-4.025-1.857-4.025-4.152V22.636c0-1.031.812-1.856 1.8-1.856h14.15c1 0 1.8.838 1.8 1.856v16.242c.013 2.282-1.8 4.151-4.012 4.151zm-.412-18.538v14.386c0 .232.187.426.412.426h9.713a.423.423 0 0 0 .412-.426V24.492z"/></g></g></g></svg>