<svg xmlns="http://www.w3.org/2000/svg" width="14" height="14" viewBox="0 0 14 14"><g><g><path fill="#e9ce93" d="M13.696 6.369a.998.998 0 0 0 .254-1.03.998.998 0 0 0-.81-.683l-3.39-.493a.443.443 0 0 1-.334-.242L7.901.85A.998.998 0 0 0 7 .29a.998.998 0 0 0-.9.56L4.583 3.92a.443.443 0 0 1-.334.243l-3.39.492a.998.998 0 0 0-.81.684.998.998 0 0 0 .254 1.029l2.452 2.39a.444.444 0 0 1 .128.393l-.578 3.376a.983.983 0 0 0 .219.814c.298.355.82.463 1.237.244l3.032-1.594a.454.454 0 0 1 .413 0l3.031 1.594a.994.994 0 0 0 .467.117 1.007 1.007 0 0 0 .99-1.175l-.58-3.376a.444.444 0 0 1 .129-.392z"/></g></g></svg>