<svg xmlns="http://www.w3.org/2000/svg" viewBox="0 0 66 62"><path fill="#2d527c" d="M38.455 16.488H19.209a1.87 1.87 0 0 1-1.869-1.869 1.87 1.87 0 0 1 1.87-1.869h19.245a1.87 1.87 0 0 1 1.869 1.87 1.87 1.87 0 0 1-1.87 1.868zM23.32 47.487h-5.943C7.799 47.487 0 39.688 0 30.11a17.377 17.377 0 0 1 9.023-15.236 1.877 1.877 0 0 1 2.553.747c.503.903.167 2.05-.748 2.553a13.623 13.623 0 0 0-7.077 11.95c0 7.515 6.11 13.625 13.626 13.625h5.942a1.87 1.87 0 0 1 1.87 1.869c.012 1.018-.839 1.869-1.87 1.869z"/><path fill="#f0bf5f" d="M24.917 61.203c-8.546 0-15.507-6.96-15.507-15.52a1.87 1.87 0 0 1 1.87-1.869 1.87 1.87 0 0 1 1.868 1.87c0 6.483 5.273 11.768 11.77 11.768 6.496 0 11.769-5.272 11.769-11.769 0-6.484-5.273-11.769-11.77-11.769-3.26 0-6.29 1.302-8.533 3.661a1.875 1.875 0 0 1-2.656.064 1.875 1.875 0 0 1-.064-2.655c2.965-3.12 6.96-4.834 11.253-4.834 8.56 0 15.52 6.96 15.52 15.52 0 8.56-6.96 15.534-15.52 15.534z"/><path fill="#f0bf5f" d="M49.566 43.788H38.119a1.87 1.87 0 0 1-1.869-1.869 1.87 1.87 0 0 1 1.87-1.869h11.446a1.87 1.87 0 0 1 1.87 1.87 1.87 1.87 0 0 1-1.87 1.868z"/><path fill="#f0bf5f" d="M61.814 51.33H38.559a1.87 1.87 0 0 1-1.869-1.87 1.87 1.87 0 0 1 1.87-1.868h23.254a.435.435 0 0 0 .438-.439V36.506a.646.646 0 0 0-.644-.645h-1.625a.646.646 0 0 0-.644.645v5.001a1.87 1.87 0 0 1-1.87 1.87 1.87 1.87 0 0 1-1.869-1.87v-5.001a4.401 4.401 0 0 1 4.396-4.396h1.624a4.401 4.401 0 0 1 4.396 4.396v10.647a4.214 4.214 0 0 1-4.202 4.177z"/><g><path fill="#cee8fa" d="M24.917 50.943a5.337 5.337 0 1 0 0-10.673 5.337 5.337 0 0 0 0 10.673z"/></g><g><path fill="#f0bf5f" d="M24.916 52.812c-3.97 0-7.206-3.236-7.206-7.206s3.236-7.206 7.206-7.206 7.206 3.236 7.206 7.206a7.21 7.21 0 0 1-7.206 7.206zm0-10.66a3.455 3.455 0 1 0 0 6.909 3.455 3.455 0 0 0 0-6.91z"/></g><g><path fill="#cee8fa" d="M27.9 22.57V6.65a3.972 3.972 0 0 1 3.97-3.97h28.282a3.972 3.972 0 0 1 3.97 3.97v15.92a3.972 3.972 0 0 1-3.97 3.97H31.883a3.975 3.975 0 0 1-3.983-3.97z"/></g><g><path fill="#2d527c" d="M31.882 28.425c-3.222 0-5.852-2.63-5.852-5.853V6.652A5.865 5.865 0 0 1 31.882.8h28.282c3.223 0 5.853 2.63 5.853 5.852v15.92c-.013 3.223-2.643 5.853-5.865 5.853zm0-23.874a2.1 2.1 0 0 0-2.1 2.101v15.92a2.1 2.1 0 0 0 2.1 2.101h28.282c1.16 0 2.102-.94 2.102-2.1V6.652c0-1.16-.941-2.102-2.102-2.102z"/><path fill="#2d527c" d="M44.443 15.71h-.632v-1.147c0-.658-.657-1.083-1.675-1.083-1.019 0-1.676.425-1.676 1.083v1.147h-1.147l3.235-6.497c.052-.129.116-.283.116-.438 0-.812-1.083-1.315-1.676-1.315-.618 0-1.121.31-1.405.864L35.2 16.947a1.4 1.4 0 0 0-.18.658c0 .722.477 1.212 1.173 1.212h4.267v1.83c0 .76.864 1.096 1.676 1.096.799 0 1.675-.348 1.675-1.096v-1.83h.632c.567 0 1.096-.76 1.096-1.56 0-.748-.348-1.547-1.096-1.547zM55.89 15.71h-.631v-1.147c0-.658-.658-1.083-1.676-1.083-1.019 0-1.676.425-1.676 1.083v1.147H50.76l3.248-6.497c.052-.129.116-.283.116-.438 0-.812-1.083-1.315-1.676-1.315-.618 0-1.121.31-1.405.864l-4.383 8.623a1.4 1.4 0 0 0-.18.658c0 .722.477 1.212 1.173 1.212h4.267v1.83c0 .76.864 1.096 1.676 1.096.812 0 1.675-.348 1.675-1.096v-1.83h.632c.567 0 1.096-.76 1.096-1.56 0-.748-.348-1.547-1.109-1.547z"/></g></svg>