<svg xmlns="http://www.w3.org/2000/svg" viewBox="0 0 25 25"><path fill="#fff" d="M12.5 0C19.402 0 25 5.597 25 12.5 25 19.402 19.402 25 12.5 25S0 19.402 0 12.5C0 5.597 5.598 0 12.5 0zM5.366 15.46c.034.763.156 1.285.333 1.741a3.67 3.67 0 0 0 2.1 2.1c.456.177.978.298 1.742.333.765.035 1.01.044 2.959.044 1.95 0 2.194-.009 2.96-.044.763-.035 1.285-.156 1.741-.333.48-.18.913-.463 1.272-.828.365-.359.647-.793.828-1.272.177-.456.299-.978.333-1.742.036-.765.044-1.01.044-2.96 0-1.948-.008-2.193-.044-2.958-.034-.764-.156-1.286-.333-1.743a3.516 3.516 0 0 0-.828-1.271 3.516 3.516 0 0 0-1.271-.828c-.457-.177-.979-.299-1.743-.334-.765-.034-1.01-.043-2.959-.043-1.95 0-2.194.009-2.96.044-.763.034-1.285.156-1.742.333a3.52 3.52 0 0 0-1.271.828 3.517 3.517 0 0 0-.828 1.271c-.177.457-.299.979-.334 1.743-.034.765-.043 1.01-.043 2.959 0 1.95.009 2.194.044 2.96z" opacity=".5"/></svg>