<svg xmlns="http://www.w3.org/2000/svg" viewBox="0 0 67 66"><path fill="#cee8fa" d="M40.827 49.077H11.07V35.065c0-4.963 4.083-8.985 9.12-8.985h20.637z"/><path fill="#2d527c" d="M11.067 50.945c-1.046 0-1.897-.838-1.897-1.869V35.064c0-5.981 4.946-10.854 11.018-10.854h20.637c1.047 0 1.897.838 1.897 1.87v22.996c0 1.031-.85 1.87-1.897 1.87zm1.898-3.738h25.95V27.96h-18.74c-3.978 0-7.21 3.184-7.21 7.103z"/><path fill="#f0bf5f" d="M60.444 34.263H6.556c-3.612 0-6.556-2.9-6.556-6.471v-5.814c0-3.558 2.944-6.458 6.556-6.458h13.57c1.047 0 1.898.838 1.898 1.87 0 1.03-.851 1.868-1.898 1.868H6.556c-1.518 0-2.761 1.225-2.761 2.72v5.814c0 1.495 1.243 2.72 2.761 2.72h53.875c1.518 0 2.761-1.225 2.761-2.72v-5.814c0-1.495-1.243-2.72-2.761-2.72H33.5c-1.047 0-1.897-.838-1.897-1.869 0-1.031.85-1.869 1.897-1.869h26.944c3.612 0 6.556 2.9 6.556 6.458v5.814c0 3.57-2.944 6.471-6.556 6.471z"/><path fill="#f0bf5f" d="M33.496 19.15a1.894 1.894 0 0 1-1.531-.76 1.851 1.851 0 0 1 .392-2.616c1.793-1.315 5.51-4.77 5.51-7.077 0-2.501-1.846-4.306-4.371-4.306-2.408 0-4.371 1.934-4.371 4.306 0 1.03-.85 1.869-1.898 1.869-1.046 0-1.897-.838-1.897-1.87V8.53c0-.051 0-.103.013-.155C25.5 4.07 29.1.64 33.496.64c4.658 0 8.178 3.468 8.178 8.057 0 4.82-6.32 9.565-7.053 10.093-.34.245-.733.36-1.125.36z"/><path fill="#2d527c" d="M47.542 61.258H22.377c-1.046 0-1.897-.838-1.897-1.87V49.09c0-1.031.85-1.869 1.897-1.869h33.566c1.047 0 1.897.838 1.897 1.87 0 1.03-.85 1.868-1.897 1.868H24.275v6.562h23.267c1.047 0 1.897.838 1.897 1.869 0 1.031-.85 1.869-1.897 1.869z"/><g><path fill="#cee8fa" d="M55.932 49.077V33.569c0-4.137-3.402-7.489-7.603-7.489H22.38v22.997z"/></g><g><path fill="#2d527c" d="M22.377 50.942c-1.046 0-1.897-.838-1.897-1.869V26.09c0-1.031.85-1.869 1.897-1.869H48.34c5.234 0 9.5 4.202 9.5 9.359v15.507c0 1.018-.863 1.856-1.91 1.856zm1.898-3.738h29.757V33.566c0-3.094-2.551-5.608-5.692-5.608H24.275zM22.377 65.357c-1.046 0-1.897-.837-1.897-1.869V59.39c0-1.031.85-1.869 1.897-1.869 1.047 0 1.898.838 1.898 1.87v4.098c0 1.032-.85 1.87-1.898 1.87z"/><path fill="#2d527c" d="M55.927 65.359c-1.046 0-1.897-.838-1.897-1.87V47.88c0-1.031.85-1.869 1.897-1.869 1.047 0 1.898.838 1.898 1.87v15.61c.013 1.03-.85 1.869-1.898 1.869zM47.537 65.357c-1.046 0-1.897-.837-1.897-1.869V59.39c0-1.031.85-1.869 1.897-1.869 1.047 0 1.898.838 1.898 1.87v4.098c0 1.032-.85 1.87-1.898 1.87zM39.157 65.357c-1.046 0-1.897-.837-1.897-1.869V59.39c0-1.031.85-1.869 1.897-1.869 1.047 0 1.898.838 1.898 1.87v4.098c0 1.032-.85 1.87-1.898 1.87zM30.767 65.357c-1.046 0-1.897-.837-1.897-1.869V59.39c0-1.031.85-1.869 1.897-1.869 1.047 0 1.898.838 1.898 1.87v4.098c0 1.032-.85 1.87-1.898 1.87z"/></g></svg>