<svg xmlns="http://www.w3.org/2000/svg" viewBox="0 0 66 64"><path fill="#f0bf5f" d="M15.64 59.314h-4.448c-.993 0-1.792-.8-1.792-1.792 0-.993.8-1.792 1.792-1.792h4.447c.993 0 1.792.8 1.792 1.792s-.8 1.792-1.792 1.792zM64.21 59.314h-4.718c-.993 0-1.792-.8-1.792-1.792 0-.993.8-1.792 1.792-1.792h4.718c.992 0 1.792.8 1.792 1.792s-.8 1.792-1.792 1.792z"/><path fill="#f0bf5f" d="M62.238 59.093h-2.746c-.993 0-1.792-.8-1.792-1.792 0-.993.8-1.792 1.792-1.792h.954v-.786c0-3.661-1.56-6.613-4.512-8.547-2.153-1.405-4.885-2.152-7.902-2.152h-26.13a5.087 5.087 0 0 0-4.962 4.034l-1.573 7.451h.542c.992 0 1.792.8 1.792 1.792 0 .993-.8 1.792-1.792 1.792h-2.746a1.8 1.8 0 0 1-1.392-.658 1.791 1.791 0 0 1-.361-1.495l2.024-9.616c.838-3.984 4.408-6.884 8.482-6.884h26.13c3.712 0 7.128.941 9.86 2.733 3.958 2.59 6.136 6.69 6.136 11.55V57.3a1.807 1.807 0 0 1-1.804 1.792z"/><path fill="#f0bf5f" d="M41.959 59.094H28.282c-.993 0-1.792-.8-1.792-1.792 0-.993.8-1.792 1.792-1.792h13.69c.992 0 1.791.8 1.791 1.792s-.812 1.792-1.804 1.792z"/><path fill="#cee8fa" d="M48.031 42.233c2.707 0 5.247.554 7.4 1.611l-2.514-10.892a6.055 6.055 0 0 0-5.853-4.512H31.093a6.02 6.02 0 0 0-5.582 3.738L21.76 42.233z"/><g><path fill="#f0bf5f" d="M55.43 45.64c-.27 0-.541-.064-.786-.18-1.908-.928-4.203-1.43-6.613-1.43H21.76a1.764 1.764 0 0 1-1.47-.774 1.788 1.788 0 0 1-.206-1.65l3.75-10.055c.014-.025.014-.038.027-.064a7.819 7.819 0 0 1 7.244-4.847h15.972a7.835 7.835 0 0 1 7.58 5.84c0 .012.012.038.012.051l2.514 10.893a1.79 1.79 0 0 1-.632 1.804 1.68 1.68 0 0 1-1.121.413zm-31.08-5.194h23.694c1.701 0 3.351.206 4.91.606l-1.765-7.657a4.263 4.263 0 0 0-4.112-3.146H31.092a4.243 4.243 0 0 0-3.918 2.604z"/><path fill="#f0bf5f" d="M41.962 51.564a1.788 1.788 0 0 1-1.792-1.791V29.122c0-.993.8-1.792 1.792-1.792s1.792.8 1.792 1.792V49.76a1.79 1.79 0 0 1-1.792 1.804z"/></g><g><path fill="#2d527c" d="M54.463 63.865a7.108 7.108 0 0 1-7.103-7.102 7.108 7.108 0 0 1 7.103-7.103 7.108 7.108 0 0 1 7.102 7.103 7.108 7.108 0 0 1-7.102 7.102zm0-10.621a3.524 3.524 0 0 0-3.52 3.519 3.515 3.515 0 0 0 3.52 3.519 3.524 3.524 0 0 0 3.519-3.52 3.524 3.524 0 0 0-3.52-3.518z"/></g><g><path fill="#2d527c" d="M20.843 63.865a7.108 7.108 0 0 1-7.103-7.102 7.108 7.108 0 0 1 7.103-7.103 7.108 7.108 0 0 1 7.102 7.103c.013 3.918-3.184 7.102-7.102 7.102zm0-10.621a3.515 3.515 0 0 0-3.52 3.519 3.515 3.515 0 0 0 3.52 3.519 3.515 3.515 0 0 0 3.519-3.52 3.515 3.515 0 0 0-3.52-3.518zM1.792 24.712A1.788 1.788 0 0 1 0 22.921v-21C0 .93.8.13 1.792.13h22.597c.993 0 1.792.8 1.792 1.792V22.92c0 .992-.8 1.791-1.792 1.791zm1.792-3.583h19.013V3.714H3.584z"/><path fill="#2d527c" d="M13.328 6.26c2.63 0 4.073 1.418 4.073 3.996v.077c0 2.553-1.547 4.01-4.241 4.01h-1.328v3.21c0 .618-.619 1.043-1.52 1.043-.89 0-1.522-.425-1.522-1.044V7.292c0-.594.516-1.032 1.199-1.032zm-.168 5.595c.8 0 1.186-.439 1.186-1.341v-.18c0-.903-.387-1.341-1.186-1.341h-1.328v2.862zM13.082 39.804c-.993 0-1.792-.8-1.792-1.792v-14.85c0-.993.8-1.792 1.792-1.792s1.792.8 1.792 1.792v14.85c.012.992-.8 1.792-1.792 1.792z"/></g></svg>