<svg xmlns="http://www.w3.org/2000/svg" width="64" height="58" viewBox="0 0 64 58"><g><g><g/><g><path fill="#2d527c" d="M58.233 57.265h-8.8c-.938 0-1.7-.786-1.7-1.753 0-.967.762-1.753 1.7-1.753h8.8c1.312 0 2.375-1.096 2.375-2.45V19.483c0-1.354-1.063-2.45-2.375-2.45h-41c-1.313 0-2.375 1.096-2.375 2.45v31.852c0 1.354 1.062 2.45 2.375 2.45h22.875c.937 0 1.7.786 1.7 1.753 0 .966-.763 1.753-1.7 1.753H17.233c-3.175 0-5.763-2.669-5.763-5.943V19.483c0-3.275 2.588-5.943 5.763-5.943h41c3.175 0 5.762 2.668 5.762 5.943v31.852c0 3.262-2.587 5.93-5.762 5.93z"/></g><g><path fill="#cee8fa" d="M23.843 49.105c-1.625 0-2.963-1.379-2.963-3.055V24.755c0-1.676 1.338-3.055 2.963-3.055s2.962 1.38 2.962 3.055V46.05c-.013 1.676-1.337 3.055-2.962 3.055z"/></g><g><path fill="#f0bf5f" d="M23.84 50.846c-2.563 0-4.65-2.153-4.65-4.795V24.755c0-2.642 2.087-4.795 4.65-4.795 2.562 0 4.65 2.153 4.65 4.795v21.296c0 2.642-2.088 4.795-4.65 4.795zm0-27.393c-.7 0-1.262.58-1.262 1.302v21.296c0 .722.562 1.302 1.262 1.302s1.262-.58 1.262-1.302V24.755c0-.722-.575-1.302-1.262-1.302z"/></g><g><path fill="#cee8fa" d="M37.742 49.105c-1.624 0-2.962-1.379-2.962-3.055V24.755c0-1.676 1.337-3.055 2.962-3.055 1.625 0 2.963 1.38 2.963 3.055V46.05c0 1.676-1.325 3.055-2.962 3.055z"/></g><g><path fill="#f0bf5f" d="M37.74 50.846c-2.563 0-4.65-2.153-4.65-4.795V24.755c0-2.642 2.087-4.795 4.65-4.795 2.562 0 4.65 2.153 4.65 4.795v21.296c.012 2.642-2.075 4.795-4.65 4.795zm0-27.393c-.7 0-1.263.58-1.263 1.302v21.296c0 .722.563 1.302 1.263 1.302s1.262-.58 1.262-1.302V24.755c0-.722-.562-1.302-1.262-1.302z"/></g><g><path fill="#cee8fa" d="M51.653 49.105c-1.625 0-2.963-1.379-2.963-3.055V24.755c0-1.676 1.338-3.055 2.963-3.055s2.962 1.38 2.962 3.055V46.05c0 1.676-1.337 3.055-2.962 3.055z"/></g><g><g><path fill="#f0bf5f" d="M51.65 50.846c-2.563 0-4.65-2.153-4.65-4.795V24.755c0-2.642 2.087-4.795 4.65-4.795s4.65 2.153 4.65 4.795v21.296c0 2.642-2.087 4.795-4.65 4.795zm0-27.393c-.7 0-1.262.58-1.262 1.302v21.296c0 .722.562 1.302 1.262 1.302s1.262-.58 1.262-1.302V24.755c0-.722-.562-1.302-1.262-1.302z"/></g><g><path fill="#2d527c" d="M13.178 25.716H7.29c-.938 0-1.7-.786-1.7-1.753 0-.967.762-1.753 1.7-1.753h5.888c.937 0 1.7.786 1.7 1.753 0 .967-.763 1.753-1.7 1.753z"/></g><g><path fill="#2d527c" d="M13.178 48.596H7.29c-.938 0-1.7-.786-1.7-1.753 0-.967.762-1.753 1.7-1.753h5.888c.937 0 1.7.786 1.7 1.753 0 .967-.763 1.753-1.7 1.753z"/></g><g><path fill="#f0bf5f" d="M5.92 28.418c-.938 0-1.7-.787-1.7-1.753V7.973c0-.967.762-1.753 1.7-1.753s1.7.8 1.7 1.753v18.692c0 .966-.762 1.753-1.7 1.753z"/></g><g><path fill="#2d527c" d="M5.92 57.266c-.938 0-1.7-.787-1.7-1.753v-20.11c0-.967.762-1.753 1.7-1.753s1.7.786 1.7 1.753v20.11c0 .966-.762 1.753-1.7 1.753z"/></g></g><g><path fill="#cee8fa" d="M10.175 2.48H1.7v9.436h8.475z"/></g><g><path fill="#2d527c" d="M1.7 13.66c-.938 0-1.7-.787-1.7-1.754V2.483C0 1.516.762.73 1.7.73h8.475c.937 0 1.7.786 1.7 1.753v9.436c-.013.954-.775 1.74-1.713 1.74zm1.688-3.494h5.087V4.223H3.388z"/></g></g></g></svg>