<svg xmlns="http://www.w3.org/2000/svg" width="25" height="25" viewBox="0 0 25 25"><g><g opacity=".5"><path fill="#fff" d="M25 12.5C25 19.402 19.402 25 12.5 25S0 19.402 0 12.5 5.598 0 12.5 0 25 5.598 25 12.5zm-3.195 2.02c.332-1.407.076-2.71-.742-3.886-.05-.077-.05-.128-.025-.179.153-.562.434-1.048.741-1.534.051-.076.077-.128.128-.204V8.69H18.917a.482.482 0 0 1-.205-.05c-.793-.487-1.61-.87-2.505-1.151a10.617 10.617 0 0 0-1.56-.358c-.715-.102-1.79-.23-3.118-.128-.563.026-1.1.102-1.636.205-.563.102-1.1.255-1.636.434a9.543 9.543 0 0 0-2.122 1.023c-.051.025-.077.05-.128.05H3.12v.026c.076.128.153.23.23.333.28.46.536.92.664 1.431 0 .026 0 .102-.025.128a4.508 4.508 0 0 0-.742 1.585c-.05.204-.23 1.022-.076 1.866.153.92.511 1.712 1.124 2.403a4.753 4.753 0 0 0 2.301 1.431 4.526 4.526 0 0 0 1.943.102c1.176-.204 2.147-.74 2.914-1.661l.026-.026s0-.025.025-.025c.332.485.665.971.997 1.482.332-.51.665-.997.997-1.508.102.102.179.205.256.281a4.808 4.808 0 0 0 2.3 1.355c.358.102.741.154 1.125.154a4.6 4.6 0 0 0 2.505-.716c1.074-.69 1.764-1.636 2.122-2.838z"/></g></g></svg>