<svg xmlns="http://www.w3.org/2000/svg" width="254" height="228" viewBox="0 0 254 228"><g><g><g/><g><g><path fill="#898989" d="M195.139 127.002c0 29.42-18.643 54.484-44.76 64.023l-2.198.006-2.431 1.499a68.18 68.18 0 0 1-20.426 2.592l-.008-.192-12.768-1.324a67.63 67.63 0 0 1-13.83-4.592l-2.374-2.3-3.62-.808a68.438 68.438 0 0 1-15.7-12.585l2.055-2.473-9.112-9.868-1.22 1.391a67.933 67.933 0 0 1-4.184-8.037l.09-.022v-7.229l-4.556-7.542h-.085a68.523 68.523 0 0 1-1.093-15.393l.235-.006 1.212-11.453a67.718 67.718 0 0 1 8.34-20.988 71.79 71.79 0 0 1 1.66-.884c.476-.238.647-1.41.675-2.705 12.31-17.679 32.783-29.25 55.959-29.25 24.057 0 45.201 12.468 57.327 31.293l-.604.398c-.147 1.398 1.846 2.961 3.06 3.727 5.327 9.712 8.356 20.863 8.356 32.722zM162.743 15.05l6.703-3.95-3.232 14.963-2.035 12.569-2.633 5.746-7.063 12.09-4.189 4.788c-1.716-.32-5.435-1.03-6.584-1.317-1.149-.287-2.474-2.434-2.992-3.471.877-2.514 2.705-7.71 2.992-8.38.287-.67 3.87-4.429 5.626-6.224l5.147-3.232 3.831-4.31v-5.267l1.795-7.9zm-45.24 19.16l5.305-21.742 2.809-.832.936 6.658v37.97c-3.225.624-9.945 1.873-11.027 1.873-1.082 0-1.422-1.249-1.456-1.873zM95.68 41.365l1.084 4.159.905 7.142 2.44 6.78v2.893c0 .072-5.846 2.441-8.769 3.616l-5.153-4.7V48.687l2.17-9.131-.904-8.95 5.243 4.791zm-9.945 29.834l-5.515 2.983-32.275-30.015-.904-3.345L87.905 66.86zm79.886-4.26l40.864-26.037-.904 3.345-28.248 32.748-9.542-5.717zM31.853 77.709l9.131-2.261c3.405.814 10.324 2.622 10.758 3.345.434.723 7.956 2.652 11.663 3.526h3.254l4.25 2.802c.081.776.155 1.925.132 2.991a68.221 68.221 0 0 0-2.335 3.59c-1.397.758-3.245 1.78-4.307 2.37l-11.934-2.08C48.88 90.395 41.345 87.11 39.9 86.75c-1.446-.362-11.873-3.104-16.906-4.43-1.687-.12-5.063-.47-5.063-.904v-1.718l5.063-.904zm200.64 5.43l4.208 1.99v1.717c0 .434-3.375.784-5.063.904-5.032 1.326-14.251 6.213-15.697 6.574-1.447.362-9.466-1.252-13.052.345l-12.657 4.834c-1.627-.904-1.907-4.4-2.775-4.834a8.303 8.303 0 0 1-.674-.389 68.107 68.107 0 0 0-2.456-4.125l3.645-2.405h3.255c3.706-.874 11.228-2.802 11.662-3.526.434-.723 7.508.814 10.914 0l8.975-1.084zM16.02 122.886l42.112-12.1h2.436l-.202 1.904a68.223 68.223 0 0 0-1.447 11.46l-38.342 1.014-4.086-1.021zm230.825 7.163l-4.086 1.022-46.255-1.53-1.414-13.356h2.435l49.791 12.607zM49.7 202.454l18.662-39.643.385-.44a68.396 68.396 0 0 0 8.277 10.95L54.417 200.53l-3.46 2.399zm75.158 39.903l-12.896-46.377-.005-2.435.59.061a68.29 68.29 0 0 0 12.777 1.516l1.803 42.673-1.013 4.088zm81.589-29.9l-40.106-26.598-1.648-1.793 10.792-7.996 29.557 31.49 2.012 3.7zM48.154 150.226l8.957-10.685h2.9a67.632 67.632 0 0 0 4.552 14.793l-10.91 2.649-13.198 3.928-8.721 8.329-9.114 6.599-2.75-.55 11.864-16.342zm35.74 51.86l5.072-12.475v-4.543l3.758.838a67.927 67.927 0 0 0 5.994 3.108l1.809 1.752-3.388 9.78-7.085 10.397v13.399l-4.852 9.78-3.85 1.848v-22.024zm116.663-29.796l-10.337-8.632-4.327-1.385 3.816-6.525 5.134-2.75 8.283 6.207 7.952 9.092 12.553 4.906 11.671 6.565-.55 2.278-23.674-6.914zm-44.894 49.689l16.14 14.8 1.469-4.01-4.622-9.096-8.073-10.896-2.177-12.391-4.395-9.37-3.626.01a67.605 67.605 0 0 1-4.63 1.504l-4.003 2.468 3.17 3.255 6.042 17.232z"/></g><g><path fill="#646464" d="M26.783 92.516c-2.88-1.115-5.806-2.114-8.66-3.295-1.6-.662-3.283-1.222-4.694-2.227-.495-.353-1.015-1.108-.758-1.66.253-.545 1.145-.403 1.744-.458.514-.046 1.777.617 1.539.16-.82-1.574-2.528-2.521-3.53-3.986-.979-1.429-1.917-2.953-2.365-4.626-.234-.875-.293-2.112.407-2.686 2.059-1.689 7.724 1.301 8.73 1.552.474.118 1.735.225 1.454-.174-.703-1-2.119-1.253-3.03-2.068-.476-.426-1.402-1.05-1.065-1.593.417-.67 1.583-.698 2.327-.435 2.188.775 3.863 2.694 6.071 3.408 1.378.446 2.9.056 4.345-.04.805-.054 1.596-.238 2.384-.41.397-.085 1.065.035 1.164-.359.11-.436-.44-.817-.8-1.085-1.163-.862-2.51-1.448-3.71-2.26-1.956-1.32-4.012-2.535-5.75-4.133-.504-.463-1.144-1.297-.802-1.89.35-.609 1.427-.585 2.08-.326 1.696.675 3.067 1.982 4.596 2.98 2.615 1.703 5.2 3.452 7.834 5.125.606.384 1.19.85 1.882 1.04.349.097.906.099 1.061-.228.146-.309-.276-.655-.54-.87-1.125-.917-2.386-1.652-3.575-2.483-2.256-1.58-4.574-3.074-6.76-4.749-1.378-1.055-2.816-2.09-3.917-3.43-.496-.605-1.219-1.621-.727-2.229 1.49-1.84 4.36 1.65 4.806 2.008 2.183 1.742 4.42 3.415 6.64 5.11 5.55 4.24 10.66 7.366 17.2 11.316.972.587 2.986 2.414 3.155 1.29.2-1.337-1.838-2.008-2.929-2.807-3.775-2.768-7.768-5.224-11.631-7.867-.28-.19-.536-.413-.794-.632-3.012-2.552-5.92-5.229-9.015-7.678-1.432-1.133-3.104-1.936-4.548-3.054-.45-.348-1.132-.744-1.09-1.311.05-.667.641-1.639 1.3-1.526 3.818.655 10.362 7.93 12 9.259 2.979 2.414 11.211 7.828 14.537 10.253 1.832 1.336 3.525 2.857 5.38 4.16.668.469 1.565 1.691 2.166 1.14.568-.522-.847-1.313-1.433-1.813-1.505-1.285-3.252-2.26-4.793-3.501-.89-.717-1.894-1.384-2.486-2.361-.266-.44-.272-1.211.125-1.538.475-.39 1.315-.395 1.84-.078 2.063 1.245 3.625 3.188 5.599 4.568.409.287 1.723.784 1.454.363-1.296-2.021-10.246-9-10.405-9.14-1.088-.955-2.173-1.936-3.068-3.074-.249-.317-.518-.858-.273-1.178.843-1.103 3.308 1.047 3.393 1.117 1.727 1.395 3.273 3.005 4.993 4.409.17.138.592.395.634.18.068-.346-.246-.68-.485-.938-2.63-2.828-5.345-5.579-8.096-8.29-1.134-1.117-2.446-2.049-3.556-3.19-1.716-1.763-3.153-3.79-4.912-5.511-1.137-1.112-2.674-1.78-3.745-2.956-.573-.628-1.479-1.581-1.059-2.32.402-.707 1.627-.174 2.437-.105.41.036 1.1.822 1.163.415.08-.514-1.847-2.17-.875-3.077.328-.307.923-.15 1.346 0 .716.25 2.003 1.917 1.957 1.16-.108-1.814-1.441-3.337-2.186-4.995-.734-1.633-2.249-3.118 2.149-3.948 1.278-.24 2.344 1.214 3.623 1.45.74.138 2.808-1.436 3.513-.916 1.621 1.198 2.356 3.3 3.812 4.696 1.293 1.24 4.823 4.873 4.362 3.141-.763-2.86-3.646-4.663-5.403-7.045-.572-.775-1.575-1.456-1.58-2.42-.01-2.383 1.656-1.7 2.548-2.87.42-.551.39-1.444.954-1.846.887-.63 1.968.765 2.283 1.213 1.466 2.088 2.788 4.275 4.254 6.364 2.133 3.039 4.389 5.99 6.543 9.015 1.536 2.157 2.901 4.438 4.527 6.529.493.634 1.06 1.286 1.797 1.604.284.122-.013-.65-.183-.908-1.427-2.157-3.144-4.114-4.568-6.274-1.085-1.646-1.918-3.447-2.949-5.128-1.736-2.833-3.55-5.62-5.35-8.412-1.277-1.979-2.613-3.919-3.882-5.902-.208-.325-.78-1.2-.154-1.604 1.855-1.2 3.665.753 4.65 2.18 3.038 4.408 5.532 9.168 8.188 13.816.548.96.808 2.074 1.416 2.997 2.827 4.288 5.766 8.507 8.866 12.603.888 1.172 2.983 4.635 3.07 3.167.12-2.007-1.914-3.538-2.945-5.264-.987-1.654-2.147-3.202-3.108-4.87-2.21-3.836-4.159-7.817-6.398-11.635-2.052-3.499-4.419-6.806-6.47-10.305-.328-.56-1.78-2.93-.384-3.768 1.832-1.1 3.67 3.08 3.772 3.251 3.022 5.052 5.903 10.186 8.782 15.321.684 1.22 1.229 2.516 1.905 3.742.996 1.807 2.066 3.573 3.108 5.354.924 1.581 1.811 3.185 2.789 4.734.671 1.064.933 2.798 2.155 3.098.87.214.013-1.86-.384-2.663-2.225-4.496-4.974-8.712-7.413-13.096-2.908-5.23-5.632-10.562-8.627-15.742-1.583-2.735-3.082-3.032-3.193-6.259-.017-.492.216-1.123.669-1.317.42-.18.985.135 1.288.479 1.016 1.152 1.779 2.512 2.53 3.852 2.174 3.881 4.132 7.88 6.237 11.8 1.662 3.094 3.328 6.186 5.063 9.24.736 1.297 1.448 2.619 2.346 3.809.417.552 1.74 2.037 1.56 1.37-.026-.093-3.238-5.472-3.647-6.26-2.178-4.194-4.23-8.452-6.421-12.638-1.778-3.398-3.714-6.711-5.487-10.112-.395-.756-1.356-2.741.052-3.46 1.402-.716 2.286.925 2.696 1.729 1.708 3.349 3.397 6.708 5.007 10.105 1.584 3.343 2.995 6.766 4.574 10.112.946 2.004 1.954 3.98 2.998 5.934.109.204.626.75.969.49.852-.644.557-1.63.171-2.436-1.538-3.213-3.287-6.32-4.905-9.493-2.215-4.343-4.452-8.674-6.593-13.053-.55-1.125-1.06-2.274-1.477-3.455-.111-.315-.177-.675-.095-1 .298-1.166 1.358-1.232 2.37-.435.675.532 1.084 1.36 1.427 2.149.863 1.987 1.359 4.117 2.17 6.126.322.8.822 1.515 1.22 2.28 1.495 2.863 2.893 5.778 4.458 8.603.322.58.53 1.634 1.193 1.592.554-.035.2-1.149 0-1.668-1.387-3.594-3.144-7.034-4.714-10.552-1.511-3.384-3.333-6.645-4.53-10.152-.476-1.393.402-3.77 2.427-1.964.882.787 1.2 2.043 1.67 3.127.425.982.09 3.601 1.006 3.049 1.383-.834.948-3.09 1.55-4.589.751-1.873 1.53-3.744 2.503-5.511.279-.506.637-1.203 1.213-1.236 4.326-.248 3.045 2.738 4.161 5.764.893 2.421 1.422 5.168 3.178 7.06.81.871.32-2.406.064-3.568-.527-2.405-1.646-4.643-2.381-6.993-.158-.503-.36-1.032-.291-1.555.194-1.467 1.094-2.552 2.757-1.247.706.554 1.147 1.46 1.34 2.338.635 2.876.825 5.834 1.111 8.765.363 3.722-.733 5.16 2.262 7.86.246.222.64-.463.6-.791-.36-2.964-1.113-5.869-1.763-8.783-.616-2.76-1.723-5.427-2.035-8.238-.072-.648.31-1.52.93-1.72 2.1-.674 2.476 3.233 2.591 3.754.613 2.773 1.17 5.56 1.669 8.356.378 2.118.61 4.26.96 6.381.626 3.795 1.392 7.42 3.431 10.849.501.843-.064-1.965-.206-2.936-.105-.712-.38-1.39-.532-2.094a452.672 452.672 0 0 1-1.786-8.702c-.128-.658-.177-1.329-.291-1.99-.462-2.69-1.041-5.36-1.436-8.06-.264-1.804-.755-3.632-.538-5.442.084-.698.678-1.591 1.381-1.595.702-.004 1.234.897 1.393 1.58.776 3.33.814 6.792 1.344 10.17.464 2.953 1.14 5.868 1.637 8.815.224 1.33.222 2.699.523 4.014.112.492.497 1.801.701 1.34.437-.984.25-2.157.137-3.228-.433-4.124-1.275-8.196-1.768-12.313-.338-2.824-.836-5.66-.725-8.501.023-.597.514-1.382 1.111-1.407.649-.028 1.296.667 1.454 1.296.754 2.996.825 6.124 1.184 9.192.374 3.2.709 6.405 1.015 9.613.258 2.698.347 5.413.677 8.104.444 3.619 1.136 7.203 1.646 10.813.254 1.802-.092 3.656 1.309 5.236.34.382.55-.919.555-1.43.021-2.022-.327-4.031-.477-6.048-.178-2.393-.313-4.79-.509-7.182-.232-2.834-.537-5.662-.776-8.495-.547-6.477-1.12-12.951-1.582-19.434-.078-1.092-.16-2.22 1.015-2.817.559-.283 1.228.487 1.361.87.313.906.614 1.838.683 2.794.39 5.44.392 10.901.689 16.347.15 2.741.534 5.467.649 8.21.103 2.456-.441 4.3-.096 6.734.037.259.216.635.477.62.263-.014.376-.41.421-.67.213-1.23.38-2.481.34-3.73-.109-3.407-.659-6.79-.785-10.198-.109-2.936.164-5.877.082-8.815-.098-3.519-.506-7.024-.62-10.543-.022-.69.003-3.655 1.838-3.304.723.139 1.15 1.106 1.224 1.839.19 1.872-.454 3.743-.468 5.624-.026 3.57.23 7.138.349 10.706.063 1.904-.533 3.952.198 5.711.345.832.948-1.562 1.163-2.436.3-1.217.314-2.49.358-3.742.183-5.207-.008-10.428.322-15.628.049-.767.037-2.149.806-2.16.814-.014.926 1.36 1.195 2.128.175.498-.182 2.024.105 1.58 1.624-2.511.028-5.025 4.263-5.47 2.37-.248 2.535 4.149 3.187 4.783.512.498-.05-1.434.052-2.14.117-.808.212-1.657.599-2.376.137-.254.535-.266.823-.266.723 0 1.407.64 1.638 1.275.148.405.014.863.023 1.294.096 4.682.093 9.367.29 14.045.093 2.217.195 4.446.582 6.63.105.592.275 1.64.872 1.576.615-.067.615-1.123.643-1.74.198-4.384.06-8.776.029-13.164-.013-1.837-.477-3.7-.16-5.51.142-.81.654-1.898 1.472-1.979.766-.075 1.454.919 1.587 1.677.317 1.8-.21 3.651-.328 5.476-.07 1.105-.215 2.206-.236 3.312-.08 4.241-.117 8.484-.064 12.725.056 4.462.245 8.921.393 13.38.005.144.002.297.064.427.05.105.167.32.253.24.48-.436.418-1.187.427-1.74.08-5.111.2-10.223.218-15.335.004-1.108-.184-2.213-.154-3.321.134-5.018-.035-10.072.646-15.045.134-.98.764-2.53 1.744-2.4 1.085.146 1.572 1.759 1.632 2.852.28 5.136-.361 10.28-.637 15.417-.165 3.076-.653 6.137-.686 9.218-.029 2.672-.246 5.436.5 8.002.316 1.087.698-2.162.872-3.28.451-2.896.781-5.814 1-8.737.462-6.177-.267-12.85.972-18.911.215-1.053 1.068-2.622 2.125-2.425 1.037.193.988 1.95.992 3.005.022 5.372-.997 10.72-.913 16.092.03 1.88.767-3.683 1.079-5.537.711-4.231.81-8.591 1.989-12.716.236-.827 1.248-1.746 2.079-1.526.828.219 1.134 1.499 1.038 2.35-.227 2.006-1.561 3.753-1.954 5.734-.856 4.32-1.298 8.715-1.777 13.093-.094.86-.369 3.343.061 2.593.892-1.557 1.024-3.443 1.428-5.192 1.158-5.011 1.773-10.158 3.257-15.083.21-.696 1-1.557 1.701-1.366.722.197.952 1.324.872 2.068-.196 1.816-1.256 3.44-1.657 5.221-.833 3.704-1.279 7.485-2.036 11.205-.73 3.588-1.705 7.123-2.425 10.712-.338 1.686-.638 3.389-.747 5.105-.02.314.07.77.369.87.986.328 1.959-2.019 1.995-2.16.688-2.705 1.023-5.487 1.524-8.233.857-4.689 1.634-9.393 2.55-14.07.527-2.69.728-5.497 1.779-8.03.307-.739 1.303-.982 2.065-1.229.224-.072.436.201.603.366.343.338.508.821.44 1.299-.033.232-.2.428-.258.656-1.023 3.971-2.111 7.929-2.986 11.935-.718 3.29-1.119 6.644-1.791 9.944-.314 1.54-.95 3.011-1.164 4.568-.053.38.01 1 .384 1.088.401.093.776-.408.963-.775.456-.896.718-1.89.898-2.88.653-3.594.95-7.247 1.597-10.842.248-1.38.697-2.715 1.084-4.061.84-2.919 1.65-5.848 2.597-8.734.134-.408.3-.854.637-1.12.322-.253.78-.34 1.189-.319.46.024.66.716.663 1.033.004.413-.497 2.16.05 2.413.437.203.851-.46 1.238-.748.64-.475 6.751-7.426 9.62-3.649.848 1.116.006 2.83-.329 4.191-.622 2.532-1.901 4.87-2.521 7.403-.13.528.002 2.045.317 1.6.99-1.396 1.222-3.2 1.925-4.762.301-.669 1.365-3.5 3.062-2.471.527.32.515 1.238.317 1.821-1.087 3.197-2.926 6.098-4.088 9.268-.331.903-1.31 3.004-.358 2.863 1.24-.185 1.432-2.058 2.094-3.121.837-1.346 1.666-2.7 2.401-4.105.533-1.018.71-2.23 1.396-3.153.45-.605 1.204-1.583 1.885-1.256.704.339.591 1.584.331 2.32-1.127 3.19-3.076 6.031-4.385 9.15-.289.688-1.084 2.458-.381 2.207.985-.353 1.16-1.747 1.66-2.666 1.546-2.839 2.967-5.744 4.476-8.603.44-.834 1.537-2.2 2.713-1.555.672.369.31 1.55.131 2.294-.393 1.637-1.425 3.074-1.815 4.711-.146.612.714-1.037 1.064-1.56.456-.683 1.694-3.192 3.155-2.208.598.403-.16 1.45-.427 2.12-.955 2.398-2.316 4.624-3.222 7.04-.083.223.549-.035.672-.238 1.424-2.342 2.25-5.047 3.879-7.251.582-.787 1.665-1.861 2.553-1.45.895.414.917 1.973.582 2.9-1.062 2.942-3.05 5.461-4.586 8.186-.83 1.47-1.78 2.877-2.51 4.4-.698 1.456-1.13 3.027-1.762 4.513-.422.994-1.178 1.864-1.399 2.921-.084.4.739-.425.951-.774 1.718-2.832 3.218-5.791 4.798-8.702 1.948-3.59 3.597-7.354 5.787-10.802.385-.605 1.116-1.334 1.812-1.16.637.159.935 1.169.782 1.807-.326 1.358-1.424 2.403-2.088 3.631-2.68 4.962-8.982 17.216-11.062 21.334-.552 1.093-1.129 1.434-.462 2.297.037.049.121.024.182.018a.468.468 0 0 0 .315-.17c.038-.047.054-.108.085-.16 1.231-2.117 2.45-4.24 3.701-6.344 1.3-2.19 2.678-4.333 3.952-6.538.82-1.42 1.529-2.902 2.327-4.334 1.592-2.857 2.832-5.955 4.844-8.533.47-.602 1.585-.94 2.228-.528.61.39.61 1.49.314 2.152-1.283 2.862-3.362 5.3-4.883 8.043-2.268 4.092-4.638 8.148-6.476 12.45-.449 1.05 1.605-1.64 2.257-2.576 1.652-2.372 3.114-4.87 4.638-7.327 1.653-2.663 2.983-5.545 4.891-8.032.428-.557 1.262-1.08 1.928-.855.53.178.58 1.109.384 1.633-.72 1.932-1.975 3.621-3.007 5.406a252.916 252.916 0 0 1-4.071 6.834c-.557.897-1.276 1.69-1.794 2.61-.173.308-.513.79-.253 1.027.29.266.84.031 1.163-.194.592-.413.995-1.05 1.437-1.621 2.475-3.2 4.956-6.398 7.31-9.688.42-.587.441-1.463.997-1.923 1.436-1.19 3.542-1.34 2.487 1.444-.636 1.677-2.723 2.79-2.824 4.58-.058 1.02 1.79-.99 2.652-1.54 1.071-.685 4.15-3.704 5.973-1.816.849.879.501 2.487.163 3.66-.556 1.93-3.831 6.215-4.874 8.05-.392.69-1.231 1.46-.928 2.193.222.536 1.04-.574 1.414-1.018 1.873-2.225 3.419-4.712 5.286-6.942.625-.746 1.655-.738.835.642-1.306 2.195-2.888 4.214-4.33 6.323-.515.753-.975 1.547-1.541 2.262-.941 1.19-1.998 2.283-2.975 3.443-.77.914-1.667 1.744-2.265 2.779-.9 1.557-3.7 5.909-2.19 4.931 2.86-1.852 4.44-5.168 6.61-7.794.398-.481.725-1.017 1.09-1.523 1.767-2.447 3.463-4.948 5.307-7.338.909-1.178 1.577-2.298 3.178-1.74.248.086.358.41.426.663.135.505-.134 1.174-.405 1.57-2.311 3.377-4.616 6.76-7.049 10.05-1.921 2.598-4.025 5.056-6.008 7.606-.207.266-.4.545-.561.841-.053.097-.213.61.093.655.219.033.48-.029.637-.185 3.072-3.08 6.014-6.289 8.988-9.465 2.08-2.22 3.932-4.663 6.171-6.723.431-.397 1.183-.809 1.684-.505.985.597.497 2.353-.03 2.985a270.796 270.796 0 0 1-9.244 10.54c-2.33 2.515-4.865 4.833-7.269 7.278-2.064 2.1-4.072 4.253-6.133 6.355-2.197 2.24-4.486 4.392-6.642 6.671-.345.365-1.329 1.381-.846 1.245.958-.271 1.71-1.04 2.457-1.7 3.21-2.834 6.263-5.84 9.393-8.763 1.827-1.706 14.571-13.612 16.095-15.057 1.437-1.36 2.597-3.065 4.263-4.133.721-.462 1.964-.857 2.559-.24.604.626.264 1.923-.291 2.593-4.033 4.872-13.72 13.05-18.602 17.606-.47.438-1.136.822-1.268 1.45-.069.327.684-.007.992-.136.307-.129.532-.402.791-.612 2.098-1.697 4.218-3.369 6.281-5.108 4.31-3.633 8.31-7.65 12.838-11.008.677-.501 1.896-.952 2.501-.365.604.586.258 1.87-.291 2.509-2.034 2.365-4.705 4.098-7.104 6.091-3.225 2.68-6.468 5.339-9.767 7.927-.337.265-7.972 5.57-9.527 7.597-.17.22.59.07.832-.067 2.968-1.68 5.88-3.463 8.724-5.345 1.606-1.063 3.059-2.342 4.612-3.481 2.667-1.956 5.431-3.782 8.049-5.804.908-.701 1.684-1.558 2.512-2.352.716-.688 3.096-4.076 5.074-2.846.648.403.778 1.488.559 2.219-.206.688-1.831 1.46-2.495 1.964-2.685 2.038-5.26 4.225-8.011 6.175-4.177 2.962-8.61 5.555-12.76 8.554-.49.354-1.403.934-1.088 1.45.369.604 1.44.45 2.111.226 1.785-.593 3.37-1.675 5.011-2.593 7.05-3.939 6.917-5.879 16.828-11.997.737-.455 2-.626 2.599 0 .52.543-.01 1.627-.497 2.199-.938 1.1-2.342 1.694-3.527 2.52-4.158 2.9-8.272 5.865-12.504 8.656-.846.558-1.866.817-2.71 1.378-.39.259-1.064.592-.94 1.044.114.413.874.324 1.274.171 2.252-.858 4.417-1.95 6.514-3.138 4.197-2.377 8.177-5.122 12.35-7.542a5.31 5.31 0 0 1 1.744-.632c.284-.05.593.042.844.184.66.374 1.035 1.271.273 1.95-1.424 1.27-3.098 2.237-4.749 3.191-1.754 1.014-3.703 1.668-5.446 2.7-.3.179-.698.542-.582.87.102.291.628.192.919.09 1.82-.633 3.574-1.45 5.322-2.262 1.228-.57 2.296-1.516 3.6-1.88 2.673-.743 2.615 1.038 1.733 2.94-.299.643-1.726.791-1.536 1.476.222.8 1.44.877 2.245 1.079 1.164.29 6.684.083 7.354 2.622.275 1.04-.596 2.247-1.471 2.874-3.163 2.266-6.838 3.715-10.274 5.54-.544.29-2.574.863-2.091 1.95.27.606 1.337.469 1.972.275 3.278-1.001 6.377-2.515 9.555-3.797.628-.253 1.976-1.233 2.574-.032.288.58-.144 1.514-.724 1.801-4.393 2.176-9.064 3.757-13.702 5.343-1.236.423-2.607.302-3.862.665-.543.156-1.004.528-1.454.87-.701.532-2.845 1.55-1.986 1.74 1.635.361 3.283-.671 4.903-1.096 1.121-.294 2.208-.707 3.312-1.06 2.988-.953 5.96-1.959 8.965-2.86.954-.285 2.675-.366 2.978 1.173.144.729-.532 1.578-1.216 1.868-2.85 1.205-5.959 1.668-8.956 2.436-3.734.957-7.445 2.04-11.236 2.738-3.736.687-7.574.714-11.309 1.407a58.394 58.394 0 0 0-8.468 2.263c-.377.13-.885.56-.747.934.136.368.774.247 1.163.191 4.547-.656 9.042-1.64 13.586-2.32 2.478-.37 4.965-.807 7.47-.827.62-.005 1.6.142 1.701.754.106.641-.728 1.203-1.343 1.413-1.988.679-4.128.78-6.194 1.16-3.029.556-6.076 1.013-9.09 1.645-1.448.304-5.727.834-4.284 1.16 2.42.547 4.966-.145 7.427-.45 4.891-.605 9.73-1.577 14.609-2.277 1.759-.252 3.543-.308 5.299-.58 2.691-.416 5.36-.962 8.034-1.482.112-.022 5.86-2.095 6.831-.09.37.764-.612 1.606-.695 2.451a3.43 3.43 0 0 0 .291 1.688c.323.731 1.479 1.207 1.334 1.993-.153.834-1.166 1.392-1.992 1.581-1.98.452-4.06.13-6.086.264-3.516.231-7.034.455-10.538.829-3.433.366-6.832 1.017-10.265 1.39-2.015.219-4.048.232-6.069.385-.26.02-.526.043-.77.134-.046.017.008.099.026.144a.364.364 0 0 0 .346.23c2.932.085 5.866.375 8.796.232 3.745-.183 7.453-.84 11.184-1.21 3.936-.391 7.879-.716 11.818-1.076 1.012-.093 2.743-.503 3.335.914.296.71-.492 1.459-.68 2.204-.264 1.045-.208 2.614-1.091 3.429-.495.457-1.328.309-1.922.626-.27.144-.592.405-.581.711.01.273.37.431.625.528.363.138 7.63 1.903 7.991 3.721.268 1.348-1.117 2.525-1.87 3.675-.265.404-.917.472-1.131.905-.334.673-.27 1.479-.416 2.216-.112.564-.024 1.22-.361 1.686-.494.684-1.799.332-2.378.272-1.293-.135-2.592-.227-3.882-.388-1.673-.21-3.335-.493-5.005-.723-.367-.05-2.038-.326-2.088.447-.027.421.731.46 1.146.54 3.084.592 6.448.164 9.305 1.467 1.188.542 1.238 2.311 1.675 3.542.56 1.577-.595 3.418-1.407 4.539-.141.195-.482.015-.721-.014-2.443-.294-4.906-.476-7.32-.954-2.842-.562-5.58-1.58-8.418-2.161-1.935-.397-3.92-.502-5.877-.769-2.243-.306-4.47-.754-6.726-.951-.74-.065-2.5-.523-2.224.168.361.905 1.768.862 2.719 1.073 4.057.899 8.184 1.447 12.262 2.245 3.83.75 7.618 1.7 11.457 2.399.013.002 4.5.196 4.755.513.656.816.753 2.04.616 3.078-.062.467-1.014.388-1.134.844-.083.313.549.365.747.621.5.647 1.614 1.295 1.329 2.062-.336.905-1.617 1.34-2.582 1.314-2.22-.06-4.313-1.058-6.476-1.558a610.82 610.82 0 0 0-9.04-2.03c-4.017-.865-8.088-1.491-12.068-2.515-2.42-.623-4.707-1.688-7.098-2.416-.382-.116-1.465-.4-1.193-.108 2.379 2.55 5.335 2.595 8.584 3.391 6.506 1.595 17.277 4.163 23.863 6.002.52.145 4.415.866 4.01 2.79-.126.597-.958.971-1.568.946-2.448-.101-4.865-.677-7.232-1.309-5.042-1.346-10.003-2.986-14.961-4.614-.545-.179-.983-.61-1.526-.798-.605-.21-1.242-.402-1.882-.38-.394.013-1.096.087-1.082.481.02.542.643.945 1.14 1.161 1.502.653 3.149.9 4.714 1.383 2.806.865 5.58 1.833 8.398 2.657 1.931.564 3.905.972 5.845 1.506 2.085.574 4.286.865 6.229 1.815 1.017.498 1.103 1.918.497 2.662a1.65 1.65 0 0 1-.907.572c-1.94.406-6.42-1.767-6.857-1.908-4.683-1.514-9.385-2.968-14.089-4.415-.962-.296-3.28-1.747-2.908-.812 1.243 3.122 6.691 3.336 8.866 4.383.608.293 1.536.934 1.289 1.563-1.633 4.155-3.511-2.377-5.395.502-.525.802 1.38 1.38 2.239 1.804 4.244 2.09 9.002 3.166 12.999 5.697.864.547.564 1.973.715 2.985.089.597-.369 1.334 0 1.812.79 1.025 2.044 1.595 3.146 2.272.494.303 1.357.131 1.611.652.568 1.165 1.389 2.831.582 3.846-4.003 5.034-15.131-.77-17.415-1.534-1.008-.337-1.85-1.064-2.841-1.45-.293-.114-.777-.29-.943-.023-.18.288.108.73.367.948 1.918 1.616 4.118 2.873 6.057 4.464.13.107 2.521 1.838 2.432 3.068a1.177 1.177 0 0 1-.263.668c-.17.2-.412.355-.667.418-1.145.284-3.015-1.496-3.296-1.718-1.814-1.432-3.524-2.99-5.281-4.49-.804-.687-1.558-1.437-2.402-2.074-.18-.136-2.418-1.661-2.978-.994-.272.324.374.782.687 1.067 3.14 2.86 6.687 5.278 9.636 8.333.508.527.937 1.574.477 2.144-.505.626-1.721.67-2.402.241-3.063-1.928-5.546-4.652-8.313-6.985-.109-.092-.198-.208-.314-.29-2.79-1.967-5.49-4.073-8.401-5.856-.33-.202-.927-.307-1.163 0-.21.273.188.704.447.931 3.843 3.36 7.832 6.548 11.792 9.769 2.353 1.914 5.116 3.38 7.145 5.636.613.681.823 1.924.375 2.723-.365.652-1.512.835-2.184.508-1.545-.752-2.58-2.27-3.838-3.44-.314-.292-.547-.666-.873-.946a288.623 288.623 0 0 0-7.336-6.105c-4.667-3.748-9.46-7.337-14.104-11.112-3.222-2.619-6.225-5.503-9.491-8.067-.332-.26-1.504-.65-1.219-.339 1.986 2.164 4.233 4.075 6.433 6.021.9.796 1.934 1.426 2.855 2.196 1.883 1.575 3.715 3.212 5.554 4.838 1.078.953 2.114 1.955 3.199 2.901 2.687 2.342 5.437 4.61 8.116 6.961 3.03 2.658 6.34 5.047 9.014 8.064.57.644.98 1.923.393 2.552-.548.586-1.726.042-2.367-.441-2.993-2.258-5.418-5.192-8.293-7.599-3.105-2.6-6.378-4.996-9.631-7.408-.255-.189-1.083-.618-.873-.38.726.825 1.658 1.444 2.466 2.19 2.835 2.619 5.581 5.335 8.462 7.904 1.513 1.349 3.258 2.43 4.711 3.843.688.67 1.308 1.462 1.66 2.355.47 1.19-.175 2.568-1.657 1.378-3.613-2.901-6.83-6.265-10.314-9.319-1.118-.98-2.363-1.809-3.49-2.779-.835-.719-5.574-5.588-6.092-5.331-1.375.683 1.79 2.514 2.882 3.593 2.02 1.995 4.296 3.713 6.42 5.596.18.16.404.305.489.53.28.747 1.024 1.657.582 2.321-.425.637-1.522.185-2.286.235-.36.024-.913-.3-.623.32.051.11.17.172.254.26 2.327 2.432 4.542 4.976 6.979 7.298.682.65 1.556 1.062 2.338 1.588-1.137.474-3.425.22-3.391 1.449.088 3.156 2.736 5.714 3.681 8.727.227.724.344 1.773-.235 2.263-.63.533-1.69.28-2.475.029-1.106-.354-1.967-1.238-2.995-1.778-.335-.176-.698-.354-1.077-.361-.378-.007-.712.35-1.089.32-1.114-.091-2.309-.131-3.283-.678-1.21-.68-1.776-2.256-3.025-2.863-.474-.23.128 1.058.32 1.549.403 1.028 1.322 1.88 1.454 2.976.284 2.364-1.283 2.56-2.544 1.366-.522-.494-.642-1.29-1.035-1.891-1.758-2.695-3.623-5.319-5.412-7.994-.687-1.028-1.196-2.188-2.015-3.113-.23-.26-.714-.488-.998-.29-.252.175-.04.641.096.917.47.952 1.137 1.792 1.687 2.7 2.075 3.426 4.576 6.634 6.188 10.3.506 1.15 1.072 3.115 0 3.771-1.006.616-2.231-1.029-2.934-1.975-1.785-2.403-2.872-5.253-4.362-7.849-1.726-3.006-3.34-6.085-5.286-8.954-.631-.931-1.348-1.968-2.397-2.376-.463-.18-.143 1.055.105 1.485 1.457 2.532 3.3 4.822 4.923 7.252.156.234.289.483.41.736 1.463 3.048 2.877 6.119 4.342 9.166.16.332 2.625 3.616.924 4.635-.488.293-1.254-.084-1.628-.513-1.504-1.726-2.602-3.77-3.804-5.72-1.437-2.33-2.718-4.753-4.108-7.112-.317-.538-.708-1.032-1.012-1.578-1.894-3.394-3.606-6.891-5.581-10.239-1.188-2.013-2.588-3.893-3.899-5.828-.25-.37-1.082-1.373-1.556-1.055-.345.232.067.862.291 1.212 1.27 1.98 2.87 3.737 4.15 5.711 2.37 3.652 5.483 9.648 7.482 13.491 1.937 3.723 4.149 7.32 5.766 11.193.533 1.276 1.122 2.813.622 4.102-.283.728-1.709.77-2.326.29-1.01-.785-1.214-2.256-1.719-3.432-.264-.615-.28-1.325-.581-1.923-2.02-4-4.231-7.901-6.369-11.84-1.516-2.793-2.916-5.655-4.591-8.356-.394-.635-.895-1.89-1.579-1.59-.66.29.096 1.456.343 2.132.625 1.713 1.475 3.335 2.254 4.983.081.172.22.31.322.47 1.67 2.647 3.44 5.234 4.99 7.953 1.28 2.244 2.395 4.579 3.49 6.918.811 1.733 1.526 3.51 2.224 5.291.071.182.234.466.076.58-1.554 1.117-3.228 2.07-4.943 2.918-.362.179-.802.091-1.204.122-.969.074-1.948.345-2.908.194-.361-.057-.42-.848-.777-.774-.393.082-.523.658-.581 1.056-.184 1.271-.052 7.92-.474 8.754-.455.898-1.792 1.534-2.754 1.238-1.473-.453-2.29-2.064-3.402-3.13-.454-.435-.747-1.062-1.294-1.372-1.362-.773-2.691.624-3.798-1.337-.902-1.599-.86-3.57-1.381-5.331-.218-.737-.522-1.448-.832-2.152-.04-.092-.436-.675-.689-.418a.889.889 0 0 0-.224.737c.415 2.42 1.122 4.782 1.585 7.193.171.89.521 1.818.317 2.701-.14.606-.64 1.312-1.259 1.377-1.83.194-2.137-3.293-2.271-3.878-.852-3.712-1.374-7.507-2.466-11.155-.15-.5-.67-1.125-1.181-1.024-.48.095-.615.882-.541 1.366.317 2.062 3.015 11.571 2.99 15.451-.005.788-.449 2.023-1.292 2.412-.25.115-.537.165-.811.143-.512-.042-1.119-.389-1.317-.893-.21-.535-.298-1.114-.366-1.685-.335-2.823-.487-5.666-.841-8.487-.377-3.007-.856-6.002-1.352-8.992-.098-.593-.558-2.42-1.701-2.068-.435.134-.009.914.061 1.363.452 2.908 2.255 12.39 2.573 16.435.053.678.625 4.089-1.483 4.041-.533-.012-1.038-.565-1.18-1.079-.628-2.276-.73-4.666-1.05-7.005-.543-3.959-1.473-12.415-2.323-16.702-.167-.84-.576-1.616-.806-2.442-.766-2.754-1.423-5.537-2.181-8.293-.454-1.652-.79-3.351-1.454-4.931-.182-.432-.562-1.05-1.023-.966-.375.069-.02.77.055 1.143.414 2.055.948 4.084 1.41 6.129.105.467.22.933.291 1.407.258 1.737.386 3.492.692 5.221.216 1.224.626 2.407.872 3.626.78 3.868 1.535 7.742 2.205 11.631.565 3.281.987 6.586 1.5 9.876.166 1.063.991 2.799-1.119 3.284-.834.192-1.485-1.068-1.745-1.883-.688-2.159-.692-4.478-1-6.723-.693-5.054-1.277-10.123-2.004-15.173-.438-3.041-.89-6.083-1.489-9.096-.22-1.107.159-3.35-.965-3.246-1.12.103-.309 2.237-.291 3.362.026 1.684.26 3.359.422 5.035.317 3.26.635 6.521 1.017 9.775.673 5.734 1.664 11.433 2.149 17.186.042.5-.36 3.255-1.75 3.121-.541-.052-.994-.626-1.163-1.143-.523-1.596-.546-3.315-.841-4.969-.123-.691.113-2.53-.413-2.065-.688.608-.312 1.815-.343 2.733-.042 1.257.395 2.542.125 3.77-.17.775-.588 1.943-1.381 1.938-.771-.005-1.095-1.197-1.236-1.955-.59-3.171-.638-6.42-.922-9.633-.484-5.468-.85-10.947-1.381-16.411-.19-1.957.527-4.381-.785-5.845-.921-1.028-.83 2.68-.814 4.061.045 3.856.681 7.683.994 11.527.237 2.913.553 5.822.654 8.742.097 2.823.22 5.663-.061 8.473-.05.493-.421 1.08-.907 1.177-1.506.303-1.815-2.418-1.838-2.924-.121-2.704.16-5.415.093-8.121-.082-3.321-.215-6.646-.54-9.952-.066-.667.044-1.895-.626-1.912-.65-.017-.463 1.234-.514 1.883-.204 2.58-.242 5.173-.248 7.762-.008 3.116.728 6.381-.174 9.476-.196.673-.863 1.463-1.562 1.41-.564-.042-.565-1.013-.633-1.575-.146-1.205.822-2.75 0-3.643-.574-.625-1.135 1.324-1.388 2.134-.48 1.54.15 6.068-2.099 6.985-5.333 2.174-5.161-6.536-5.551-7.962-.157-.575-.547-2.19-.742-1.627-.528 1.523-.207 3.219-.366 4.823-.03.31-.096 2.418-1.14 2.341-.81-.06-.931-1.255-.899-1.772.268-4.274.92-8.53.937-12.812.005-1.227.062-2.781-.873-3.576-.614-.522-.517 1.547-.567 2.352-.14 2.255.16 4.525 0 6.779-.206 2.905-.419 5.835-1.096 8.667-.132.554-.686 1.204-1.253 1.16-1.696-.133-1.142-3.078-1.082-3.649.465-4.392 2.476-18.673 2.498-21.859.011-1.572.245-4.095-1.262-4.545-1.293-.386-.358 2.676-.506 4.017-.669 6.069-1.254 12.147-1.943 18.213a93.028 93.028 0 0 1-.66 4.711c-.15.903-1.04 2.687-2.204 2.361-.796-.223-.939-1.497-.872-2.321.175-2.158 1.096-4.19 1.57-6.303.147-.653.215-1.322.291-1.987.428-3.72.87-7.439 1.221-11.167.207-2.197.209-4.412.451-6.605.275-2.489.892-4.936 1.099-7.431.124-1.49.833-3.324-.11-4.484-.545-.67-1.04 5.112-1.178 5.412-.183.397-.614.87-1.044.792-.43-.078-.69-.672-.698-1.108-.011-.679 1.256-12.229 1.224-12.609-.07-.845-.808 1.514-.994 2.341-.836 3.711-1.35 7.488-2.062 11.225-.82 4.3-1.769 8.575-2.533 12.885-.713 4.022-.938 8.137-1.899 12.107-.529 2.184-1.676 4.17-2.544 6.242-.052.124-.12.246-.214.343a.971.971 0 0 1-.736.297c-.81-.029-1.531-1.157-1.498-1.806.162-3.192 1.02-6.313 1.672-9.442.54-2.587 1.328-5.118 1.901-7.698 1.34-6.031 2.371-12.538 3.673-18.558.306-1.417.815-2.786 1.111-4.206.085-.406.44-1.27.026-1.244-.534.033-.743.803-.942 1.3-.446 1.114-2.33 5.672-2.832 8.452-.612 3.389-1.26 6.771-1.818 10.169-.77 4.687-.803 6.826-1.753 10.822-.797 3.35-1.32 6.789-2.489 10.028-.298.825-.972 1.67-1.818 1.902-.835.229-1.618-1-1.659-1.696-.014-.24.06-.477.124-.708 1.157-4.23 2.466-8.418 3.536-12.67.913-3.63 1.451-7.349 2.41-10.967.647-2.443 1.59-4.799 2.402-7.193.06-.176.18-.333.21-.517.268-1.65.787-3.302.68-4.971-.03-.482-.774.656-.927 1.114-.915 2.745-1.485 5.592-2.24 8.385-.703 2.597-1.467 5.178-2.134 7.785-1.181 4.617-2.274 9.257-3.41 13.885-.535 2.176-.58 4.72-2.225 6.451a1.427 1.427 0 0 1-.835.402c-.306.04-.7.054-.91-.173-1.144-1.241-.152-3.521.157-4.623.948-3.387 2.132-6.706 3.044-10.103.299-1.111.277-2.293.582-3.402.473-1.717 1.288-3.329 1.745-5.05 1.025-3.862 2.31-7.704 2.698-11.681.172-1.76-1.506 3.212-2.035 4.899-.445 1.42-.46 2.948-.873 4.377-.946 3.277-2.23 6.45-3.198 9.72-.312 1.053-.377 2.164-.637 3.231-.384 1.578-.744 3.168-1.294 4.696-.489 1.358-1.153 2.65-1.812 3.934-.304.593-1.072 1.85-2.088 1.311-.397-.21-.573-.803-.509-1.248.18-1.226.808-2.342 1.204-3.515.367-1.087.815-2.151 1.085-3.266.073-.301.21-.794-.07-.928-.322-.154-.723.18-.986.423-1.382 1.282-2.65 2.685-3.893 4.102a86.06 86.06 0 0 0-3.749 4.606c-.522.686-.863 1.502-1.413 2.166-.685.827-1.816 2.474-3.249 2.368-1.697-.126-2.238-2.229-2.363-3.615-.086-.959.518-1.854.756-2.787.596-2.337 1.433-4.631 1.745-7.023.062-.476-.697.672-.969 1.068-.892 1.303-1.443 2.857-2.515 4.017-1.498 1.621-2.225.174-2.303-1.117-.032-.522.183-1.047.425-1.511 1.892-3.628 3.997-7.142 5.96-10.732.509-.93 1.236-1.789 1.455-2.825.495-2.35-.203-6.779-.675-8.989-.085-.4-.112-1.044-.515-1.114-.435-.076-.763.488-1.02.847-2.824 3.942-5.472 8.008-8.195 12.02-1.187 1.75-2.037 3.774-3.536 5.265-.576.573-1.738 1.124-2.361.603-.653-.546-.408-1.823.03-2.553 2.3-3.846 5.429-7.136 7.976-10.824 2.296-3.325 4.637-6.643 6.545-10.205.508-.947 1.677-3.34.617-3.164-1.508.25-2.013 2.306-2.908 3.544-1.468 2.03-2.707 4.218-4.173 6.248a407.496 407.496 0 0 1-8.584 11.411c-.358.46-2.987 4.279-4.653 2.486-.624-.672-.208-1.966.29-2.735 1.364-2.105 3.474-3.624 5.078-5.552 5.647-6.79 11.606-14.838 16.598-22.079 1.444-2.094 2.692-4.317 4.089-6.443.762-1.16 1.754-2.176 2.387-3.411.17-.331.219-1.36-.064-1.116-1.256 1.083-2.135 2.54-3.129 3.869-1.783 2.385-3.447 4.858-5.199 7.266-.93 1.278-1.842 2.571-2.847 3.791-.793.963-1.74 1.793-2.541 2.75-2.319 2.772-4.47 5.682-6.813 8.432-1.377 1.616-2.938 3.066-4.342 4.658-1.943 2.205-3.765 4.514-5.696 6.729-.745.853-1.623 1.475-2.952 1.074-.412-.124-.566-.694-.645-1.117-.157-.839.267-1.522.779-2.097 3.909-4.393 7.972-8.649 11.812-13.102 1.977-2.294 3.765-4.745 5.632-7.13 3.952-5.046 7.912-10.084 11.824-15.161.925-1.201 2.503-2.167 2.687-3.672.126-1.034-1.698 1.214-2.472 1.911-1.646 1.483-3.196 3.07-4.778 4.621a7.073 7.073 0 0 0-.68.734c-1.423 1.86-2.781 3.768-4.193 5.636-2.128 2.815-4.234 5.647-6.427 8.411-2.937 3.702-8.262 9.963-11.489 13.592-1.024 1.152-1.87 2.529-3.155 3.38-.656.435-1.732.756-2.347.264-.547-.438-.305-1.498.053-2.101.881-1.487 2.309-2.573 3.475-3.849 2.787-3.051 5.737-5.96 8.383-9.134 2.862-3.433 5.316-7.19 8.122-10.668 1.027-1.274 2.242-2.384 3.367-3.573.12-.126.168-.112.21-.293a.47.47 0 0 0 .005-.183c-.01-.06-.018-.208-.066-.171-4.689 3.538-4.61 4.733-9.649 10.822-.553.669-1.18 1.273-1.745 1.932-2.537 2.958-4.932 6.039-7.56 8.916-1.654 1.811-3.252 3.743-5.272 5.134-.635.437-1.785.65-2.312.087-.503-.538-.06-1.573.355-2.181.759-1.11 2.054-1.745 2.99-2.712 1.234-1.276 2.32-2.687 3.509-4.006 1.067-1.184 2.276-2.245 3.257-3.501.242-.31.623-.837.357-1.128-.248-.272-.738.168-1.035.386-2.834 2.078-5.57 4.287-8.322 6.474-1.056.839-6.207 6.715-9.524 5.369-.77-.312-.968-1.609-.695-2.393 1.078-3.093 3.107-5.768 4.563-8.702.193-.39.724-.985.378-1.25-.373-.286-.914.278-1.303.542-.839.57-1.404 1.562-2.346 1.935-1.343.532-3.87-.068-1.8-2.202 2.55-2.63 5.702-4.607 8.433-7.051a8.29 8.29 0 0 0 1.515-1.853c.064-.105-.069-.367-.184-.322a7.08 7.08 0 0 0-1.942 1.16c-2.848 2.392-5.48 5.033-8.308 7.448-1.027.877-2.07 1.453-3.417.497-.822-.584-.033-1.8.215-2.283.023-.043.07-.07.108-.099 3.563-2.765 7.902-5.863 11.347-9.09.738-.691 1.39-1.47 2.108-2.182 1.672-1.659 3.48-3.186 5.062-4.931.251-.277.616-.778.37-1.058-.259-.294-.851-.08-1.163.156-.922.695-1.513 1.752-2.38 2.515-6.82 6.009-9.666 8.093-17.263 13.096-.85.56-2.345.967-3.039-.383-.267-.519.126-1.256.544-1.664 1.137-1.11 2.606-1.821 3.928-2.704 1.24-.828 2.542-1.563 3.757-2.428 5.022-3.574 10.379-7.646 14.964-11.782.501-.452 1.54-.999 1.236-1.601-.275-.547-1.226.27-1.73.618-4.716 3.26-9.149 6.919-13.874 10.166-2.663 1.83-5.347 3.682-8.272 5.056-.607.285-1.434.13-1.998-.232-.832-.532.075-1.914.433-2.213.775-.647 1.69-1.104 2.539-1.653 2.78-1.8 5.637-3.484 8.345-5.39 2.672-1.88 5.225-3.926 7.782-5.96.384-.306 1.193-.589 1.032-1.053-.146-.42-.926.04-1.303.275-4.503 2.82-8.768 6.007-13.26 8.844-1.51.954-3.004 2.06-4.73 2.521-.76.203-1.902.043-2.266-.653-.317-.606.423-1.407.98-1.804 4.162-2.966 8.68-5.399 12.987-8.151 4.633-2.962 9.216-6.002 13.833-8.991 1.74-1.127 3.545-2.154 5.234-3.356.286-.204.755-.495.648-.83-.107-.338-.677-.433-1.015-.322-1.402.46-2.73 1.159-3.972 1.958-3.88 2.498-7.56 5.293-11.358 7.913-.12.082-.267.115-.39.191-2.376 1.464-4.717 2.987-7.107 4.429-1.24.748-2.566 1.352-3.78 2.141-2.182 1.419-4.268 2.98-6.397 4.476-.158.111-.277.303-.466.345-.853.19-1.73.432-2.6.339-.334-.036-.576-.397-.73-.696-.373-.723-.06-1.678.45-2.229.31-.334.778-.476 1.182-.686 1.233-.64 2.53-1.158 3.728-1.862 5.358-3.148 15.58-9.749 20.437-13.186.247-.175.609-.508.47-.778-.138-.272-.632-.208-.912-.087-2.165.936-4.294 1.979-6.307 3.208-3.288 2.008-6.277 4.479-9.564 6.486-2.842 1.735-5.835 3.21-8.8 4.725-.473.242-.972.591-1.5.537-1.92-.196-3.392-1.166-1.1-2.84 1.717-1.253 3.774-1.957 5.645-2.964.214-.115.438-.228.608-.401.17-.173.613-.708.39-.615-1.943.804-3.778 1.846-5.654 2.794-.855.432-2.45 1.83-3.457.191-.345-.561.178-1.348.532-1.903.282-.443 1.76-.731 1.274-.928-.97-.391-7.06-.155-8.241-1.404-2.74-2.894 3.804-4.04 3.928-4.098.445-.206 1.168-.38 1.187-.87.016-.439-.771-.424-1.129-.679-1.248-.89-2.727-1.506-.116-2.848 1.334-.686 2.88-.842 4.33-1.225.563-.149 2.46-.076 2.032-1.389-.18-.553-1.178-.176-1.744-.043-2.147.502-4.13 1.727-6.325 1.931-.757.07-1.92-.401-1.963-1.16-.05-.877.97-1.618 1.789-1.935 3.197-1.238 6.68-1.58 9.95-2.61.403-.127 1.114-.434.96-.827-.172-.438-.925-.35-1.387-.261-3.647.701-7.205 1.811-10.832 2.611-.35.077-.728.098-1.077.016-.876-.205-1.72-.98-1.496-2.055.11-.53.593-1.024 1.11-1.184 2.21-.683 4.557-.789 6.82-1.267 3.395-.718 6.802-1.401 10.148-2.321.39-.107 1.054-.338.968-.734-.09-.412-.79-.427-1.21-.374-.37.047-13.45 2.716-14.068 2.822-.987.17-3.424.205-3.414-1.615.005-.809 1.199-1.19 1.978-1.407 1.48-.413 3.065-.247 4.591-.426.334-.04.654-.16.983-.227 2.577-.524 5.17-.97 7.735-1.546.638-.143 1.94.043 1.864-.606-.077-.659-1.306-.33-1.969-.29-3.03.18-6.053.513-9.058.943-1.905.272-3.735 1.281-5.655 1.16-.941-.06-2.187-.725-2.29-1.662-.097-.896 1.046-1.63 1.897-1.926 1.551-.541 3.272-.298 4.908-.447 8.717-.795 13.43-1.073 22.063-2.465 2.045-.33 4.048-.888 6.08-1.294.32-.064 4.362-.544 4.382-1.218.022-.738-1.482-.085-2.216 0-3.21.372-6.391.956-9.596 1.369-3.59.462-7.2.762-10.785 1.256-3.903.537-7.768 1.335-11.675 1.836-2.002.257-4.027.585-6.04.435-.536-.04-1.168-.454-1.28-.98-.307-1.45.562-2.356 1.73-2.631.397-.094.817.015 1.225-.012 1.237-.082 2.474-.163 3.705-.313 2.153-.262 4.286-.673 6.44-.922 5.035-.581 10.103-.868 15.122-1.567 2.608-.363 5.464-.28 7.732-1.618 1.603-.946-3.72.18-5.575.345-5.97.53-11.918 1.296-17.895 1.74-2.885.214-5.808.604-8.677.232-1.13-.147-3.04-.606-2.94-1.74.108-1.216 2.034-1.55 3.245-1.7 6.031-.75 12.142-.583 18.207-.971.12-.008.41-.211.29-.212-4.227-.02-8.453.172-12.68.154-2.684-.011-5.365-.15-8.047-.241-.17-.006-.347 0-.51-.052a1.244 1.244 0 0 1-.75-.663c-.07-.155-.194-.349-.113-.498.926-1.684 1.444-1.508 3.385-1.575 3.657-.126 7.316-.137 10.975-.185 1.056-.014 2.114.058 3.17 0 3-.164 6.006-.313 8.99-.665.13-.015.13-.377 0-.394-1.017-.13-2.053.076-3.076 0-3.8-.282-7.578-.807-11.379-1.073-.96-.067-1.924.025-2.884.075-2.269.119-4.555.769-6.802.432-.825-.124-1.848-.89-1.814-1.723.032-.802 1.146-1.324 1.942-1.421 3.356-.41 6.762-.105 10.143-.058 2.126.03 4.247.323 6.374.29.62-.01 2.377-.154 1.815-.417-1.856-.866-3.917-1.3-5.953-1.515-.663-.07-1.21.696-1.876.691-3.87-.028-7.809.07-11.582-.789-.794-.18-.787-1.428-1.212-2.123-.186-.304-.284-.745-.617-.871-1.063-.402-5.36-.336-5.801-2.581-.145-.737.725-1.442 1.404-1.761 3.49-1.64 7.26-2.606 10.856-3.997.37-.144 1.078-.205 1.032-.6-.05-.422-.743-.462-1.163-.522-1.485-.213-3.01-.045-4.49-.29-.61-.1-1.247-.318-1.704-.734-.338-.308-.486-.82-.503-1.276-.021-.579.78-.876 1.186-.871 2.316.028 4.631.147 6.942.311 1.588.113 3.165.348 4.748.519 1.007.109 2.009.321 3.021.319a20.093 20.093 0 0 0 3.696-.334c.256-.049.627-.224.614-.484-.013-.265-.4-.395-.66-.447-1.85-.368-3.738-.517-5.604-.797-2.478-.372-5.039-.401-7.426-1.161-.77-.245-1.896-.958-1.69-1.74.214-.816 1.533-.906 2.376-.87 6.404.276 11.367 1.998 17.619 2.494 1.526.121 5.267 1.244 4.591-.13-.826-1.68-3.561-1.203-5.405-1.526-2.556-.447-5.182-.366-7.744-.774-3.676-.585-7.287-1.531-10.948-2.202-.784-.144-2.443-.002-3.247-.586-.799-.58-1.561-2.206.272-2.744 1.153-.338 2.403.146 3.588.348 4.516.769 9.035 1.543 13.502 2.562 2.045.467 4.008 1.243 6.004 1.888.112.036.202.135.318.155.116.02.233-.043.351-.042 1.695.008 3.397-.105 5.083.067 1.59.163 3.128.658 4.702.934.474.083 2.189.254 2.274-.659.041-.438-.708-.573-1.137-.673-1.648-.384-3.348-.493-5.019-.762-8.498-1.366-13.279-2.428-23.312-4.621-2.122-.464-4.33-.715-6.316-1.593-.602-.266-1.125-1.012-1.059-1.667.06-.593.75-1.183 1.346-1.178 2.021.017 3.958.822 5.935 1.241 4.444.942 8.888 1.882 13.327 2.843 3.207.694 6.408 1.411 9.61 2.12.66.146 1.31.342 1.978.444 3.29.5 6.574 1.059 9.887 1.363.944.087 3.66.278 2.838-.194-1.344-.772-3.056-.52-4.58-.806a160.523 160.523 0 0 1-4.681-.931 617.017 617.017 0 0 1-11.423-2.588c-1.595-.38-3.162-.875-4.754-1.27-3.84-.952-7.691-1.851-11.539-2.77-1.597-.381-3.2-.736-4.795-1.131-.234-.058-.544-.032-.686-.227-.485-.668-1.393-1.453-1.093-2.221.294-.756 1.486-.973 2.285-.836 4.99.855 9.796 2.563 14.717 3.748.13.031.495-.038.384-.111a14.932 14.932 0 0 0-2.754-1.45c-2.612-1.022-5.289-1.871-7.956-2.74-1.322-.432-2.69-.715-4.007-1.161-.36-.122-.806-.213-1.003-.537-.63-1.036-.972-2.984 1.311-2.404 4.16 1.056 8.112 2.804 12.196 4.121.731.236 1.502.332 2.242.537 6.356 1.76 12.647 3.762 19.047 5.357.723.18 2.517.639 2.236-.052-.35-.863-1.75-.64-2.635-.928-.5-.163-1.056-.174-1.52-.422-.464-.247-.838-.643-1.195-1.028a.945.945 0 0 1 .274-1.477c.171-.082.377-.051.566-.07.81-.077 3.19.085 2.434-.217-3.574-1.429-15.334-4.93-17.613-5.813zm191.33 116.907l.006-.002c.008-.003.025.023.018.018l-.023-.016zm-65.73-28.401c1.021 0 1.824-.488 2.652-1.03 2.577-1.688 4.944-3.675 7.785-4.992 1.846-.87 2.989-2.665 4.33-4.168-.96.128-1.687.58-2.414 1.056a23.843 23.843 0 0 1-3.353 2.001c-.692.308-1.73.499-2.154-.499-.399-.937.381-1.421 1.084-1.766a20.278 20.278 0 0 0 4.699-3.072c.582-.516 1.103-1.119 1.745-1.505 2.766-1.636 4.787-4.165 7.415-6.002 2.742-1.917 4.528-4.803 5.999-7.846.695-1.435 1.219-2.935 1.908-4.35.291-.615.817-1.193 1.611-.914.727.255.692.989.663 1.615a2.805 2.805 0 0 1-.273 1.109c-1.745 3.39-4.124 6.381-5.927 9.743-1.224 2.288-3.399 3.93-5.234 5.801-.616.629-1.215 1.566-.494 2.123.782.606 1.163-.618 1.689-1.088.227-.206.291-.58.419-.908.198-.519.518-1.012 1.003-1.195 1.204-.452 1.972-1.363 2.742-2.294.492-.595 1.088-.911 1.745-.36s.977.142 1.384-.339c1.664-1.975 2.87-4.232 4.042-6.506.137-.264.425-.563.09-.899-.096.04-.209.052-.264.116-.439.496-.623 1.581-1.579 1.018-.957-.563-.314-1.346 0-2.031a68.983 68.983 0 0 0 2.739-7.01c.712-2.298.832-4.751 1.983-6.936.62-1.16.622-2.491.625-3.814a45.01 45.01 0 0 1 .343-4.908c.102-.893.454-1.862 1.611-1.589.963.229 1.018-.316 1.036-.87.081-2.544.738-5.07.197-7.632a16.236 16.236 0 0 1-.29-3.892c.081-2.553-.719-4.954-1.315-7.385-.104-.427-.227-.946-.962-1.192.235 1.76.427 3.419.689 5.064.161 1.153.19 2.321.087 3.481-.026.4-.189.783-.677.797-.408 0-.582-.29-.684-.641-.215-.841-.381-1.696-.616-2.535-1.044-3.715-1.114-7.646-2.516-11.286-.255-.661-.604-1.378-.023-2.053.666-.775 1.236.098 2.018.353-.73-2.74-2.274-4.835-3.268-7.173-.873-2.065-2.495-3.649-3.679-5.51-1-1.584-1.881-3.278-3.036-4.734-2.873-3.623-5.731-7.252-9.712-9.862-4.196-2.765-7.645-6.622-12.693-8.14-3.181-.954-5.816-3.297-9.171-3.89-2.135-.376-4.261-.75-6.308-1.522-2.471-.931-5.147-.122-7.627-.647-5.028-1.067-9.913.032-14.83.528-1.922.194-3.926.29-5.72.92-4.865 1.705-9.861 3.054-14.42 5.618-3.888 2.184-7.47 4.798-11.147 7.275-2.652 1.786-4.652 4.35-6.778 6.697-2.41 2.674-4.652 5.511-6.435 8.702-1.783 3.19-3.748 6.329-5.054 9.827-1.98 5.299-3.841 10.544-4.251 16.298-.335 4.691-.436 9.381-.567 14.068-.108 3.867 1.087 7.614 1.82 11.391.55 2.836 1.85 5.47 2.815 8.194 1.896 5.346 5.161 9.914 8.116 14.642 1.303 2.083 3.49 3.588 4.96 5.592 3.2 4.351 7.503 7.524 11.923 10.245 4.42 2.721 8.881 5.369 14.013 6.857 5.014 1.45 9.902 3.191 15.174 3.542 6.153.4 12.277.525 18.319-.937 1.265-.305 2.673-.273 3.813-.815 2.841-1.352 5.999-1.767 8.814-3.156 1.858-.917 4.385-.87 4.943-3.597.093-.449.718-.606 1.14-.844 1.204-.676 2.48-1.244 3.446-2.297-2.516.853-4.589 2.552-6.979 3.643-1.885.87-3.621 2.068-5.738 2.347-.761.101-1.666.333-1.965-.67-.3-1.004.459-1.297 1.221-1.648 1.125-.519 2.492-.58 3.327-1.665zm18.759 51.795l-.002-.003a.32.32 0 0 0-.001.003zm-.66-2.749c-.904-2.08-1.814-4.218-3.242-5.961-2.449-2.991-5.47-5.436-7.392-8.96-1.338-2.46-1.689-4.861-1.454-7.44.308-3.594.198-7.057-1.864-10.19-.689-1.047-1.454-2.03-2.12-3.109-1.087-1.769-3.021-2.445-4.923-1.508-1.64.806-3.373 1.366-5.057 2.056-.514.209-.631.458-.261.833 1.084 1.105 1.872 2.448 3.006 3.524 2.673 2.538 4.071 5.801 4.915 9.302.544 2.289.581 4.722 1.314 6.935 1.312 3.939 3.911 6.782 7.886 8.464 2.394 1.012 4.871 1.987 6.689 4.157 1.15 1.376 1.88 2.994 3.16 4.643.29-1.265-.325-1.99-.657-2.746zM19.516 80.328c.805.29 1.602.804 2.413.821 3.283.073 6.497.838 9.814.702 3.318-.136 6.767-.067 9.887 1.592.517.27 1.072.46 1.646.56 2.908.52 5.234 2.237 7.505 3.925 2.434 1.813 4.976 3.19 7.945 3.953 1.823.467 3.678.093 5.458.62 1.367.407 2.652-.185 3.15-1.516.288-.657.632-1.288 1.026-1.888.538-.934 1.366-1.996.581-3.075-.913-1.239-2.061-2.213-3.736-2.535-2.472-.476-4.854.476-7.349.13-3.387-.467-6.62-1.16-9.697-2.717-4.141-2.095-8.45-3.481-13.231-2.643-2.47.43-4.987.47-7.436 1.16a19.13 19.13 0 0 1-7.906.485zm190.895 48.463c2.561.07 4.69.128 6.813.197 2.498.081 5.004.841 7.502.14a9.25 9.25 0 0 1 4.039-.221c4.222.69 8.468.812 12.731.783.774 0 1.544.081 2.326.07a.581.581 0 0 0 .628-.499c.021-.29-.261-.38-.479-.467a13.916 13.916 0 0 0-2.391-.58c-2.931-.609-5.935-.78-8.845-1.52-4.406-1.117-8.777-2.399-13.284-3.086-4.507-.688-9.145-.847-13.507-2.396-2.553-.908-5.321-.821-7.851-1.781-.748-.29-1.201.183-1.12.87.311 2.584.343 5.175.422 7.768.029.969.43 1.322 1.372.719.547-.348 1.219-.226 1.841-.29 3.411-.389 6.802.757 9.803.293zm-4.429 81.579c-.119-.58-.521-.931-.934-1.271-1.419-1.16-2.858-2.297-4.265-3.48-4.415-3.681-7.541-8.519-11.405-12.696-2.123-2.292-4.231-4.606-6.261-6.991-1.788-2.102-3.78-4.118-5.551-6.253-1.37-1.645-3.091-1.694-4.845-.18-1.419 1.224-2.311 2.982-4.111 3.829-1.341.629-1.358 1.189-.131 2.03 3.719 2.506 7.485 4.946 11.183 7.481 1.164.789 2.446 1.293 3.58 2.164 2.981 2.297 6.028 4.519 9.224 6.529l5.621 3.536c1.782 1.125 3.364 2.564 5.025 3.878.68.536 1.305 1.142 2.003 1.656.282.209.73.397.867-.232zm27.985-125.72c-2.306-.395-4.678-.371-6.746.38-2.48.902-4.804 2.03-7.537 2.126-1.983.073-3.958.29-5.929-.035-2.809-.467-5.604-1.285-8.433-1.38-4.339-.145-8.756.037-12.606 2.465-3.591 2.263-4.496 2.973-2.367 6.628.049.084.105.162.148.25 1.454 2.845 1.393 2.729 4.17 1.197 2.556-1.412 4.944-3.15 7.974-3.692a24.002 24.002 0 0 1 7.804-.218c5.508.836 9.948-1.74 14.54-3.927 1.559-.746 2.934-1.845 4.629-2.367 1.454-.444 3.007-.58 4.353-1.424zm-33.094-38.61c-.229.04-.454.101-.672.183-3.373 1.622-6.206 4.061-9.137 6.309-2.099 1.598-4.28 3.124-6.397 4.705-3.112 2.32-6.223 4.707-9.518 6.819-1.329.853-2.788 1.557-3.969 2.642s-1.361 2.155-.291 3.087a59.016 59.016 0 0 1 4.572 4.394c.953 1.032 1.779.934 2.684-.142 1.209-1.45 2.442-2.875 3.565-4.386 2.035-2.761 4.612-5.07 6.708-7.788 2.859-3.707 5.88-7.283 8.927-10.834 1.321-1.531 2.551-3.12 3.818-4.681zM63.413 151.93c0-.885-.383-1.561-.764-2.233-1.056-1.871-1.672-3.896-2.138-5.979-.189-.852.053-2.047-1.079-2.32-1.195-.29-1.744.806-2.381 1.578a4.781 4.781 0 0 0-.52.87c-2.53 4.946-6.296 8.597-11.65 10.227a29.532 29.532 0 0 0-12.998 8.076c-3.164 3.318-5.656 7.187-8.607 10.683-.23.272-.631.67-.204.989.381.29.675-.186.974-.409 1.102-.818 1.853-1.961 2.725-2.988 2.291-2.703 5.298-4.615 7.851-7.045 1.71-1.628 3.661-3.281 5.935-4.113 4.193-1.535 8.349-3.29 12.984-3.238 3.088.035 5.996-.902 8.724-2.355.75-.397 1.241-.913 1.148-1.743zm20.31 82.153c.182-.226.316-.406.462-.58 1.18-1.352 1.177-3.24 2.154-4.705.631-.948 1.437-1.894 1.469-3.103.058-2.121.384-4.334-.085-6.35-.718-3.08-.23-5.917.565-8.829a16.665 16.665 0 0 1 4.847-8.061 13.806 13.806 0 0 0 3.114-4.113c1.07-2.198 1.114-4.58 1.66-6.86.44-1.827-.383-2.88-2.102-3.666-.828-.38-1.744-.551-2.489-1.16-.648-.525-1.11-.125-1.285.531a6.258 6.258 0 0 0-.125 1.58c0 3.124-1.096 5.952-2.452 8.682-1.355 2.729-3.405 5.047-4.632 7.831-.63 1.451-1.698 2.73-1.637 4.424.14 3.971 1.012 7.831 1.925 11.666.457 1.92.872 3.744.326 5.67-.51 1.755-.721 3.597-1.568 5.262-.244.49-.523 1.05-.148 1.781zm149.485-53.487c.428.044.794.172.896-.197.134-.484-.311-.693-.64-.835-3.105-1.334-6.106-3.011-9.444-3.652-4.191-.806-7.895-2.03-11.173-5.163-3.76-3.611-7.362-7.37-11.05-11.037-2.134-2.117-4.51-3.817-7.421-4.603-2.172-.58-3.39.145-4.181 2.196-.521 1.351-1.047 2.689-1.986 3.828-.291.354-.672.792-.34 1.3.276.423.79.351 1.203.29 2.298-.29 4.403.542 6.511 1.195 4.586 1.421 8.288 4.403 11.763 7.489 3.475 3.087 7.45 4.517 11.852 5.221 4.295.702 8.579 1.427 12.504 3.435.487.217.991.396 1.506.533zm-107.315 59.546c-.556-2.865-.059-5.751-.216-8.632-.381-6.921.463-13.862-.549-20.788-.596-4.093-.236-8.267-.343-12.403-.05-1.955-.501-2.587-2.394-2.732-1.637-.125-3.288-.053-4.943-.061-.907 0-1.277.58-1.07 1.328.683 2.515.957 5.12 1.66 7.614a89.074 89.074 0 0 1 1.745 7.269c.582 2.964.689 6.022 1.352 8.963 1.108 4.931 1.707 9.975 3.522 14.72.587 1.546-.047 3.327 1.236 4.722zm24.321-181.544c1.111-.11 1.818-.447 2.303-1.424.986-1.987 1.626-4.133 2.815-6.025 1.25-1.99 2.036-4.246 3.815-5.934a13.687 13.687 0 0 0 4.269-8.174c.415-2.672.621-5.372.616-8.075-.072-4.841 1.015-9.363 3.612-13.488.259-.412.605-.914.061-1.273-.599-.398-.983.101-1.259.58-.529.92-1 1.873-1.55 2.781a17.37 17.37 0 0 0-2.617 8.441 146.51 146.51 0 0 1-.326 5.778 9.382 9.382 0 0 1-2.204 5.558 38.688 38.688 0 0 1-5.409 5.22c-1.765 1.39-3.78 2.53-5.053 4.485-1.661 2.558-2.397 5.662-4.714 7.849-.468.444-.823 1.293.029 1.74 1.809.94 3.795 1.413 5.612 1.961zM18.193 123.906l.007-.008h-.004zm4.806.186c2.516-.603 5.028-.618 7.596-.716 6.426-.247 12.85-.612 19.285-.705 2.222-.032 4.443-.183 6.665-.258.965-.035 1.454-.459 1.652-1.451.41-2.027.613-4.092.605-6.16 0-2.031-.21-2.263-2.216-1.691-1.905.545-3.734 1.38-5.706 1.667-5.001.728-9.712 2.553-14.54 3.905-5.21 1.45-10.293 3.361-15.702 4.118-.791.125-1.623.263-2.438 1.097 1.743.001 3.298.554 4.8.194zM123.741 14.05l.01.008.001-.017zm-1.792 8.861c-.645 5.592-1.471 11.144-2.576 16.676-.933 4.673-2.344 9.25-2.876 14.007-.134 1.198.169 1.766 1.367 1.804 1.66.049 3.257-.32 4.871-.659 1.613-.34 2.035-1.218 2.076-2.758.102-4.255-.524-8.49-.291-12.737.154-2.996-.625-5.96-.183-8.957.294-2.01.301-4.052.023-6.065-.369-2.694-.526-5.369 0-8.058.113-.638.269-1.329-.61-2.106-.319 3.184-1.453 5.94-1.801 8.853zM48.694 42.487l.01.002.001-.022zm.779 1.207c2.649 2.555 5.9 4.35 8.52 6.961 2.987 3.011 6.072 5.912 9.052 8.922 4.071 4.105 8.363 7.991 12.434 12.102.48.484.99.951 1.78.58A13.743 13.743 0 0 0 85.665 69c.424-.467.625-1.067.119-1.56a16.939 16.939 0 0 0-2.513-2.158c-2.096-1.363-4.277-2.576-6.313-4.061-2.442-1.784-4.972-3.48-7.525-5.122-3.437-2.22-6.93-4.351-10.178-6.886-2.73-2.124-6.008-3.481-8.625-5.83a3.968 3.968 0 0 0-1.926-.895c-.03.664.441.89.769 1.205zm39.82-9.801l.012.002v-.023zm.824 4.771c.529 1.816.29 3.606-.163 5.276-1.675 6.312-1.951 12.453 1.375 18.37.559.995 1.847 1.74 2.76 1.293a40.724 40.724 0 0 0 3.609-2.105c.581-.366.654-.897.346-1.512a20.24 20.24 0 0 1-2.173-8.121c-.087-1.654.09-3.266.14-4.894a10.89 10.89 0 0 0-1.649-6.358c-1.236-1.949-2.765-3.707-3.827-5.778a1.712 1.712 0 0 0-1.23-.94c-.04 1.731.374 3.27.812 4.77zM75.563 172.3a1.27 1.27 0 0 0-.085-.444c-1.058-1.598-2.056-3.266-3.533-4.522-.581-.487-1.311-.2-1.564.473-.617 1.644-1.835 2.929-2.539 4.536a82.269 82.269 0 0 1-3.78 7.655c-1.541 2.723-2.957 5.511-4.702 8.121-2.085 3.127-3.975 6.382-5.918 9.61-.398.661-1.372 1.633-.715 2.094.919.647 1.407-.638 1.852-1.293 2.327-3.394 4.944-6.55 7.442-9.801 1.689-2.196 3.797-3.971 5.48-6.167 2.252-2.938 4.334-6.039 7.151-8.513a2.867 2.867 0 0 0 .91-1.749zm135.048 38.499c-2.157-3.521-5.737-5.682-8.348-8.774-.873-1.036-1.576-2.19-2.481-3.191-3.3-3.652-6.671-7.251-9.669-11.15a57.695 57.695 0 0 0-5.498-6.091 52.877 52.877 0 0 1-4.993-5.386c-.215-.29-.372-.836-.841-.58-.363.197-.264.707-.174 1.073.337 1.36 1.207 2.436 2.146 3.394 3.074 3.135 6.365 6.053 9.157 9.467a150.728 150.728 0 0 0 8.078 9.099c2.408 2.495 4.362 5.404 7.116 7.603a16.125 16.125 0 0 1 3.489 4.034c.721 1.161 1.684 1.773 2.975 2.611-.393-1.387-.483-1.332-.957-2.109zm34.808-99.768c-2.94-.221-5.816-.255-8.724.47-3.85.957-7.872.823-11.794 1.357-4.156.566-8.253 1.558-12.449 1.836-2.6.171-5.188.424-7.767.78-.649.09-1.312.079-1.815.708 14.38-.061 28.489-2.407 42.549-5.151zm-68.507 126.532c.648-.438.543-1.033.415-1.5-.817-3.014-1.645-6.004-3.198-8.78-1.745-3.104-4.173-5.673-6.351-8.412-2.283-2.862-3.647-5.975-4.63-9.374-.165-.58-.168-1.451-1.084-1.16-.791.237-.582.992-.428 1.612.061.235.166.456.218.691 1.187 5.258 4.691 9.107 7.954 13.122 2.585 3.19 5.208 6.343 6.074 10.552.221 1.073.372 2.254 1.03 3.249zm42.952-136.502c-.39-.496-.89-.29-1.381-.174-2.53.641-5.06 1.297-7.674 1.483-2.172.153-4.362.29-6.432.957-2.367.757-4.923 1.125-6.857 2.9-.66.604-1.745 1.451-1.163 2.193.581.743 1.692-.101 2.419-.62 2.908-2.095 6.325-2.916 9.762-3.339 3.542-.435 6.836-1.648 10.227-2.57a1.455 1.455 0 0 0 1.099-.818zm-199.426 25.56a9.129 9.129 0 0 0 3.03.43c4.74.026 9.491-.131 14.216.151 5.694.339 11.367.701 17.035-.119.872-.125 2.41.525 2.437-.543.02-.76-1.716-.658-2.702-.623-4.103.153-8.206.58-12.3.51-6.38-.116-12.76-.264-19.143-.223-.805-.003-1.631-.093-2.573.417zm200.604 40.458a1.558 1.558 0 0 0-.273-.61 1.566 1.566 0 0 0-.501-.443c-.872-.58-1.878-1.039-2.655-1.741a228.653 228.653 0 0 1-6.752-6.352c-3.899-3.803-8.497-6.457-13.58-8.33-.508-.189-1.125-.363-1.361.316-.218.629.373.777.832.945 1.315.479 2.649.914 3.935 1.451 3.739 1.598 6.821 4.153 9.785 6.857 2.454 2.239 4.844 4.548 7.301 6.781a12.132 12.132 0 0 0 2.149 1.465c.436.279.954.342 1.12-.339zM127.57 17.223c-.331 2.506-.215 35.077.224 36.321.163-1.836.844-3.234.78-4.786-.172-4.087.389-8.174 0-12.266-.204-2.199.139-4.502-.184-6.6-.552-3.576-.186-7.12-.445-10.662-.04-.609.117-1.241-.375-2.007zm-.122 214.414c-.221 1.894.189 3.46.265 5.05 0 .232.043.531.355.545.311.015.401-.246.421-.49.063-.43.075-.866.038-1.3a22.384 22.384 0 0 1-.241-5.197c.488-5.819.363-11.658.404-17.482.032-4.482-.201-8.969.02-13.453a8.02 8.02 0 0 0-.154-1.45c-.032-.232-.029-.534-.34-.56-.393-.032-.436.31-.486.58a4.362 4.362 0 0 0-.043.722c-.117 11.115.25 22.227-.247 33.035zm80.258-136.182c-2.719-.29-5.295.438-7.851 1.128-1.724.464-3.426 1.082-4.865 2.204-.582.45-1.23 1.05-.666 1.81.497.67 1.131.122 1.669-.185 3.847-2.196 7.959-3.452 12.417-3.504 1.593-.017 3.199.128 4.757-.386.497-.165 1.405-.07 1.262-.87-.128-.714-.962-.47-1.503-.467-1.765.017-3.487.432-5.237.27zm1.32 66.002l.056.05a29.393 29.393 0 0 0-.038-.05zm4.319 5.462c3.437 3.191 7.208 5.468 11.884 6.149 2.186.353 4.319.972 6.354 1.842.776.316 1.492.853 2.661.769-.582-.841-1.143-1.41-1.893-1.755a21.619 21.619 0 0 0-4.793-1.624c-1.558-.314-3.155-.502-4.673-.955-2.963-.87-5.504-2.561-7.828-4.568-2.005-1.748-3.993-3.514-5.975-5.27 1.418 1.859 2.547 3.82 4.263 5.412zm-11.702 29.902c-1.07-2.03-2.634-3.66-4.071-5.398-2.666-3.24-5.525-6.323-8.264-9.488-2.036-2.32-3.699-4.954-5.999-7.042-.291-.261-.582-.87-1.038-.444-.387.363.02.809.291 1.14 2.532 3.098 5.033 6.225 7.624 9.282 2.123 2.5 4.362 4.911 6.537 7.362 1.509 1.662 2.818 3.524 4.92 4.588zm-70.26 28.591c.631-2.19.508-4.475.581-6.691.195-6.364.076-12.737.07-19.104 0-.58.023-1.224-.521-1.717-.782 1.436-.965 25.528-.13 27.512zm35.418-194.466c-.396.87-.355 1.824-.442 2.764-.291 3.19-.858 6.303-2.233 9.241-1.376 2.939-3.851 5.17-5.371 8.035-1.193 2.245-2.946 4.211-3.35 6.837-.067.44-.34 1.13.241 1.25.521.104.765-.58.739-1.05-.067-1.27.625-2.19 1.27-3.153 1.1-1.64 2.257-3.246 3.254-4.931 1.143-1.946 2.213-3.95 3.406-5.856 2.457-3.93 2.907-8.215 2.849-12.656a.41.41 0 0 0-.36-.481zm58.539 108.6l.002-.001-.005-.002zm22.071 3.136c-2.186-1.656-20.209-4.297-22.07-3.137 2.366 1.017 20.788 3.6 22.07 3.137zm-103.824 97.712a170.736 170.736 0 0 0-2.803-25.789zm-48.294-26.572c1.186-1.314 1.654-2.901 2.666-4.087a45.697 45.697 0 0 0 7.625-13.018c.398-1.013.939-2.031.837-3.191-.032-.345-.093-.696-.535-.734a.48.48 0 0 0-.515.415c-.453 2.242-1.919 4.084-2.431 6.326-.61 2.68-2.035 4.998-3.885 7.008a26.02 26.02 0 0 0-3.367 4.687c-.41.731-.738 1.538-.395 2.594zm39.088-9.796v2.611c.02 1.395.032 2.793.093 4.188.014.369.125.87.605.87.479 0 .392-.475.421-.797.114-1.245.154-2.501.332-3.733.41-2.843-.044-5.787 1.003-8.554.145-.383.555-.908.029-1.146-.634-.29-1.297-.78-2.036-.58-.567.151-.476.775-.479 1.247.003 1.947.008 3.922.008 5.894zm-56.603-27.982c-2.934 2.135-18.084 19.826-18.575 21.804 1.532-2.384 3.972-3.913 5.679-6.129 2.948-3.826 6.22-7.362 9.53-10.874 1.287-1.363 2.985-2.515 3.366-4.801zm85.987 22.842a.679.679 0 0 0-.276.772c.523 3.771.718 7.608 1.852 11.263.774 2.492 1.916 4.861 4.071 6.544.265.208.663.635 1.009.261.346-.374-.131-.679-.346-.969-1.861-2.512-3.379-5.183-3.827-8.339-.471-3.249-1.904-6.242-2.48-9.529zm51.313-41.066c-.582-1.45-1.059-2.32-1.937-3.075-4.516-3.883-9.485-6.9-15.493-7.872-.41-.066-1.006-.243-1.163.226-.189.534.462.607.805.824 1.195.757 2.635.479 3.914.931 3.347 1.19 6.342 2.994 9.268 4.972 1.593 1.085 2.698 2.721 4.606 3.994zM170.049 57.75c4.339-5.926 6.316-12.786 9.535-19.04-1.009.87-1.576 2.008-2.207 3.113-1.123 1.964-1.518 4.27-2.908 6.091-1.102 1.424-1.881 3.028-2.678 4.618a5.238 5.238 0 0 1-1.227 1.76c-1.12.911-1.222 1.985-.515 3.45zm-38.46-7.704c.454-.316.413-.676.428-1 .221-4.665-.274-9.332-.035-13.999.032-.63-.07-1.598-.873-1.578-.622.018-.634.972-.75 1.567a8.68 8.68 0 0 0-.058 1.3c-.154 3.578.637 7.1.66 10.67a7.234 7.234 0 0 0 .628 3.04zm27.5 9.967a4.223 4.223 0 0 0 1.626-2.138c.939-3.19 2.788-5.903 4.504-8.685.96-1.557 1.983-3.077 2.922-4.64.236-.395.812-1.01.149-1.364-.582-.307-.721.453-.937.844a35.438 35.438 0 0 1-3.835 5.775c-2.481 2.953-3.629 6.489-4.429 10.207zm-94.757 96.856c-1.058 0-1.052 0-2.035.472-3.702 1.767-7.56 2.901-11.71 2.802a20.839 20.839 0 0 0-4.045.29c-2.05.349-5.365 2.057-6.078 3.191.197-.02.391-.056.582-.107.277-.085.543-.204.79-.354 2.65-1.79 5.674-2.242 8.725-2.123 3.835.148 7.33-1.085 10.826-2.298a7.093 7.093 0 0 0 2.945-1.873zm1.91 37.745c1.894-.682 14.436-14.19 14.886-16.003-1.57 0-2.274 1.19-3.01 2.19-2.326 3.191-5.181 5.926-7.56 9.065-1.277 1.673-3.164 2.816-4.315 4.748zM94.023 33.73c-.474-.6-.992-1.16-1.42-1.8-2.663-3.934-5.05-7.983-5.414-12.885-.032-.415-.122-.992-.668-.955-.48.035-.378.58-.41.958-.021.24-.021.482 0 .722.558 5.83 3.594 10.294 7.912 13.96zM77.782 75.32a2.654 2.654 0 0 0-.835-1.123 86.064 86.064 0 0 1-9.192-8.623c-.384-.41-.925-1.27-1.454-.737-.471.467.259 1.14.721 1.526 3.199 2.674 5.816 5.917 8.802 8.809.346.336.66.73 1.187.783.421.046.78-.05.77-.635zm94.797-15.188c3.76-4.597 5.816-10.102 8.363-15.35zM46.015 94.26c4.406 3.86 9.422 5.963 15.61 4.704-5.374-1.052-11.065-1.227-15.29-5.496zm-1.901 71.049c1.599-.356 2.809-1.16 4.158-1.09 4.266.22 8.372-.482 12.402-1.833 1.797-.604 3.353-1.564 5.002-2.797-1.134.09-1.102.157-2.164.665-3.198 1.528-6.452 2.773-10.093 2.819-2.615.071-5.21.475-7.723 1.201-.642.128-1.209.5-1.582 1.035zM95.182 34.96c-.439.644-.189.99.03 1.285 3.076 4.174 3.753 8.972 3.695 13.972a6.253 6.253 0 0 0 .707 3.24c.163-.87.837-1.656.497-2.509-.96-2.401-.646-4.948-.91-7.42-.355-3.33-2.03-5.905-4.019-8.568zm74.442 167.97c-.799-2.703-1.602-5.627-2.96-8.351-.375-.754-.605-2.161-1.622-1.798-.582.209.113 1.552.404 2.343.986 2.695 2.759 5.114 2.759 8.151 0 .482.181 1.236.812 1.192.718-.049.427-.821.607-1.537zm18.925-27.872c-1.346-1.392-2.036-3.298-3.507-4.58-.407-.354-.968-.708-1.434-.29-.581.54.076.943.384 1.311 1.981 2.37 3.961 4.737 5.988 7.066.543.626 1.055 1.343 1.992 1.595-1.137-1.726-1.984-3.614-3.423-5.102zm-3.737-91.107c.829-.192.913-.661 1.111-1.027 1.099-2.03 2.199-4.032 3.937-5.656a10.969 10.969 0 0 0 3.33-6.01c-2.957 4.029-6.662 7.559-8.378 12.693zm3.769-17.563l.005.012.007-.012zm-6.479 7.814c-.605.838-1.422 1.45-2.035 2.26-.277.371-.434.82-.067 1.189.448.45.779.02 1.096-.27.108-.095.189-.22.291-.325 2.684-2.787 4.516-6.221 6.979-9.18.226-.286.573-.664.22-1.476-1.812 3.062-4.532 5.1-6.484 7.802zm-130.77 92.534a71.795 71.795 0 0 0 15.513-4.255zM162.42 60.917c-.034.369-.162.705.175.853.337.148.55-.148.672-.394.28-.506.501-1.042.657-1.598.433-1.955 1.314-3.705 2.326-5.401.844-1.404 1.69-2.805 2.527-4.212.119-.203.291-.464.029-.647-.261-.183-.43 0-.596.209a28.929 28.929 0 0 0-4.536 7.454c-.524 1.233-.858 2.55-1.254 3.736zm23.351 15.449l.003-.006h-.003zm.901-.586c.89-1.143 1.8-2.268 2.673-3.423a304.607 304.607 0 0 0 3.78-5.122c.268-.371.782-.905.343-1.265-.581-.473-.948.29-1.224.633-1.672 2.12-3.341 4.249-4.888 6.46-.659.96-1.029 2.124-1.582 3.297.545-.024.701-.325.898-.58zm27.274 60.877c-.765-.098-1.527-.214-2.295-.29-3.78-.383-7.621-.316-11.405-.844-1.017-.142-2.14.244-2.971-.748-.268-.319-.498 0-.599.31-.274.807.247 1.384 1.11 1.361 1.745-.05 3.571-.29 5.267.02 2.835.542 5.679.125 8.499.438.813.048 1.627.05 2.44.009zm14.149-15.506c5.909.429 11.458-.458 17.029-.699-.872-.685-15.906-.102-17.032.696zm-126.019-77.71c-.291 4.198 1.163 13.358 2.326 14.32zm105.17 56.156c-.291-.456-.66-.325-.969-.348-4.437-.331-8.142 1.111-11.018 4.551-.232.29-.735.58-.363.937.372.356.707-.148.925-.407 2.035-2.416 4.853-3.329 7.761-4.153 1.195-.34 2.445-.203 3.664-.58zM41.703 130.778c1.335.061 2.347.467 3.431.267a17.057 17.057 0 0 1 5.188-.029c1.533.205 3.087.187 4.615-.052.29-.05.797-.041.79-.47 0-.528-.525-.459-.889-.491a10.744 10.744 0 0 0-1.163 0c-3.366.093-6.73.19-10.093.291a3.345 3.345 0 0 0-1.879.484zm9.814-29.586a.644.644 0 0 0 .393.69c1.814.905 3.675 1.706 5.708 1.958.672.061 1.35.046 2.018-.046.503-.052.966-.316.986-.888.02-.658-.535-.745-1.018-.757-.77-.05-1.542-.02-2.306.09-1.582.305-3.05.241-4.426-.719-.357-.25-.788-.592-1.355-.328zm57.1-63.77c-.602.656-.407 1.161-.41 1.599 0 2.996 1.09 5.868.994 8.887-.026.87.471 1.43 1.233 2.118-.602-4.177-.802-8.336-1.817-12.603zm98.502 95.024c-2.617-.459-5.08-1.085-7.645-.58a1.502 1.502 0 0 1-1.21-.348c-.331-.241-.706-.395-1.026 0a1.34 1.34 0 0 0-.253 1.36c.215.58.622.177.971.136a21.253 21.253 0 0 1 2.155-.151c2.309-.04 4.623.154 7.008-.417zM40.289 173.17a49.818 49.818 0 0 0-12.622 7.541zm55.294 33c-2.907 1.398-4.704 5.891-3.742 9.038zm109.835-66.357a1.784 1.784 0 0 0-.655-.185c-2.297.29-4.612.119-6.912.249a2.51 2.51 0 0 0-1.34.487c-.244.177-.428.404-.291.731a.547.547 0 0 0 .605.29c2.899-.267 5.787-.574 8.593-1.572zM145.873 25.319c-1.044 4.855-2.21 9.696-2.05 14.72zM101.751 191.65c-.581.275-.541.71-.506 1.067.169 1.708-.355 3.225-1.163 4.693-.512.931-.933 1.909-1.381 2.875-.291.6-.524 1.212 0 2.192 1.852-3.547 3.731-6.761 3.05-10.827zm123.839-58.708c-4.839-.508-9.666-.833-14.508-.369 4.836.418 9.672.76 14.511.372zM67.833 72.23a.538.538 0 0 0 .204.6c1.23.92 1.96 2.208 2.701 3.504a9.385 9.385 0 0 0 2.199 2.463c.334.29.785.542 1.163.206.486-.415 0-.755-.23-1.091-1.547-2.164-3.928-3.524-5.499-5.668a.37.37 0 0 0-.538-.014zm38.039 130.294l.29.235c.218-.077.426-.179.62-.305 2.271-1.885 2.184-4.794 3.126-7.251a.52.52 0 0 0-.233-.453c-.378-.104-.5.25-.581.496-.37 1.187-.643 2.39-1.303 3.481-.727 1.207-1.285 2.518-1.919 3.788zM63.524 61.874C60.593 57.919 57 54.598 53.4 51.289zm128.293 71.784c-1.631 2.669-2.143 6.257-1.244 8.798zM65.978 76.25c1.015 1.993 1.84 4.003 3.92 5.076.244.125.54.386.791.168.355-.307.05-.644-.148-.87a247.845 247.845 0 0 0-3.664-4.272c-.157-.198-.393-.296-.899-.102zm-5.973 19.46c.483 0 .972.032 1.454 0 .39-.035 1.038.099.983-.499-.044-.464-.637-.322-.991-.255-3.26.623-6.197-.427-9.093-1.715-.291-.127-.649-.49-.855-.043-.178.38.27.545.56.71 2.467 1.378 5.194 1.651 7.942 1.799zm4.243-27.518c-1.163-2.462-3.05-4.258-5.26-5.772zM218.093 98.06c3.013-.455 5.671-1.876 8.346-3.237a.342.342 0 0 0 .163-.49c-.218-.29-.509-.165-.774-.04-1.218.58-2.396 1.215-3.678 1.659-1.434.496-2.821 1.122-4.225 1.694zM57.734 199.438l-.407-.357c-2.01 2.689-4.824 4.673-6.607 7.562l.524.458z"/></g><g><path fill="#646464" d="M113.797 222.205c-.672 3.446-.669 7.115-1.413 10.732-.971 4.714-1.605 9.494-2.41 14.24-.151.752-.346 1.496-.582 2.227-.186.64-.495 1.215-1.297 1.07-.756-.136-1.143-.69-1.233-1.427-.031-.288-.001-.58.087-.856.811-2.538.724-5.22 1.373-7.796a2.86 2.86 0 0 0-.12-1.982 1.22 1.22 0 0 1-.072-.98c1.308-3.524 1.992-7.182 2.454-10.897.2-1.622.54-3.223.616-4.87.047-.987.629-2.193 1.594-2.112 1.43.116.756 1.584 1.003 2.651z"/></g><g><path fill="#646464" d="M33.451 95.149c1.35 1.065 3.106 1.01 4.615 1.642.62.258 1.125.554 1.373 1.183.183.467.235.957-.1 1.378-.334.42-.796.215-1.206.107-4.71-1.247-9.494-2.242-14.028-4.095a.722.722 0 0 0-.273-.093c-3.903.191-7.014-2.32-10.64-3.09a5.025 5.025 0 0 1-2.847-1.638c-.692-.81-.398-1.587.651-1.758 1.213-.197 2.303.29 3.365.725a66.056 66.056 0 0 0 11.18 3.481c1.174.29 2.32.679 3.43 1.16 1.418.625 2.947.965 4.498 1z"/></g><g><path fill="#646464" d="M32.078 45.852c1.256-.02 2.035.43 2.585 1.103 2.158 2.7 5.153 4.47 7.56 6.877 1.498 1.496 2.908 3.089 4.316 4.661.363.403.648.91.21 1.427-.498.58-1.07.337-1.554-.023-4.943-3.684-9.8-7.457-13.667-12.34-.29-.37-.75-.704-.45-1.252a.997.997 0 0 1 1-.453z"/></g><g><path fill="#646464" d="M234.877 106.792c-1.213-.032-2.42-.04-3.6.319-.719.218-1.382.194-1.64-.67-.26-.864.162-1.395.89-1.758.213-.114.45-.183.692-.2 3.309-.084 6.443-1.28 9.726-1.52 1.085-.078 2.036-.58 3.004-1.035a3.582 3.582 0 0 1 2.114-.328c.873.136 1.576.54 1.69 1.517.104.91-.448 1.4-1.204 1.775-1.267.61-2.637.977-4.04 1.082-2.544.23-5.041.931-7.632.818z"/></g><g><path fill="#646464" d="M79.73 222.823c-.072 1.3-.872 2.35-1.642 3.388-2.205 2.927-3.71 6.263-5.525 9.413-.44.762-.85 1.51-1.585 2.03-.736.52-1.437.693-2.111.043-.675-.65-.948-1.372-.378-2.204 1.326-1.94 2.826-3.77 3.972-5.819 1.183-2.108 2.954-3.77 4.094-5.894a7.232 7.232 0 0 1 1.477-1.772c.315-.29.629-.664 1.126-.478.555.206.538.728.573 1.293z"/></g><g><path fill="#646464" d="M234.232 164.741c1.782-.029 3.076 1.323 4.748 1.668 1.262.261 2.454.87 3.682 1.305a4.654 4.654 0 0 1 1.59.984c.55.507.782 1.145.483 1.833-.337.771-1.053.974-1.823.838a7.315 7.315 0 0 1-1.658-.508c-2.469-1.093-4.923-2.222-7.383-3.335-.087-.04-.177-.076-.262-.122-.735-.406-1.57-.853-1.326-1.828.245-.974 1.178-.82 1.949-.835z"/></g><g><path fill="#646464" d="M29.344 48.541c.73.148 1.486.224 1.93.894 1.798 2.7 4.546 4.409 6.852 6.578.209.197.465.348.663.557.526.563.648 1.221.16 1.83-.489.61-1.164.58-1.824.186-1.3-.777-2.236-1.972-3.402-2.9-1.61-1.3-3.17-2.666-4.74-4.015a2.377 2.377 0 0 1-.913-1.894c.03-.783.445-1.265 1.274-1.236z"/></g><g><path fill="#646464" d="M218.13 209.452c-.468-2.541-2.489-3.803-4.336-5.186-.872-.659-1.421-1.45-1.453-2.541-.018-.934.386-1.39 1.363-.99.322.112.626.267.905.462a37.414 37.414 0 0 1 6.106 5.888 1.943 1.943 0 0 1-.058 2.442c-.538.702-1.207.351-1.84.07a3.745 3.745 0 0 0-.704-.163z"/></g><g><path fill="#646464" d="M20.091 67.3c.244.055.797 0 1.061.264 1.704 1.639 4.002 2.294 5.889 3.614.78.545 1.925 1.14 1.285 2.23-.608 1.036-1.846.433-2.617.056-2.376-1.16-4.429-2.9-6.801-4.102a1.075 1.075 0 0 1-.611-1.337c.276-.725.98-.684 1.794-.725z"/></g><g><path fill="#646464" d="M41.03 59.613c2.036.905 4.124 2.108 5.497 4.266a.999.999 0 0 1-.178 1.32c-.439.43-.872.23-1.29-.084-1.6-1.218-3.03-2.651-4.793-3.666a1.13 1.13 0 0 1-.582-1.36c.18-.508.614-.56 1.347-.476z"/></g><g><path fill="#646464" d="M7.637 114.56c-.809-.218-1.98-.194-2.036-1.357-.038-.853.777-1.27 1.66-1.23.885.04 1.882.188 1.926 1.293.032.813-.687 1.198-1.55 1.294z"/></g><g><path fill="#646464" d="M172.896 113.674c-.47.164-.94.329-1.415.477-.614.188-1.28.316-1.722-.314-.387-.554-.128-1.099.186-1.618 1.245-2.054 1.035-2.71-1.163-3.742-2.163-1.012-2.201-1.018-2.59 1.372-.324 1.981-1.286 3.382-3.22 4.06-.36.146-.696.342-1 .581-3.833 2.793-8.846 1.639-11.632-1.874-.08-.1-.16-.201-.238-.302-.666-.846-1.332-1.693-2.312-2.25-1.207-.69-2.036-.464-2.85.658-2.384 3.295-3.361 7-3.257 11.022.019.708-.051 1.411-.121 2.116-.138 1.384-.276 2.772.258 4.196a8.842 8.842 0 0 0 2.908 4.06c1.887 1.451 2.76 3.238 2.53 5.512-.236 2.32-1.83 3.663-3.841 4.513-1.146.485-2.117 1.013-2.748 2.184-.786 1.45-2.242 2.167-3.81 2.37-1.727.223-2.233 1.297-2.43 2.747-.015.108-.02.218-.026.328-.007.132-.014.264-.036.394-.157.888-.66 1.55-1.538 1.74-.821.173-1.111-.435-1.39-1.02-.041-.085-.081-.169-.122-.25a3.355 3.355 0 0 1-.399-1.38v-.02c-.03-.575-.061-1.21-.872-1.207a1.265 1.265 0 0 0-1.252.73c-.072.155-.111.325-.115.496-.075.966-.354 1.793-1.108 2.425-.95.8-1.835.566-2.236-.623a2.605 2.605 0 0 1-.189-1.135c.265-1.908-.581-3.144-2.108-4.237-1.64-1.176-3.203-2.457-4.767-3.74-.605-.495-1.21-.991-1.82-1.481-1.616-1.294-2.018-2.779-1.416-4.734a12.806 12.806 0 0 1 1.896-4.035c.41-.545.873-.928 1.591-.716a1.655 1.655 0 0 1 1.285 1.566 4.411 4.411 0 0 1-.544 2.37c-.505 1.036-.38 1.909.786 2.364 1.395.546 2.62 1.377 3.846 2.211 1.167.793 2.337 1.587 3.659 2.14 1.719.71 3.091.34 4.254-.772a8.328 8.328 0 0 1 5.442-2.397c.793-.042 1.664-.09 1.761-1.295.116-1.442-.628-2.61-1.806-2.831-2.716-.54-2.925-2.579-3.073-4.574l-.105-1.388c-.323-4.254-.646-8.512-.515-12.785.093-4.492.89-8.942 2.361-13.188 1.588-4.473 4.653-7.612 8.366-10.402 4.182-3.147 8.974-4.093 13.958-4.51 1.655-.14 3.304.31 4.839.823 4.63 1.546 8.863 3.791 12.07 7.623a2.005 2.005 0 0 1 .347 2.292c-.396.811-1.126.629-1.784.464l-.141-.035a6.993 6.993 0 0 1-1.91-.667c-1.106-.659-2.21-.905-3.47-.56a1.56 1.56 0 0 1-1.131-.061c-.872-.58-1.588-.415-2.513-.02-.872.371-1.692-.055-1.904-1.178-.262-1.386-1.594-1.87-2.469-.771-1.212 1.522-2.748 1.705-4.426 1.528-2.381-.252-3.846 1.1-5.309 2.452-.541.5-1.082 1-1.67 1.418a.431.431 0 0 0-.072.646.698.698 0 0 0 .793.203l.287-.099c.545-.189 1.09-.377 1.612-.614 2.704-1.229 5.559-1.182 8.408-1.136.387.007.773.013 1.16.016 2.664.022 5.269.791 7.516 2.22.747.463 1.521.878 2.296 1.292 1.514.81 3.03 1.62 4.346 2.809 1.154 1.023 1.846 2.05 1.776 3.57-.026 2.355-.351 2.79-2.617 3.521-.447.141-.891.297-1.335.452zm-17.264-4.854c1.19 0 2.153-.779 2.153-1.74s-.964-1.74-2.153-1.74c-1.19 0-2.154.779-2.154 1.74s.964 1.74 2.154 1.74z"/></g><g><path fill="#646464" d="M102.728 98.786c-.65-.437-1.294-.87-2.002-1.195-.789-.36-1.454-.786-1.498-1.76-.03-.674-.53-.678-.988-.682h-3.484c-1.155.004-2.239.007-3.315-.87-.873-.697-2.37-.636-3.307.052-.973.715-2.011.996-3.097 1.29l-.206.056c-1.621.444-3.112 1.193-4.602 1.942-.584.294-1.169.587-1.76.862-.384.205-.778.389-1.181.552-.532.182-.93-.105-1.265-.493a.941.941 0 0 1-.084-1.204c.076-.127.15-.262.223-.397.263-.485.533-.982 1.012-1.184 1.12-.471 2.03-1.225 2.943-1.982.818-.678 1.639-1.359 2.617-1.841 4.961-2.45 10.024-4.389 15.668-4.029a34.541 34.541 0 0 1 12.926 3.48c2.433 1.174 4.265 2.96 6.123 4.77l.309.301c.573.559.903 1.261 1.233 1.964.184.39.367.782.593 1.148.242.392.468.794.693 1.196.483.86.965 1.72 1.607 2.482.21.25.463.612.43.894-.11 1.01.03 2.01.173 3.013.187 1.323.374 2.649-.021 3.997-.236.8-.492 1.57-1.43 1.54-.94-.028-1.487-.698-1.472-1.653.02-1.189-.227-2.03-1.454-2.668-.699-.358-1.198-1.117-1.678-1.848-.12-.182-.238-.362-.358-.534-1.19-1.686-2.927-2.575-4.672-3.469-.275-.14-.55-.282-.824-.426-.259-.14-.581-.29-.794 0-.29.397.073.644.352.792 1.898 1.005 3.007 2.692 4.115 4.378.452.688.905 1.376 1.41 2.018 1.486 1.902.873 4.037-1.247 5.168-.434.233-.862.474-1.289.716-.831.47-1.662.94-2.544 1.34-1.788.801-3.51 1.382-5.391.274a2.116 2.116 0 0 0-1.282-.125c-1.777.26-3.368.446-5.028-.87-.625-.5-1.58-.573-2.55-.649-.519-.04-1.042-.08-1.521-.187-2.588-.58-4.196-2.468-5.697-4.438-.41-.54-.36-1.264-.29-1.963.142-1.184-.387-1.662-1.516-1.337-1.363.391-2.454 1.087-2.684 2.688-.23 1.601-.96 1.828-2.259.897a3.313 3.313 0 0 1-.218-.173l-.009-.007c-3.042-2.544-3.03-4.293.148-6.672 2.155-1.61 4.604-2.5 7.27-3.063.933-.197 1.875-.313 2.817-.429 1.201-.147 2.402-.295 3.58-.612a9.578 9.578 0 0 1 4.61-.2c.624.142 1.263.143 1.905.143.848 0 1.702.001 2.538.33-.829-.347-1.556-.837-2.278-1.323zm2.615 13.714c-.05.086-.12.174-.19.264-.235.297-.487.615-.118.983.352.351.872.07 1.21-.133 1.624-.948 2.765-2.385 3.899-3.812.254-.32.509-.64.768-.954.608-.73-.178-1.714-1.192-1.708-1.917 0-2.574.467-3.016 2.201a12.23 12.23 0 0 1-1.36 3.159zm-9.008-4.16c1.209 0 2.188-.791 2.188-1.767 0-.977-.98-1.768-2.188-1.768-1.207 0-2.187.791-2.187 1.768 0 .976.98 1.767 2.188 1.767z"/></g><g><path fill="#646464" d="M135.32 172.297a4.798 4.798 0 0 1-1.91-.322c-1.707-.659-3.359-1.48-5.255-1.56a3.76 3.76 0 0 1-1.744-.639 25.047 25.047 0 0 0-10.783-3.922c-1.995-.232-3.856-.934-5.348-2.378a3.504 3.504 0 0 0-2.59-1.085c-1.248 0-1.864-.786-1.795-1.978a12.762 12.762 0 0 1 1.163-4.76c.6-1.262 1.905-1.39 2.792-.313.026.04.054.079.084.116.748.73.413 2.277 1.702 2.526 1.59.305 3.172-.133 4.734-.435 1.561-.301 2.907-1.05 4.25-1.821 1.126-.65 2.409-.952 3.461-1.778a2.621 2.621 0 0 1 2.094-.372c1.92.366 3.745.772 5.816.264 3.068-.757 5.746.633 8.186 2.463 1.48 1.108 3.088 1.929 4.995 2.109 1.815.17 3.028-.554 3.97-2.06 1.064-1.7 1.561-1.676 2.867-.075.183.223.38.438.555.67 1.786 2.401.873 4.966-2.056 5.32a8.36 8.36 0 0 0-4.338 1.714c-1.37 1.067-3.283.809-4.702 1.824-.98.7-2.036 1.28-3.019 1.984-.852.618-.62 1.677-.802 2.541-.309 1.343-.945 2.106-2.327 1.967zm3.376-9.018a2.622 2.622 0 0 0-2.07-.177c-3.114.83-6.22.58-9.334.05-1.376-.23-2.748-.494-4.13-.68-.45-.06-1.145-.142-1.256.421-.128.653.6.615 1.03.743.788.232 1.53.562 2.288.87 2.707 1.079 5.444 2.001 8.372.55a10.736 10.736 0 0 1 3.333-.954c.59-.08 1.267-.11 1.768-.817z"/></g><g><path fill="#646464" d="M128.542 173.124c3.286.185 5.97.383 8.494 1.505.805.325 1.531.82 2.128 1.45 1.344 1.506 1.227 2.887-.355 4.267-.872.772-2.495.351-3.533-.954a3.017 3.017 0 0 1-.64-1.122c-.404-1.805-1.715-2.321-3.326-2.449a12.215 12.215 0 0 0-5.833.772 9.871 9.871 0 0 1-2.088.58c-.66.113-1.428.2-1.713-.65a1.447 1.447 0 0 1 .872-1.914c.955-.46 1.959-.81 2.993-1.044 1.163-.23 2.358-.522 3-.441z"/></g><g><path fill="#646464" d="M188.057 127.735c-.337 1.967-.075 3.77 0 5.511.178 3.724-1.564 7.043-1.718 10.651-.032.725-.35 1.59-1.228 1.534-.878-.055-.95-1.018-.962-1.705a5.886 5.886 0 0 1 .326-2.28c.895-2.213 1.163-4.577 1.765-6.854.5-1.856-.358-3.724-.143-5.61.1-.87 0-1.74.04-2.61.021-.5.173-1.033.742-1.105.57-.073.797.472.914.94.145.57.203 1.148.264 1.528z"/></g><g><path fill="#646464" d="M182.063 135.729c-.669-4.7.52-9.317.61-13.981 0-.464 0-1.16.51-1.239.636-.101.546.641.698 1.056.654 1.784.22 3.626.334 5.433.163 2.61.07 5.221.177 7.808.058 1.384-.354 2.669-.637 3.986-.104.493-.316.977-.93.913-.614-.063-.736-.58-.753-1.079-.032-.965-.009-1.931-.009-2.897z"/></g><g><path fill="#646464" d="M183.222 142.856a5.3 5.3 0 0 1-.518 2.854c-1 2.237-1.936 4.505-2.87 6.773a4.032 4.032 0 0 1-.968 1.416c-.46.438-.96.963-1.628.525-.67-.438-.527-1.207-.23-1.706 2.073-3.504 3.199-7.4 4.673-11.141.16-.403.401-.83.948-.705.547.125.561.606.581 1.039.032.385.012.771.012.945z"/></g><g><path fill="#646464" d="M179.45 141.243a15.73 15.73 0 0 1-2.205 7.747c-.48.798-1.163 1.201-2.07.743-.966-.487-.701-1.28-.317-1.984 1.026-1.888 1.48-3.965 2.064-5.999.067-.232.128-.464.192-.696.207-.765.646-1.4 1.483-1.317 1.03.102.797 1.021.852 1.506z"/></g><g><path fill="#646464" d="M152.411 181.006a5.66 5.66 0 0 0-1.837.314c-.823.275-1.454-.142-1.771-.842-.317-.699.15-1.197.703-1.554 1.6-1.03 3.464-1.352 5.235-1.883.511-.153.939.137 1.163.635.25.56-.047.9-.5 1.181-1.056.653-2.22 1.16-3.019 2.164z"/></g><g><path fill="#646464" d="M165.353 167.055c-.503 0-.872-.058-1.102-.44-.253-.436-.107-.848.16-1.21.69-.987 1.51-1.876 2.44-2.643a12.942 12.942 0 0 0 1.64-1.607.973.973 0 0 1 1.425-.139c.424.328.645.85.328 1.274-1.265 1.685-2.561 3.353-4.297 4.6-.186.093-.387.15-.594.165z"/></g></g></g></g></svg>