<svg xmlns="http://www.w3.org/2000/svg" viewBox="0 0 64 62"><path fill="#f0bf5f" d="M54.025 47.722H9.975c-1.012 0-1.825-.837-1.825-1.882v-1.985c0-13.56 10.7-24.595 23.85-24.595 2.487 0 4.938.4 7.287 1.173.963.322 1.488 1.38 1.188 2.372-.313.992-1.337 1.534-2.3 1.225A19.617 19.617 0 0 0 32 23.037c-11.137 0-20.2 9.346-20.2 20.831v.103h40.4v-.103c0-5.594-2.125-10.854-5.975-14.798a1.933 1.933 0 0 1-.013-2.669 1.794 1.794 0 0 1 2.588-.012c4.55 4.653 7.063 10.853 7.063 17.466v1.986c-.013 1.044-.826 1.881-1.838 1.881z"/><path fill="#f0bf5f" d="M32.005 22.58c-1.012 0-1.825-.837-1.825-1.881v-5.337c0-1.044.813-1.882 1.825-1.882s1.825.838 1.825 1.882v5.337c0 1.044-.812 1.882-1.825 1.882z"/><path fill="#f0bf5f" d="M36.475 16.804h-8.95c-1.012 0-1.825-.838-1.825-1.882s.813-1.882 1.825-1.882h8.95c1.012 0 1.825.838 1.825 1.882s-.812 1.882-1.825 1.882z"/><path fill="#cee8fa" d="M47.987 45.84H16v7.928h31.987z"/><path fill="#f0bf5f" d="M16.005 55.652c-1.012 0-1.825-.838-1.825-1.882v-7.928c0-1.044.813-1.882 1.825-1.882h32c1.012 0 1.825.838 1.825 1.882v7.928c0 1.044-.825 1.882-1.825 1.882zm1.838-3.764H46.18v-4.164H17.843z"/><g><path fill="#cee8fa" d="M54.235 59.81H9.76c-2.125 0-3.85-1.778-3.85-3.97 0-2.191 1.725-3.97 3.85-3.97h44.475c2.125 0 3.85 1.779 3.85 3.97-.013 2.192-1.725 3.97-3.85 3.97z"/></g><g><path fill="#2d527c" d="M9.765 61.695c-3.125 0-5.675-2.617-5.675-5.853 0-3.235 2.538-5.852 5.675-5.852H54.24c3.125 0 5.675 2.63 5.675 5.852-.013 3.236-2.55 5.853-5.675 5.853zm0-7.928c-1.113 0-2.013.928-2.013 2.075 0 1.148.9 2.076 2.013 2.076H54.24c1.113 0 2.013-.928 2.013-2.076 0-1.147-.9-2.075-2.013-2.075zM32.005 7.735c-1.012 0-1.825-.838-1.825-1.882V2.192c0-1.044.813-1.882 1.825-1.882s1.825.838 1.825 1.882v3.661c0 1.044-.812 1.882-1.825 1.882zM62.175 33.304h-3.55c-1.012 0-1.825-.838-1.825-1.882s.813-1.882 1.825-1.882h3.55c1.012 0 1.825.838 1.825 1.882s-.813 1.882-1.825 1.882zM5.375 33.304h-3.55C.813 33.304 0 32.466 0 31.422s.813-1.882 1.825-1.882h3.55c1.012 0 1.825.838 1.825 1.882s-.813 1.882-1.825 1.882zM49.542 15.222a1.76 1.76 0 0 1-1.288-.554 1.933 1.933 0 0 1 0-2.669l2.5-2.578a1.794 1.794 0 0 1 2.588 0 1.933 1.933 0 0 1 0 2.668l-2.513 2.591c-.35.361-.825.542-1.287.542zM14.464 15.225a1.76 1.76 0 0 1-1.287-.555l-2.513-2.59a1.933 1.933 0 0 1 0-2.669 1.794 1.794 0 0 1 2.588 0l2.512 2.591a1.933 1.933 0 0 1 0 2.668 1.788 1.788 0 0 1-1.3.555z"/></g></svg>