<svg xmlns="http://www.w3.org/2000/svg" viewBox="0 0 25 25"><path fill="#fff" d="M25 12.5C25 19.402 19.402 25 12.5 25S0 19.402 0 12.5 5.598 0 12.5 0 25 5.598 25 12.5zm-3.093-5.368a.078.078 0 0 0 0-.102c-.026-.026-.077-.051-.102-.026a6.552 6.552 0 0 1-1.739.537c.64-.486 1.1-1.15 1.355-1.917.026-.026 0-.077-.025-.103a.078.078 0 0 0-.103 0c-.715.435-1.508.716-2.326.895a3.906 3.906 0 0 0-2.786-1.176 3.884 3.884 0 0 0-3.809 4.653c-2.965-.18-5.726-1.61-7.617-3.911-.026-.026-.052-.026-.077-.026-.026 0-.051.026-.077.051a3.708 3.708 0 0 0-.537 1.943c0 1.201.537 2.3 1.457 3.042a3.517 3.517 0 0 1-1.354-.435c-.051-.025-.077-.025-.103 0-.025.026-.05.051-.05.077v.051a3.874 3.874 0 0 0 2.734 3.707 4.303 4.303 0 0 1-1.278-.026c-.025 0-.05 0-.076.026-.026.025-.026.076-.026.102a3.872 3.872 0 0 0 3.374 2.684A7.53 7.53 0 0 1 3.4 18.584c-.051-.026-.077 0-.102.051-.026.026 0 .077.025.102a10.857 10.857 0 0 0 5.854 1.713c6.8 0 10.864-5.522 10.864-10.864V9.15c.741-.536 1.38-1.176 1.866-2.02z" opacity=".5"/></svg>