<svg xmlns="http://www.w3.org/2000/svg" viewBox="0 0 25 25"><path fill="#fff" d="M25 12.5C25 19.402 19.402 25 12.5 25S0 19.402 0 12.5 5.598 0 12.5 0 25 5.598 25 12.5zm-6.263-.077c.46-.664.972-1.278 1.432-1.917.434-.588.869-1.201 1.099-1.917.128-.46 0-.665-.46-.741-.102-.026-.18-.026-.256-.026h-2.786c-.358 0-.537.153-.665.46-.179.41-.332.818-.537 1.227-.46.895-.945 1.764-1.636 2.505-.153.154-.332.358-.588.282-.332-.103-.408-.64-.408-.818V8.257c-.052-.46-.154-.64-.614-.742h-2.889c-.383 0-.588.154-.792.384-.102.153-.153.23.102.281.486.102.742.409.818.92.128.767.128 1.534.051 2.3-.025.23-.076.46-.153.665-.153.333-.358.41-.665.205a3.38 3.38 0 0 1-.639-.716c-.69-.971-1.227-2.045-1.687-3.144-.128-.307-.358-.511-.69-.511a40.93 40.93 0 0 0-2.505 0c-.511.025-.665.255-.46.716.92 2.019 1.917 3.987 3.246 5.777.665.92 1.457 1.712 2.454 2.3 1.125.665 2.352.844 3.656.793.613-.026.792-.18.818-.793.025-.409.076-.818.28-1.201.18-.358.486-.435.844-.205.18.103.333.256.46.41.333.383.665.766 1.023 1.124.46.46.971.716 1.636.665h2.556c.41-.026.614-.537.384-.997-.154-.333-.384-.614-.614-.895-.511-.639-1.125-1.176-1.713-1.738-.536-.511-.562-.818-.102-1.432z" opacity=".5"/></svg>