<svg xmlns="http://www.w3.org/2000/svg" viewBox="0 0 261 54"><path fill="#f0bf5f" d="M0 15C0 6.716 6.716 0 15 0h231c8.284 0 15 6.716 15 15v24c0 8.284-6.716 15-15 15H15C6.716 54 0 47.284 0 39z"/><path fill="#fff" d="M30.95 29.68c0 .728.056 1.26.168 1.596.112.308.322.518.63.63.336.112.868.168 1.596.168h1.428c2.184 0 4.074-.574 5.67-1.722 1.596-1.176 2.66-2.758 3.192-4.746 0-.056.056-.084.168-.084.056 0 .112.028.168.084.084.028.126.056.126.084-.252 2.772-.378 5.082-.378 6.93 0 .224-.056.392-.168.504-.084.084-.238.126-.462.126H23.264c-.056 0-.084-.084-.084-.252 0-.168.028-.252.084-.252.896 0 1.54-.07 1.932-.21.42-.14.7-.406.84-.798.168-.42.252-1.05.252-1.89V10.402c0-.84-.084-1.456-.252-1.848-.14-.392-.42-.658-.84-.798-.42-.168-1.064-.252-1.932-.252-.056 0-.084-.084-.084-.252 0-.168.028-.252.084-.252l2.142.042c1.288.056 2.352.084 3.192.084.84 0 1.904-.028 3.192-.084L33.932 7c.084 0 .126.084.126.252 0 .168-.042.252-.126.252-.868 0-1.512.084-1.932.252-.42.14-.7.42-.84.84-.14.392-.21 1.008-.21 1.848zm31.539 1.302c.112 0 .182.07.21.21.056.112.028.196-.084.252l-4.326 2.058a.935.935 0 0 1-.42.084c-.448 0-.882-.238-1.302-.714-.392-.476-.672-1.12-.84-1.932L53.92 32.2c-.644.476-1.246.826-1.806 1.05-.56.196-1.19.294-1.89.294-1.204 0-2.114-.266-2.73-.798-.616-.532-.924-1.274-.924-2.226 0-.756.182-1.358.546-1.806.364-.476.812-.84 1.344-1.092.56-.28 1.33-.588 2.31-.924l1.05-.378 3.78-1.386V22.54c0-1.792-.154-3.094-.462-3.906-.28-.812-.77-1.218-1.47-1.218-1.484 0-2.324 1.148-2.52 3.444-.084.84-.336 1.442-.756 1.806-.392.364-.952.546-1.68.546-.7 0-1.218-.14-1.554-.42-.308-.308-.462-.7-.462-1.176 0-.84.49-1.638 1.47-2.394.98-.784 2.156-1.414 3.528-1.89 1.4-.476 2.632-.714 3.696-.714 1.232 0 2.226.392 2.982 1.176.784.756 1.176 1.918 1.176 3.486v7.434c0 .812.14 1.442.42 1.89.308.448.728.672 1.26.672.392 0 .798-.098 1.218-.294zm-6.846-.756a2.502 2.502 0 0 1-.042-.546v-4.032l-1.806.84c-.084.028-.364.14-.84.336a2.962 2.962 0 0 0-1.26.882c-.336.42-.504.91-.504 1.47 0 .672.21 1.204.63 1.596.448.364.952.546 1.512.546.448 0 .91-.154 1.386-.462zM77.1 31.822c1.065.168 1.947.588 2.647 1.26.727.644 1.091 1.638 1.091 2.982 0 1.568-.49 3.038-1.47 4.41-.951 1.4-2.253 2.52-3.905 3.36a11.267 11.267 0 0 1-5.25 1.26c-1.933 0-3.515-.448-4.747-1.344-1.231-.868-1.847-2.016-1.847-3.444 0-1.96 1.413-3.864 4.241-5.712-2.015-.392-3.023-1.4-3.023-3.024 0-1.736.98-3.262 2.94-4.578-1.065-.504-1.905-1.204-2.52-2.1-.589-.924-.883-1.89-.883-2.898 0-1.12.365-2.072 1.093-2.856.727-.784 1.651-1.372 2.771-1.764 1.149-.42 2.31-.63 3.487-.63 1.764 0 3.276.448 4.536 1.344 1.456-.98 2.968-1.47 4.536-1.47.224 0 .336.392.336 1.176 0 .42-.056.868-.168 1.344-.113.448-.225.63-.337.546-1.147-.476-2.183-.714-3.107-.714h-.337c.757.896 1.135 1.904 1.135 3.024s-.365 2.114-1.093 2.982c-.727.868-1.665 1.54-2.813 2.016a9.303 9.303 0 0 1-3.487.672 7.276 7.276 0 0 1-2.394-.378c-.448.476-.672 1.078-.672 1.806 0 .756.196 1.302.588 1.638.42.336.966.546 1.638.63.672.084 1.666.14 2.982.168 1.652.028 2.996.126 4.032.294zm-6.761-14.28c-1.26 0-1.89 1.064-1.89 3.192 0 1.176.167 2.24.503 3.192.337.924.77 1.652 1.303 2.184.56.532 1.148.798 1.764.798.615 0 1.133-.308 1.553-.924.42-.616.63-1.554.63-2.814 0-1.204-.195-2.226-.587-3.066-.392-.868-.896-1.512-1.512-1.932-.588-.42-1.176-.63-1.764-.63zm2.394 26.208c1.427 0 2.561-.448 3.401-1.344.84-.896 1.26-2.114 1.26-3.654 0-1.204-.265-2.086-.797-2.646-.504-.532-1.176-.868-2.016-1.008-.813-.112-2.003-.182-3.57-.21-.252 0-.602-.014-1.05-.042a41.324 41.324 0 0 1-1.134-.084c-.952.7-1.428 1.82-1.428 3.36 0 1.792.518 3.178 1.554 4.158 1.064.98 2.324 1.47 3.78 1.47zM86.4 32.62a8.284 8.284 0 0 1-2.981-3.234c-.7-1.372-1.05-2.856-1.05-4.452 0-1.82.461-3.36 1.385-4.62a8.339 8.339 0 0 1 3.529-2.856 10.62 10.62 0 0 1 4.41-.966c1.735 0 3.247.406 4.535 1.218a7.978 7.978 0 0 1 2.94 3.234 8.897 8.897 0 0 1 1.05 4.242c0 1.68-.42 3.178-1.26 4.494-.84 1.288-1.974 2.296-3.402 3.024-1.4.728-2.926 1.092-4.578 1.092-1.736 0-3.262-.392-4.578-1.176zm5.839.294c1.092 0 1.918-.532 2.478-1.596.587-1.092.881-2.646.881-4.662 0-1.96-.251-3.64-.755-5.04s-1.162-2.45-1.974-3.15c-.813-.728-1.68-1.092-2.605-1.092-2.24 0-3.36 2.002-3.36 6.006 0 1.876.239 3.542.715 4.998.475 1.428 1.12 2.548 1.931 3.36.813.784 1.709 1.176 2.689 1.176zm14.71-.294a8.284 8.284 0 0 1-2.982-3.234c-.7-1.372-1.05-2.856-1.05-4.452 0-1.82.462-3.36 1.386-4.62a8.339 8.339 0 0 1 3.528-2.856 10.62 10.62 0 0 1 4.41-.966c1.736 0 3.248.406 4.536 1.218a7.978 7.978 0 0 1 2.94 3.234 8.897 8.897 0 0 1 1.05 4.242c0 1.68-.42 3.178-1.26 4.494-.84 1.288-1.974 2.296-3.402 3.024-1.4.728-2.926 1.092-4.578 1.092-1.736 0-3.262-.392-4.578-1.176zm5.838.294c1.092 0 1.918-.532 2.478-1.596.588-1.092.882-2.646.882-4.662 0-1.96-.252-3.64-.756-5.04s-1.162-2.45-1.974-3.15c-.812-.728-1.68-1.092-2.604-1.092-2.24 0-3.36 2.002-3.36 6.006 0 1.876.238 3.542.714 4.998.476 1.428 1.12 2.548 1.932 3.36.812.784 1.708 1.176 2.688 1.176zm30.839.084c0 .168-.042.252-.126.252-.728 0-1.302-.014-1.722-.042l-2.52-.042-2.436.042a29.53 29.53 0 0 1-1.764.042c-.084 0-.126-.084-.126-.252 0-.168.042-.252.126-.252.868 0 1.456-.196 1.764-.588.308-.42.462-1.19.462-2.31V23.8c0-1.512-.28-2.632-.84-3.36-.532-.728-1.386-1.092-2.562-1.092-.672 0-1.372.14-2.1.42-.7.28-1.316.658-1.848 1.134v8.946c0 1.12.154 1.89.462 2.31.336.392.938.588 1.806.588.084 0 .126.084.126.252 0 .168-.042.252-.126.252-.728 0-1.302-.014-1.722-.042l-2.52-.042-2.478.042c-.42.028-.994.042-1.722.042-.084 0-.126-.084-.126-.252 0-.168.042-.252.126-.252.868 0 1.456-.196 1.764-.588.308-.42.462-1.19.462-2.31v-7.896c0-.868-.112-1.498-.336-1.89-.196-.42-.518-.63-.966-.63-.476 0-1.148.196-2.016.588h-.084c-.084 0-.154-.07-.21-.21-.028-.14-.014-.224.042-.252l5.838-2.856c.168-.056.266-.084.294-.084.308 0 .602.308.882.924.28.588.448 1.4.504 2.436 1.932-2.296 4.06-3.444 6.384-3.444 1.512 0 2.702.49 3.57 1.47.896.952 1.344 2.212 1.344 3.78v8.064c0 1.12.154 1.89.462 2.31.336.392.938.588 1.806.588.084 0 .126.084.126.252zm18.202-2.016c.112 0 .182.07.21.21.056.112.028.196-.084.252l-4.326 2.058a.935.935 0 0 1-.42.084c-.448 0-.882-.238-1.302-.714-.392-.476-.672-1.12-.84-1.932l-1.806 1.26c-.644.476-1.246.826-1.806 1.05-.56.196-1.19.294-1.89.294-1.204 0-2.114-.266-2.73-.798-.616-.532-.924-1.274-.924-2.226 0-.756.182-1.358.546-1.806.364-.476.812-.84 1.344-1.092.56-.28 1.33-.588 2.31-.924l1.05-.378 3.78-1.386V22.54c0-1.792-.154-3.094-.462-3.906-.28-.812-.77-1.218-1.47-1.218-1.484 0-2.324 1.148-2.52 3.444-.084.84-.336 1.442-.756 1.806-.392.364-.952.546-1.68.546-.7 0-1.218-.14-1.554-.42-.308-.308-.462-.7-.462-1.176 0-.84.49-1.638 1.47-2.394.98-.784 2.156-1.414 3.528-1.89 1.4-.476 2.632-.714 3.696-.714 1.232 0 2.226.392 2.982 1.176.784.756 1.176 1.918 1.176 3.486v7.434c0 .812.14 1.442.42 1.89.308.448.728.672 1.26.672.392 0 .798-.098 1.218-.294zm-6.846-.756a2.502 2.502 0 0 1-.042-.546v-4.032l-1.806.84c-.084.028-.364.14-.84.336a2.962 2.962 0 0 0-1.26.882c-.336.42-.504.91-.504 1.47 0 .672.21 1.204.63 1.596.448.364.952.546 1.512.546.448 0 .91-.154 1.386-.462zM93.514 46.43c-.66 0-1.22-.14-1.68-.42-.45-.29-.79-.66-1.02-1.11-.22-.46-.33-.94-.33-1.44 0-.63.175-1.18.525-1.65.35-.48.795-.845 1.335-1.095.55-.26 1.11-.39 1.68-.39.48 0 .91.1 1.29.3.39.2.585.475.585.825 0 .19-.075.355-.225.495-.14.13-.34.195-.6.195-.24 0-.43-.06-.57-.18-.14-.13-.255-.325-.345-.585-.09-.28-.18-.47-.27-.57-.08-.11-.23-.165-.45-.165-.43 0-.775.215-1.035.645-.25.42-.375.98-.375 1.68 0 .83.185 1.495.555 1.995.37.49.96.735 1.77.735.27 0 .5-.03.69-.09.2-.06.45-.16.75-.3h.015c.03 0 .055.015.075.045.03.03.035.055.015.075-.37.34-.74.595-1.11.765-.37.16-.795.24-1.275.24zm8.594-1.17c.02 0 .04.02.06.06.03.04.035.07.015.09-.37.36-.745.62-1.125.78-.38.16-.795.24-1.245.24-.63 0-1.175-.13-1.635-.39-.46-.27-.81-.625-1.05-1.065-.24-.45-.36-.935-.36-1.455 0-.58.145-1.115.435-1.605a3.1 3.1 0 0 1 1.2-1.155 3.541 3.541 0 0 1 1.755-.435c.62 0 1.1.14 1.44.42.34.28.51.715.51 1.305 0 .31-.055.465-.165.465l-3.645.015c-.01.07-.015.185-.015.345 0 .88.2 1.57.6 2.07.41.5.995.75 1.755.75.27 0 .5-.03.69-.09.19-.06.44-.17.75-.33zm-2.52-4.635c-.33 0-.605.145-.825.435-.22.28-.365.67-.435 1.17l2.175-.03c-.01-.51-.085-.9-.225-1.17-.14-.27-.37-.405-.69-.405zm4.62 5.625c-.03 0-.045-.03-.045-.09s.015-.09.045-.09c.24 0 .415-.025.525-.075a.41.41 0 0 0 .24-.285c.04-.15.06-.375.06-.675v-3.33c0-.35-.03-.59-.09-.72-.05-.13-.155-.195-.315-.195-.29 0-.575.155-.855.465-.27.31-.465.695-.585 1.155-.01.02-.045.03-.105.03-.05 0-.075-.01-.075-.03l-.03-.975c-.02-.4-.03-.685-.03-.855 0-.06.005-.095.015-.105.01-.02.045-.03.105-.03.21 0 .395.005.555.015l2.07.015 2.115-.015c.17-.01.365-.015.585-.015.07 0 .11.01.12.03.01.01.015.045.015.105-.05 1-.075 1.61-.075 1.83 0 .02-.03.03-.09.03-.05 0-.08-.01-.09-.03-.12-.46-.32-.845-.6-1.155-.27-.31-.55-.465-.84-.465-.16 0-.27.065-.33.195-.05.13-.075.37-.075.72v3.33c0 .3.02.525.06.675.04.14.115.235.225.285.12.05.295.075.525.075.03 0 .045.03.045.09s-.015.09-.045.09c-.28 0-.495-.005-.645-.015l-.84-.015-.87.015c-.16.01-.385.015-.675.015zm10.918-1.875c0 .57-.22 1.03-.66 1.38-.43.35-.995.525-1.695.525l-.81-.03c-.48-.02-.825-.03-1.035-.03l-.87.015c-.16.01-.385.015-.675.015-.03 0-.045-.03-.045-.09s.015-.09.045-.09c.24 0 .415-.025.525-.075a.41.41 0 0 0 .24-.285c.04-.15.06-.375.06-.675v-3.36c0-.3-.02-.52-.06-.66-.04-.15-.12-.25-.24-.3-.11-.05-.28-.075-.51-.075-.03 0-.045-.03-.045-.09s.015-.09.045-.09c.28 0 .495.005.645.015l.885.015.93-.015c.18-.01.425-.015.735-.015.02 0 .03.03.03.09s-.01.09-.03.09c-.29 0-.505.03-.645.09a.503.503 0 0 0-.27.315c-.05.14-.075.36-.075.66v1.245c.37-.09.775-.135 1.215-.135 1.54 0 2.31.52 2.31 1.56zm-2.67 1.68c.4 0 .694-.105.884-.315.19-.22.286-.565.286-1.035 0-1.04-.45-1.56-1.35-1.56-.21 0-.435.03-.675.09v1.8c0 .36.06.62.18.78.12.16.345.24.675.24zm10.034.39c-.62 0-1.165-.14-1.635-.42a2.958 2.958 0 0 1-1.065-1.155 3.448 3.448 0 0 1-.375-1.59c0-.65.165-1.2.495-1.65.33-.46.75-.8 1.26-1.02a3.793 3.793 0 0 1 1.575-.345c.62 0 1.16.145 1.62.435.46.29.81.675 1.05 1.155.25.47.375.975.375 1.515 0 .6-.15 1.135-.45 1.605-.3.46-.705.82-1.215 1.08-.5.26-1.045.39-1.635.39zm1.335-.885c.21-.39.315-.945.315-1.665 0-.7-.09-1.3-.27-1.8-.18-.5-.415-.875-.705-1.125-.29-.26-.6-.39-.93-.39-.8 0-1.2.715-1.2 2.145 0 .67.085 1.265.255 1.785.17.51.4.91.69 1.2.29.28.61.42.96.42.39 0 .685-.19.885-.57zm4.099.69c-.03 0-.045-.03-.045-.09s.015-.09.045-.09c.24 0 .415-.025.525-.075a.41.41 0 0 0 .24-.285c.04-.15.06-.375.06-.675v-3.33c0-.35-.03-.59-.09-.72-.05-.13-.155-.195-.315-.195-.29 0-.575.155-.855.465-.27.31-.465.695-.585 1.155-.01.02-.045.03-.105.03-.05 0-.075-.01-.075-.03l-.03-.975c-.02-.4-.03-.685-.03-.855 0-.06.005-.095.015-.105.01-.02.045-.03.105-.03.21 0 .395.005.555.015l2.07.015 2.115-.015c.17-.01.365-.015.585-.015.07 0 .11.01.12.03.01.01.015.045.015.105-.05 1-.075 1.61-.075 1.83 0 .02-.03.03-.09.03-.05 0-.08-.01-.09-.03-.12-.46-.32-.845-.6-1.155-.27-.31-.55-.465-.84-.465-.16 0-.27.065-.33.195-.05.13-.075.37-.075.72v3.33c0 .3.02.525.06.675.04.14.115.235.225.285.12.05.295.075.525.075.03 0 .045.03.045.09s-.015.09-.045.09c-.28 0-.495-.005-.645-.015l-.84-.015-.87.015c-.16.01-.385.015-.675.015zm10.512-.99c.02 0 .04.02.06.06.03.04.035.07.015.09-.37.36-.745.62-1.125.78-.38.16-.795.24-1.245.24-.63 0-1.175-.13-1.635-.39-.46-.27-.81-.625-1.05-1.065-.24-.45-.36-.935-.36-1.455 0-.58.145-1.115.435-1.605a3.1 3.1 0 0 1 1.2-1.155 3.541 3.541 0 0 1 1.755-.435c.62 0 1.1.14 1.44.42.34.28.51.715.51 1.305 0 .31-.055.465-.165.465l-3.645.015c-.01.07-.015.185-.015.345 0 .88.2 1.57.6 2.07.41.5.995.75 1.755.75.27 0 .5-.03.69-.09.19-.06.44-.17.75-.33zm-2.52-4.635c-.33 0-.605.145-.825.435-.22.28-.365.67-.435 1.17l2.175-.03c-.01-.51-.085-.9-.225-1.17-.14-.27-.37-.405-.69-.405zm9.57 5.445c.05 0 .075.03.075.09s-.025.09-.075.09c-.18 0-.46-.01-.84-.03-.4-.02-.69-.03-.87-.03-.16 0-.42.01-.78.03-.34.02-.58.03-.72.03-.04 0-.06-.03-.06-.09s.02-.09.06-.09c.22 0 .38-.025.48-.075.1-.06.15-.145.15-.255 0-.08-.03-.185-.09-.315a5.04 5.04 0 0 0-.18-.435l-1.26-2.685-.9 2.1c-.18.42-.27.76-.27 1.02 0 .43.24.645.72.645.05 0 .075.03.075.09s-.025.09-.075.09c-.11 0-.265-.01-.465-.03a5.739 5.739 0 0 0-1.185 0 4.4 4.4 0 0 1-.48.03c-.05 0-.075-.03-.075-.09s.025-.09.075-.09c.18 0 .37-.125.57-.375.21-.26.465-.735.765-1.425l1.74-4.035c.02-.04.05-.06.09-.06.04 0 .07.02.09.06l1.86 3.96c.26.57.46.98.6 1.23.14.24.28.41.42.51.14.09.325.135.555.135zm5.46-.81c.02 0 .04.02.06.06.03.04.035.07.015.09-.37.36-.745.62-1.125.78-.38.16-.795.24-1.245.24-.63 0-1.175-.13-1.635-.39-.46-.27-.81-.625-1.05-1.065-.24-.45-.36-.935-.36-1.455 0-.58.145-1.115.435-1.605a3.1 3.1 0 0 1 1.2-1.155 3.541 3.541 0 0 1 1.755-.435c.62 0 1.1.14 1.44.42.34.28.51.715.51 1.305 0 .31-.055.465-.165.465l-3.645.015c-.01.07-.015.185-.015.345 0 .88.2 1.57.6 2.07.41.5.995.75 1.755.75.27 0 .5-.03.69-.09.19-.06.44-.17.75-.33zm-2.52-4.635c-.33 0-.605.145-.825.435-.22.28-.365.67-.435 1.17l2.175-.03c-.01-.51-.085-.9-.225-1.17-.14-.27-.37-.405-.69-.405zm6.9-1.41c-.39 0-.76-.065-1.11-.195-.34-.13-.615-.3-.825-.51-.2-.22-.3-.455-.3-.705 0-.18.055-.32.165-.42.11-.11.27-.165.48-.165.19 0 .33.045.42.135.1.08.17.18.21.3.04.11.08.275.12.495.04.26.11.465.21.615.11.14.315.21.615.21s.515-.075.645-.225c.13-.16.215-.38.255-.66.06-.3.13-.52.21-.66.09-.14.255-.21.495-.21.2 0 .355.055.465.165.11.1.165.24.165.42 0 .25-.105.485-.315.705a2.21 2.21 0 0 1-.825.525c-.34.12-.7.18-1.08.18zm3.48 6.855c.02 0 .03.03.03.09s-.01.09-.03.09c-.29 0-.515-.005-.675-.015l-.825-.015-.885.015c-.16.01-.38.015-.66.015-.02 0-.03-.03-.03-.09s.01-.09.03-.09c.24 0 .415-.025.525-.075a.41.41 0 0 0 .24-.285c.04-.15.06-.375.06-.675v-3l-3.645 4.275c-.03.04-.095.06-.195.06-.05 0-.1-.01-.15-.03-.05-.01-.075-.02-.075-.03v-4.635c0-.3-.02-.52-.06-.66-.04-.15-.115-.25-.225-.3-.11-.05-.285-.075-.525-.075-.02 0-.03-.03-.03-.09s.01-.09.03-.09c.23 0 .405.005.525.015l.96.015 1.215-.015c.09-.01.2-.015.33-.015.03 0 .045.03.045.09s-.015.09-.045.09c-.24 0-.42.025-.54.075-.11.05-.185.15-.225.3-.04.14-.06.36-.06.66v3.03l3.66-4.29c.03-.05.095-.075.195-.075.06 0 .11.01.15.03.05.01.075.025.075.045v4.62c0 .3.02.525.06.675.04.14.115.235.225.285.11.05.285.075.525.075z"/><path fill="#a87104" d="M188.383 14.959c-.995-.385-2.005-.73-2.991-1.138-.553-.229-1.135-.422-1.622-.77-.17-.122-.35-.382-.262-.573.088-.188.396-.14.603-.158.177-.016.614.213.531.055-.283-.544-.873-.87-1.22-1.377-.337-.493-.661-1.02-.816-1.598-.08-.302-.101-.73.14-.928.712-.583 2.669.45 3.016.536.164.041.6.078.503-.06-.243-.345-.732-.433-1.047-.714-.165-.147-.484-.363-.368-.55.144-.232.547-.242.804-.15.756.267 1.334.93 2.097 1.177.476.154 1.002.019 1.501-.014.278-.019.551-.083.824-.142.137-.03.367.012.401-.124.038-.15-.151-.282-.276-.375-.402-.298-.867-.5-1.281-.78-.676-.457-1.386-.876-1.986-1.428-.175-.16-.396-.448-.278-.653.121-.21.493-.202.719-.112.586.233 1.06.684 1.588 1.029.903.588 1.796 1.192 2.706 1.77.209.133.411.294.65.36.12.033.313.034.366-.08.05-.106-.095-.225-.186-.3-.389-.317-.824-.57-1.235-.858-.78-.545-1.58-1.061-2.335-1.64-.476-.365-.973-.722-1.354-1.185-.17-.209-.42-.56-.25-.77.514-.635 1.505.57 1.66.694.754.601 1.526 1.18 2.293 1.765 1.919 1.465 3.677 2.54 5.942 3.909.336.203 1.032.834 1.09.446.069-.462-.635-.694-1.012-.97-1.304-.956-2.683-1.805-4.018-2.718-.096-.066-.185-.143-.274-.218-1.04-.881-2.045-1.806-3.114-2.652-.495-.392-1.072-.67-1.571-1.055-.155-.12-.391-.257-.377-.453.017-.23.222-.566.45-.527 1.318.226 3.579 2.74 4.145 3.198 1.03.835 3.871 2.704 5.021 3.542.633.461 1.218.987 1.859 1.437.23.162.54.584.748.394.196-.18-.293-.454-.495-.627-.52-.443-1.123-.78-1.656-1.209-.307-.248-.654-.478-.859-.816-.092-.152-.094-.418.044-.53.164-.135.454-.137.635-.028.713.43 1.252 1.102 1.934 1.578.142.1.596.27.502.126-.447-.699-3.54-3.11-3.594-3.158-.376-.33-.75-.668-1.06-1.062-.085-.11-.178-.296-.094-.407.291-.38 1.143.362 1.172.386.597.482 1.13 1.039 1.725 1.523.059.048.205.137.22.062.022-.119-.086-.234-.169-.323a91.713 91.713 0 0 0-2.796-2.864c-.392-.386-.845-.708-1.229-1.102-.593-.61-1.089-1.31-1.696-1.904-.393-.384-.924-.615-1.294-1.02-.198-.218-.51-.547-.366-.803.14-.244.562-.06.842-.036.142.013.38.284.402.144.027-.178-.638-.75-.303-1.063.114-.106.32-.052.466 0 .247.086.691.662.676.4-.038-.626-.498-1.152-.756-1.725-.253-.564-.777-1.077.742-1.364.442-.083.81.42 1.252.501.256.048.97-.496 1.214-.316.56.413.814 1.14 1.316 1.622.447.428 1.667 1.683 1.507 1.085-.263-.988-1.26-1.611-1.866-2.434-.198-.267-.544-.503-.546-.835-.003-.824.572-.588.88-.992.145-.19.135-.5.33-.638.306-.217.68.265.788.42.507.72.964 1.476 1.47 2.197.737 1.05 1.516 2.07 2.26 3.115.53.745 1.003 1.533 1.564 2.255.17.22.366.444.621.554.098.043-.004-.224-.063-.313-.493-.746-1.087-1.422-1.578-2.168-.375-.568-.663-1.19-1.019-1.771-.6-.979-1.226-1.941-1.848-2.906-.441-.684-.903-1.354-1.341-2.039-.072-.112-.27-.414-.054-.554.641-.414 1.267.26 1.607.753 1.05 1.523 1.911 3.167 2.828 4.773.19.331.28.716.49 1.035a81.758 81.758 0 0 0 3.062 4.354c.307.405 1.03 1.6 1.061 1.094.041-.694-.661-1.223-1.018-1.819-.34-.571-.741-1.106-1.073-1.682-.763-1.325-1.437-2.7-2.21-4.02-.709-1.208-1.527-2.35-2.235-3.56-.114-.193-.615-1.011-.133-1.3.633-.38 1.268 1.063 1.303 1.122 1.044 1.745 2.04 3.52 3.034 5.293.236.422.424.87.658 1.292.344.625.714 1.235 1.073 1.85.32.546.626 1.1.964 1.635.232.368.322.967.744 1.07.3.074.005-.642-.133-.92-.768-1.552-1.718-3.009-2.56-4.523-1.005-1.807-1.946-3.649-2.98-5.438-.547-.945-1.065-1.047-1.103-2.162-.006-.17.074-.388.23-.455.146-.063.341.046.446.165.35.398.614.868.874 1.33.75 1.342 1.427 2.723 2.154 4.077a154.59 154.59 0 0 0 1.75 3.192c.253.448.5.904.81 1.316.144.19.6.703.538.473-.009-.033-1.118-1.89-1.26-2.163-.752-1.448-1.46-2.92-2.217-4.365-.615-1.174-1.284-2.319-1.896-3.493-.136-.261-.468-.947.018-1.196.484-.247.79.32.931.598.59 1.157 1.174 2.317 1.73 3.49.547 1.155 1.035 2.338 1.58 3.493.327.693.675 1.375 1.036 2.05.037.07.216.26.334.17.295-.223.193-.563.06-.842-.532-1.11-1.136-2.183-1.695-3.28-.765-1.5-1.538-2.996-2.277-4.508-.19-.389-.367-.786-.51-1.194a.61.61 0 0 1-.033-.345c.103-.403.469-.426.818-.15.233.183.375.47.493.742.299.686.47 1.422.75 2.116.111.276.284.524.421.788.517.989 1 1.996 1.54 2.971.111.2.184.565.412.55.192-.012.07-.396 0-.576-.479-1.241-1.086-2.43-1.628-3.645-.522-1.169-1.151-2.295-1.565-3.507-.164-.48.139-1.302.839-.678.304.272.414.706.576 1.08.147.34.031 1.244.348 1.053.477-.288.327-1.067.535-1.585.26-.647.529-1.293.865-1.904.096-.174.22-.415.419-.427 1.495-.085 1.052.946 1.437 1.991.309.837.492 1.786 1.098 2.44.28.3.11-.832.022-1.233-.182-.831-.568-1.604-.822-2.416-.055-.174-.125-.356-.1-.537.066-.507.377-.882.952-.43.244.19.396.504.463.807.219.993.285 2.015.383 3.028.126 1.285-.253 1.782.782 2.715.085.077.22-.16.207-.273-.125-1.024-.384-2.028-.609-3.034-.213-.954-.595-1.875-.703-2.846-.025-.224.107-.525.321-.594.726-.233.856 1.117.895 1.296.212.958.405 1.921.577 2.887.13.731.21 1.471.331 2.204.217 1.311.481 2.563 1.186 3.748.173.291-.022-.679-.072-1.014-.036-.246-.131-.48-.183-.724-.215-1-.422-2.002-.617-3.006-.044-.227-.061-.459-.1-.687-.16-.93-.36-1.852-.497-2.784-.09-.623-.26-1.255-.186-1.88.03-.241.235-.55.477-.551.243-.002.427.31.482.546.268 1.15.28 2.346.464 3.513.16 1.02.394 2.027.565 3.045.078.46.077.932.181 1.386.039.17.172.623.242.463.151-.34.086-.745.047-1.115-.15-1.424-.44-2.831-.61-4.253-.117-.976-.289-1.955-.25-2.937.008-.206.177-.477.383-.486.224-.01.448.23.502.448.26 1.035.285 2.115.41 3.175.129 1.106.244 2.213.35 3.32.089.933.12 1.87.234 2.8.154 1.25.392 2.489.568 3.736.088.621-.03 1.264.453 1.808.117.132.19-.317.191-.494.008-.698-.112-1.392-.164-2.089-.062-.827-.108-1.655-.176-2.48-.08-.98-.186-1.957-.268-2.936-.19-2.237-.387-4.473-.547-6.713-.027-.377-.055-.767.35-.973.194-.098.425.168.47.3.11.314.213.635.237.966.135 1.879.136 3.766.238 5.647.052.947.184 1.888.224 2.835.036.85-.153 1.486-.033 2.327.013.09.075.22.165.214.09-.004.13-.141.145-.23.074-.426.132-.858.118-1.29-.038-1.177-.228-2.345-.271-3.522-.038-1.015.056-2.03.028-3.045-.034-1.216-.175-2.427-.214-3.643-.008-.238 0-1.262.635-1.14.25.047.397.381.422.634.066.647-.156 1.293-.161 1.943-.01 1.234.08 2.466.12 3.698.022.658-.184 1.366.069 1.973.119.287.327-.54.401-.841.104-.42.109-.86.124-1.293.063-1.799-.002-3.602.111-5.398.017-.266.013-.743.279-.747.28-.004.32.47.413.735.06.173-.063.7.036.547.56-.868.01-1.737 1.472-1.89.819-.086.876 1.433 1.101 1.652.177.172-.017-.495.018-.74.04-.279.074-.572.207-.82.048-.088.185-.092.285-.092.25 0 .486.221.565.44.051.14.005.299.008.448.033 1.617.032 3.235.1 4.851.033.766.068 1.536.201 2.29.037.205.096.567.302.545.212-.023.212-.388.222-.601.068-1.515.02-3.032.01-4.547-.005-.635-.165-1.279-.055-1.904.049-.28.225-.656.508-.683.265-.027.502.317.548.579.11.622-.073 1.261-.113 1.891-.025.382-.074.762-.081 1.145a140.7 140.7 0 0 0-.023 4.395c.02 1.542.085 3.082.136 4.623.002.05 0 .102.022.147.017.036.058.11.088.083.166-.151.144-.41.147-.601.028-1.766.07-3.532.076-5.298 0-.383-.064-.764-.054-1.147.047-1.733-.012-3.48.223-5.197.047-.339.264-.874.603-.829.375.05.543.607.564.985.096 1.774-.125 3.551-.22 5.326-.057 1.062-.226 2.12-.238 3.184-.01.923-.084 1.878.173 2.764.11.376.241-.747.302-1.133.156-1 .27-2.008.345-3.018.16-2.136-.093-4.435.336-6.533.074-.364.369-.905.734-.837.358.066.341.673.342 1.038.008 1.856-.344 3.703-.315 5.559.01.65.265-1.273.373-1.913.245-1.462.28-2.968.687-4.393.081-.285.431-.603.718-.527.286.076.392.518.359.812-.079.693-.54 1.296-.675 1.98-.296 1.493-.449 3.011-.614 4.524-.033.296-.127 1.154.021.895.308-.538.354-1.19.493-1.793.4-1.731.613-3.51 1.125-5.21.073-.241.346-.539.588-.472.25.068.329.457.301.714-.067.627-.434 1.188-.572 1.804-.288 1.279-.442 2.585-.704 3.87-.252 1.24-.589 2.46-.837 3.7-.117.583-.22 1.171-.258 1.764-.007.109.024.266.127.3.34.114.677-.697.69-.746.237-.934.352-1.895.526-2.843.296-1.62.564-3.245.88-4.861.183-.93.252-1.9.615-2.774.107-.255.45-.34.714-.424.077-.025.15.069.208.126a.526.526 0 0 1 .152.449c-.012.08-.069.148-.09.226-.353 1.372-.729 2.74-1.03 4.123-.249 1.137-.388 2.295-.62 3.435-.108.532-.327 1.04-.401 1.578-.019.132.003.346.132.376.139.032.268-.14.333-.268.157-.31.248-.653.31-.995.226-1.241.328-2.503.551-3.745.086-.476.241-.938.375-1.403.29-1.008.57-2.02.897-3.017.046-.14.104-.295.22-.386a.624.624 0 0 1 .411-.11c.159.008.228.247.23.356 0 .142-.173.746.016.834.151.07.294-.16.428-.259.22-.164 2.332-2.565 3.323-1.26.293.385.002.977-.114 1.448-.214.874-.656 1.682-.87 2.557-.045.182 0 .706.11.553.341-.483.421-1.106.664-1.646.104-.23.472-1.209 1.058-.853.182.11.178.427.11.629-.376 1.104-1.012 2.106-1.413 3.201-.114.312-.452 1.038-.124.99.428-.064.495-.711.724-1.079.289-.465.576-.933.83-1.418.183-.351.245-.77.482-1.089.155-.209.415-.547.65-.434.244.117.205.547.115.802-.39 1.101-1.063 2.083-1.515 3.16-.1.238-.374.85-.131.763.34-.122.4-.604.573-.921.534-.98 1.025-1.985 1.546-2.972.152-.288.532-.76.937-.537.232.127.107.535.045.792-.135.566-.492 1.062-.626 1.628-.05.211.247-.359.367-.54.158-.235.585-1.102 1.09-.762.207.14-.055.501-.147.733-.33.828-.8 1.597-1.113 2.431-.03.077.189-.012.232-.082.491-.81.777-1.743 1.34-2.505.2-.272.575-.643.882-.5.309.142.316.68.2 1.001-.367 1.016-1.053 1.887-1.584 2.828-.286.508-.614.994-.867 1.52-.24.503-.39 1.045-.608 1.559-.146.343-.407.644-.483 1.009-.03.138.255-.147.328-.268.594-.978 1.112-2 1.657-3.006.674-1.24 1.243-2.54 2-3.731.132-.21.385-.46.625-.4.22.054.323.403.27.623-.112.47-.491.83-.72 1.255-.931 1.722-3.097 5.935-3.822 7.37-.19.377-.39.495-.16.793.013.017.042.008.063.006a.16.16 0 0 0 .109-.058c.013-.017.019-.038.03-.056.425-.731.846-1.464 1.278-2.191.45-.757.925-1.497 1.365-2.259.283-.49.528-1.002.804-1.497.55-.987.978-2.057 1.673-2.948.162-.207.548-.324.77-.182.21.135.21.515.108.743-.443.99-1.161 1.831-1.686 2.779-.784 1.413-1.602 2.815-2.237 4.3-.155.363.554-.566.78-.89.57-.819 1.075-1.682 1.601-2.53.571-.92 1.03-1.916 1.69-2.775.148-.193.436-.373.666-.295.183.061.2.383.132.564-.248.667-.682 1.25-1.038 1.867a87.262 87.262 0 0 1-1.407 2.361c-.192.31-.44.584-.62.902-.059.106-.177.272-.087.355.1.091.29.01.402-.068.205-.142.344-.362.496-.56.855-1.105 1.712-2.21 2.526-3.346.145-.203.152-.505.344-.665.497-.41 1.223-.462.86.5-.22.579-.941.963-.976 1.582-.02.352.618-.342.916-.533.37-.236 1.433-1.279 2.063-.627.293.304.173.86.056 1.265-.192.665-1.323 2.147-1.683 2.78-.136.239-.425.504-.32.758.076.185.358-.199.488-.352.647-.769 1.18-1.628 1.826-2.398.215-.257.572-.256.288.222-.451.758-.998 1.456-1.496 2.184-.178.26-.336.534-.532.782-.325.41-.69.788-1.028 1.189-.266.316-.576.602-.782.96-.311.538-1.278 2.041-.757 1.703.988-.64 1.534-1.785 2.284-2.692.137-.166.25-.351.376-.526.61-.846 1.197-1.71 1.834-2.535.314-.407.545-.794 1.097-.601.086.03.124.141.148.229.046.174-.047.405-.14.542-.799 1.167-1.595 2.335-2.435 3.472-.664.897-1.39 1.746-2.076 2.627a2.177 2.177 0 0 0-.194.29c-.018.034-.073.211.033.227a.267.267 0 0 0 .22-.064c1.061-1.064 2.077-2.172 3.104-3.27.719-.766 1.359-1.61 2.132-2.322.149-.137.409-.28.582-.174.34.206.172.812-.01 1.03a93.473 93.473 0 0 1-3.194 3.642c-.805.869-1.68 1.67-2.511 2.514-.713.725-1.406 1.47-2.119 2.195-.758.774-1.549 1.517-2.294 2.305-.119.126-.459.477-.292.43.33-.094.59-.36.849-.587 1.108-.98 2.163-2.018 3.244-3.027.644-.601 5.02-4.69 5.56-5.202.496-.47.897-1.059 1.473-1.428.249-.16.678-.296.884-.083.208.217.091.665-.1.896-1.394 1.683-4.74 4.508-6.427 6.082-.162.151-.392.284-.437.501-.024.113.236-.002.342-.047.106-.045.184-.14.273-.211.725-.587 1.457-1.164 2.17-1.765 1.489-1.255 2.87-2.643 4.435-3.802.234-.174.655-.33.864-.127.209.203.089.646-.1.867-.703.817-1.626 1.416-2.455 2.104a155.741 155.741 0 0 1-3.374 2.739c-.117.092-2.753 1.923-3.29 2.624-.059.076.203.024.287-.023a51.015 51.015 0 0 0 3.013-1.847c.555-.367 1.057-.809 1.593-1.202.922-.676 1.877-1.307 2.78-2.005.315-.243.583-.538.869-.813.247-.238 1.07-1.408 1.753-.983.223.14.268.514.192.767-.07.237-.632.504-.861.678-.928.704-1.818 1.46-2.768 2.133-1.443 1.023-2.974 1.92-4.408 2.955-.169.122-.484.323-.375.501.127.209.497.155.73.078.616-.205 1.163-.579 1.73-.896 2.445-1.366 2.349-2.005 5.813-4.144.255-.157.691-.216.898 0 .18.188-.003.562-.172.76-.324.38-.809.585-1.218.87-1.437 1.002-2.858 2.026-4.32 2.99-.292.193-.644.283-.936.476-.135.09-.367.205-.324.361.039.143.301.112.44.06a16.568 16.568 0 0 0 2.25-1.085c1.45-.82 2.824-1.77 4.266-2.605.185-.107.392-.182.603-.219a.455.455 0 0 1 .29.064c.229.13.359.44.095.674-.492.438-1.07.772-1.64 1.102-.606.35-1.28.576-1.882.933-.103.061-.24.187-.2.3.035.1.217.066.317.032.629-.22 1.234-.502 1.838-.782.424-.197.793-.524 1.244-.65.923-.256.903.36.599 1.016-.104.222-.596.273-.53.51.076.276.496.303.775.373.402.1 2.309.029 2.54.905.095.36-.206.777-.508.993-1.093.783-2.362 1.284-3.55 1.914-.187.1-.889.298-.721.673.093.21.461.162.68.096 1.133-.346 2.204-.87 3.301-1.312.218-.088.683-.426.89-.011.1.2-.05.523-.25.622-1.518.752-3.132 1.298-4.734 1.846-.427.146-.9.104-1.334.23-.187.053-.347.182-.502.3-.242.184-.983.535-.686.601.565.125 1.134-.232 1.693-.379.388-.101.763-.244 1.144-.365 1.033-.33 2.06-.677 3.097-.988.33-.1.924-.127 1.029.404.05.252-.183.546-.42.646-.984.416-2.058.576-3.094.841-1.29.33-2.571.705-3.881.946-1.29.237-2.617.247-3.907.486-.992.184-1.971.451-2.925.782-.13.045-.306.193-.258.322.047.128.267.086.402.067 1.57-.227 3.123-.567 4.693-.802.856-.128 1.715-.279 2.58-.286.215-.001.553.05.588.26.037.222-.252.416-.464.489-.687.234-1.426.27-2.14.4-1.046.193-2.099.35-3.14.569-.5.105-1.978.288-1.48.4.836.19 1.716-.05 2.566-.155 1.69-.209 3.362-.544 5.047-.786.607-.087 1.224-.107 1.83-.2.93-.144 1.852-.333 2.775-.513.04-.007 2.025-.723 2.36-.03.128.263-.211.554-.24.846-.02.196.02.403.1.583.112.253.512.417.462.688-.053.288-.403.481-.689.547-.683.156-1.402.045-2.102.09-1.215.08-2.43.158-3.64.287-1.186.127-2.36.351-3.546.48-.696.076-1.398.08-2.097.133a.971.971 0 0 0-.266.047c-.016.005.003.034.01.05a.127.127 0 0 0 .119.079c1.013.03 2.026.13 3.038.08 1.294-.063 2.575-.29 3.864-.418 1.36-.135 2.721-.247 4.082-.372.35-.032.947-.174 1.152.316.103.245-.17.504-.235.762-.091.36-.071.902-.377 1.184-.17.158-.458.107-.664.216-.093.05-.204.14-.2.246.003.094.128.149.216.182.125.048 2.635.657 2.76 1.286.093.465-.386.872-.646 1.27-.091.139-.317.162-.39.312-.116.232-.094.51-.144.765-.039.195-.009.422-.125.583-.17.236-.622.114-.822.094-.446-.047-.895-.079-1.34-.135-.578-.072-1.153-.17-1.73-.25-.126-.017-.703-.112-.72.155-.01.146.252.16.395.187 1.065.204 2.228.056 3.215.507.41.187.427.798.578 1.223.194.545-.205 1.18-.486 1.568-.049.067-.167.005-.25-.005-.843-.102-1.694-.165-2.527-.33-.982-.194-1.928-.545-2.909-.746-.668-.137-1.353-.173-2.03-.266-.775-.105-1.544-.26-2.323-.328-.256-.023-.864-.18-.769.058.125.313.611.298.94.37 1.401.311 2.827.5 4.236.776 1.322.26 2.631.587 3.957.829.005 0 1.555.068 1.643.177.226.282.26.705.213 1.063-.022.162-.35.134-.392.292-.028.108.19.126.258.214.173.224.558.448.46.713-.117.312-.56.462-.893.454-.766-.021-1.49-.366-2.237-.538-1.04-.24-2.08-.477-3.123-.702-1.387-.299-2.794-.515-4.169-.869-.836-.215-1.626-.583-2.452-.834-.131-.04-.505-.138-.411-.037.822.88 1.843.896 2.965 1.171 2.24.549 5.975 1.44 8.243 2.073.18.05 1.525.3 1.385.964-.043.206-.33.335-.541.327-.846-.035-1.68-.234-2.499-.452-1.741-.465-3.455-1.032-5.168-1.594-.188-.062-.34-.211-.527-.276-.209-.072-.429-.139-.65-.131-.136.004-.378.03-.374.166.007.187.222.326.394.4.519.226 1.088.312 1.628.479.97.298 1.928.633 2.901.918.668.195 1.35.335 2.02.52.72.198 1.48.299 2.151.627.352.172.381.662.172.92a.57.57 0 0 1-.313.197c-.67.14-2.219-.61-2.37-.66a352.925 352.925 0 0 0-4.866-1.524c-.332-.102-1.133-.604-1.004-.28.43 1.078 2.31 1.151 3.062 1.513.21.101.53.323.445.54-.564 1.436-1.212-.822-1.863.174-.181.277.476.477.773.623 1.467.722 3.11 1.094 4.49 1.968.3.189.196.681.248 1.03.03.207-.128.462 0 .627.272.354.706.55 1.087.785.17.104.468.045.556.225.196.403.48.978.201 1.329-1.383 1.738-5.228-.267-6.016-.53-.348-.117-.64-.368-.981-.501-.102-.04-.269-.1-.326-.008-.062.099.037.252.127.327.662.559 1.422.993 2.092 1.542.048.04.87.635.84 1.06a.406.406 0 0 1-.09.23.456.456 0 0 1-.231.145c-.395.098-1.044-.518-1.139-.593-.626-.495-1.217-1.033-1.824-1.551-.278-.237-.538-.496-.83-.716-.062-.047-.835-.574-1.028-.344-.094.112.129.27.237.369 1.084.987 2.31 1.823 3.329 2.878.175.182.323.544.164.74-.174.217-.594.232-.83.084-1.057-.666-1.915-1.607-2.871-2.413-.038-.032-.068-.072-.109-.1-.963-.68-1.896-1.407-2.902-2.023-.114-.07-.32-.106-.401 0-.073.094.065.243.154.322 1.328 1.16 2.706 2.262 4.073 3.374.813.661 1.768 1.168 2.469 1.947.211.235.284.665.13.94-.127.226-.523.29-.755.176-.534-.26-.892-.784-1.326-1.188-.109-.101-.19-.23-.302-.327a99.778 99.778 0 0 0-2.534-2.109c-1.612-1.294-3.267-2.534-4.872-3.838-1.113-.905-2.15-1.901-3.278-2.787-.115-.09-.52-.224-.421-.117.686.747 1.462 1.408 2.222 2.08.31.275.668.492.986.758.65.545 1.283 1.11 1.919 1.672.372.329.73.675 1.105 1.002.928.809 1.878 1.593 2.803 2.404 1.047.919 2.19 1.744 3.114 2.786.197.222.339.664.136.882-.19.202-.597.014-.818-.153-1.034-.78-1.872-1.793-2.865-2.625-1.072-.898-2.203-1.726-3.327-2.559-.088-.065-.373-.213-.301-.131.25.285.573.499.852.756.98.905 1.928 1.843 2.923 2.73.522.467 1.125.84 1.627 1.328.238.232.452.505.574.814.162.411-.061.887-.573.476-1.248-1.002-2.359-2.164-3.563-3.22-.386-.338-.816-.624-1.205-.96-.288-.247-1.926-1.93-2.105-1.841-.475.236.619.869.996 1.242.698.689 1.484 1.282 2.218 1.932.062.055.14.106.169.184.096.258.353.572.2.801-.146.22-.525.064-.79.081-.123.009-.315-.103-.214.111.017.038.058.06.087.09.804.84 1.57 1.719 2.411 2.52.236.225.538.368.808.55-.393.163-1.183.075-1.171.5.03 1.09.945 1.974 1.271 3.015.079.25.119.612-.081.781-.218.184-.583.097-.855.01-.382-.122-.68-.427-1.035-.614-.115-.06-.24-.122-.372-.125-.13-.002-.246.122-.376.111-.385-.031-.797-.045-1.134-.234-.418-.235-.613-.78-1.045-.99-.164-.079.044.366.11.536.14.355.458.65.503 1.028.098.816-.443.885-.879.472-.18-.17-.222-.446-.358-.653-.607-.932-1.251-1.838-1.869-2.762-.237-.355-.413-.755-.696-1.075-.08-.09-.246-.169-.345-.1-.087.06-.013.221.034.316.162.33.392.62.582.933.717 1.184 1.58 2.292 2.138 3.558.175.398.37 1.076 0 1.303-.348.212-.771-.356-1.014-.683-.616-.83-.992-1.814-1.507-2.71-.596-1.04-1.154-2.103-1.826-3.094-.218-.322-.465-.68-.828-.82-.16-.063-.049.364.037.512.503.875 1.14 1.666 1.7 2.505.054.081.1.167.142.255.505 1.053.994 2.113 1.5 3.166.055.115.907 1.249.32 1.601-.17.101-.434-.029-.563-.177-.52-.596-.9-1.303-1.314-1.976-.497-.805-.94-1.642-1.42-2.457-.11-.186-.244-.356-.35-.545-.653-1.173-1.245-2.38-1.927-3.537-.41-.695-.894-1.345-1.347-2.013-.086-.128-.373-.475-.537-.365-.12.08.023.298.1.42.439.683.991 1.29 1.433 1.972.819 1.261 1.895 3.333 2.585 4.66.67 1.286 1.433 2.53 1.992 3.867.184.44.388.971.215 1.417-.098.251-.59.265-.804.1-.349-.271-.419-.78-.593-1.185-.092-.213-.097-.458-.201-.665-.698-1.382-1.462-2.73-2.2-4.09-.524-.965-1.007-1.954-1.586-2.886-.136-.22-.31-.653-.546-.55-.227.1.034.503.119.737.216.591.51 1.152.778 1.721.029.06.077.107.112.163.577.914 1.188 1.808 1.724 2.747.442.775.827 1.582 1.205 2.39.28.598.528 1.212.769 1.827.024.063.08.161.026.2-.537.386-1.115.716-1.708 1.009-.125.061-.277.031-.416.042-.334.026-.673.12-1.004.067-.125-.02-.145-.293-.269-.268-.136.029-.18.228-.2.365-.064.44-.018 2.735-.164 3.024-.157.31-.62.53-.952.428-.508-.156-.79-.713-1.175-1.081-.156-.15-.258-.367-.447-.474-.47-.267-.93.214-1.312-.462-.311-.552-.297-1.234-.477-1.842a6.28 6.28 0 0 0-.287-.743c-.014-.032-.151-.233-.238-.144a.307.307 0 0 0-.078.254c.144.836.388 1.652.548 2.485.06.307.18.628.11.933-.049.21-.222.453-.436.476-.631.067-.738-1.138-.784-1.34-.294-1.282-.474-2.593-.852-3.853-.051-.173-.231-.39-.408-.354-.166.033-.212.304-.187.472.11.717 1.042 3.995 1.033 5.337-.002.274-.155.699-.446.833a.569.569 0 0 1-.28.05c-.177-.015-.387-.135-.455-.309a2.336 2.336 0 0 1-.127-.582c-.115-.975-.168-1.957-.29-2.931a79.524 79.524 0 0 0-.467-3.107c-.034-.205-.193-.836-.588-.714-.15.046-.003.316.021.47.156 1.005.78 4.281.89 5.678.018.235.215 1.412-.513 1.396-.184-.004-.359-.195-.408-.373-.217-.786-.252-1.612-.363-2.42-.188-1.376-.507-4.281-.802-5.77-.058-.29-.199-.557-.278-.843-.265-.951-.492-1.912-.754-2.864-.157-.571-.273-1.158-.502-1.704-.063-.15-.194-.363-.354-.333-.13.023-.006.265.02.394.143.71.327 1.411.487 2.118.036.16.076.322.1.486.09.6.134 1.206.24 1.803.074.423.216.832.3 1.253.27 1.336.53 2.674.762 4.018.195 1.133.341 2.275.518 3.411.058.367.343.967-.386 1.135-.288.066-.513-.37-.603-.65-.238-.746-.24-1.548-.346-2.323-.24-1.746-.44-3.497-.692-5.242a59.672 59.672 0 0 0-.514-3.142c-.076-.382.055-1.157-.334-1.121-.386.036-.106.773-.1 1.161.01.582.09 1.16.146 1.74.11 1.126.22 2.252.351 3.376.233 1.98.575 3.95.743 5.937.014.173-.125 1.125-.605 1.078-.187-.018-.343-.216-.402-.395-.18-.551-.189-1.145-.29-1.716-.043-.239.039-.874-.143-.713-.238.21-.108.626-.118.943-.015.434.136.879.043 1.303-.06.268-.203.671-.477.67-.267-.003-.379-.414-.427-.676-.204-1.096-.22-2.218-.319-3.328-.167-1.889-.293-3.781-.477-5.669-.066-.676.182-1.513-.271-2.019-.318-.355-.287.926-.281 1.403.015 1.332.235 2.654.343 3.982.082 1.006.191 2.01.226 3.02.034.975.077 1.956-.02 2.927-.018.17-.146.373-.314.406-.52.105-.627-.835-.635-1.01-.042-.934.055-1.87.032-2.805a47.06 47.06 0 0 0-.187-3.438c-.022-.23.016-.654-.216-.66-.224-.006-.16.426-.178.65a35.25 35.25 0 0 0-.085 2.681c-.003 1.075.25 2.207-.06 3.274-.068.232-.298.505-.54.487-.195-.015-.195-.35-.219-.544-.05-.417.284-.95 0-1.259-.198-.216-.392.458-.479.738-.166.531.051 2.096-.725 2.412-1.843.751-1.783-2.257-1.918-2.75-.054-.199-.188-.757-.256-.562-.182.526-.071 1.112-.126 1.666-.011.107-.033.835-.394.809-.28-.02-.322-.434-.31-.612.092-1.477.317-2.947.323-4.426.002-.424.021-.961-.301-1.236-.213-.18-.179.535-.196.813-.049.779.055 1.563 0 2.342-.072 1.003-.145 2.015-.379 2.994-.046.19-.237.416-.433.4-.586-.045-.395-1.063-.374-1.26.16-1.517.855-6.452.863-7.551.004-.543.085-1.415-.436-1.57-.446-.134-.123.924-.175 1.388-.23 2.096-.433 4.195-.67 6.29a32.008 32.008 0 0 1-.229 1.628c-.051.312-.36.928-.761.816-.275-.077-.324-.517-.301-.802.06-.745.378-1.447.542-2.177.05-.226.074-.457.1-.686.148-1.286.301-2.57.422-3.858.072-.759.073-1.524.156-2.282.095-.86.308-1.705.38-2.567.043-.514.287-1.148-.038-1.549-.188-.231-.36 1.766-.407 1.87-.063.137-.212.3-.36.274-.15-.027-.24-.233-.242-.383-.003-.226.433-4.233.423-4.356-.024-.292-.28.523-.344.809-.288 1.282-.466 2.586-.712 3.877-.283 1.486-.61 2.962-.875 4.451-.246 1.39-.323 2.81-.656 4.182-.182.755-.579 1.44-.879 2.157a.337.337 0 0 1-.328.221c-.28-.01-.529-.399-.517-.624.056-1.103.352-2.18.577-3.262.187-.893.46-1.767.657-2.659.448-2.013.837-4.412 1.269-6.41.106-.49.281-.963.384-1.453.029-.14.152-.439.009-.43-.185.01-.257.277-.326.449-.142.354-.805 1.962-.978 2.92-.212 1.17-.435 2.339-.628 3.512-.265 1.614-.278 2.36-.606 3.739-.275 1.157-.456 2.345-.86 3.464-.102.285-.335.577-.627.657-.288.079-.56-.345-.574-.586-.004-.083.021-.165.043-.245.4-1.46.852-2.908 1.222-4.376.315-1.254.501-2.539.832-3.789.224-.844.55-1.658.83-2.485.02-.06.062-.115.072-.178.093-.57.273-1.14.236-1.717-.011-.167-.268.226-.32.384-.317.948-.513 1.932-.774 2.897-.243.897-.507 1.789-.738 2.69-.408 1.594-.785 3.197-1.178 4.796-.185.752-.2 1.63-.768 2.228a.493.493 0 0 1-.289.14c-.105.013-.242.018-.314-.06-.395-.43-.052-1.217.054-1.598.328-1.17.737-2.316 1.052-3.49.103-.384.095-.792.2-1.175.164-.593.446-1.15.603-1.744.355-1.335.798-2.662.933-4.035.06-.608-.52 1.109-.704 1.692-.153.49-.158 1.018-.3 1.512-.328 1.132-.771 2.228-1.106 3.358-.107.363-.13.747-.22 1.116-.133.545-.257 1.094-.447 1.622-.169.47-.398.915-.626 1.359-.105.204-.37.638-.72.453-.138-.073-.199-.278-.177-.431.062-.424.28-.81.416-1.215.127-.375.282-.743.375-1.128.025-.104.072-.274-.024-.32-.112-.054-.25.062-.34.146-.478.443-.916.927-1.346 1.417-.45.513-.88 1.047-1.295 1.59-.18.238-.298.52-.488.75-.237.285-.627.854-1.122.817-.587-.044-.773-.77-.817-1.249-.03-.331.18-.64.262-.963.206-.807.495-1.6.602-2.425.022-.165-.24.231-.334.368-.309.45-.499.987-.869 1.388-.517.56-.769.06-.796-.386-.01-.18.063-.362.147-.522.654-1.253 1.381-2.467 2.06-3.707.175-.321.426-.618.502-.976.17-.812-.07-2.342-.233-3.105-.03-.138-.039-.36-.178-.385-.15-.026-.264.168-.353.293-.975 1.361-1.89 2.766-2.83 4.152-.41.604-.704 1.303-1.222 1.818-.199.198-.6.389-.816.209-.225-.189-.14-.63.01-.882.795-1.328 1.876-2.465 2.756-3.74.793-1.148 1.602-2.294 2.26-3.524.176-.327.58-1.154.214-1.093-.521.086-.695.796-1.005 1.224-.507.701-.934 1.457-1.441 2.158a140.725 140.725 0 0 1-2.966 3.942c-.123.16-1.031 1.478-1.607.859-.215-.232-.071-.68.1-.945.472-.727 1.2-1.252 1.755-1.918 1.95-2.345 4.009-5.126 5.733-7.627.5-.723.93-1.491 1.413-2.225.263-.401.606-.752.824-1.179.06-.114.076-.47-.022-.385-.434.374-.737.877-1.08 1.336-.617.824-1.191 1.678-1.797 2.51-.32.442-.636.888-.983 1.31-.274.332-.601.619-.878.95-.8.957-1.544 1.962-2.354 2.912-.475.558-1.014 1.06-1.5 1.61-.67.761-1.3 1.56-1.967 2.324-.257.295-.561.509-1.02.37-.142-.042-.195-.239-.222-.385-.055-.29.092-.526.269-.724 1.35-1.518 2.753-2.988 4.08-4.526.683-.793 1.3-1.64 1.946-2.463 1.365-1.743 2.733-3.484 4.084-5.237.32-.416.865-.749.928-1.269.044-.357-.586.42-.854.66-.568.513-1.104 1.06-1.65 1.597-.082.08-.165.161-.235.253-.492.642-.96 1.302-1.449 1.947-.735.972-1.462 1.95-2.22 2.906-1.01 1.273-2.858 3.446-3.969 4.695-.353.398-.646.873-1.09 1.167-.226.15-.598.261-.81.091-.189-.15-.105-.517.018-.725.305-.514.798-.889 1.2-1.33.963-1.054 1.982-2.058 2.896-3.155.989-1.186 1.837-2.484 2.806-3.685.355-.44.775-.824 1.163-1.235.042-.044.058-.038.073-.1a.162.162 0 0 0 .001-.064c-.003-.02-.006-.072-.023-.06-1.62 1.223-1.592 1.636-3.332 3.74-.191.23-.408.44-.603.667-.877 1.021-1.704 2.086-2.612 3.08-.571.625-1.123 1.293-1.821 1.773-.22.151-.617.225-.799.03-.173-.186-.02-.543.123-.753.262-.384.71-.603 1.033-.937.426-.44.801-.928 1.212-1.384.369-.409.786-.775 1.125-1.21.084-.107.215-.288.124-.389-.086-.094-.255.058-.358.133-.98.718-1.924 1.481-2.875 2.237-.365.29-2.144 2.32-3.29 1.854-.266-.108-.334-.555-.24-.826.373-1.069 1.073-1.993 1.576-3.006.067-.135.25-.34.13-.432-.128-.099-.315.096-.45.187-.289.197-.484.54-.81.669-.464.183-1.337-.024-.622-.76.882-.91 1.97-1.592 2.913-2.437.206-.184.38-.405.524-.64.022-.036-.024-.127-.063-.111a2.446 2.446 0 0 0-.671.4c-.984.827-1.893 1.74-2.87 2.574-.355.303-.715.501-1.18.171-.285-.202-.012-.622.074-.788.007-.015.024-.024.037-.035 1.234-.957 2.728-2.024 3.92-3.14.254-.239.48-.507.728-.753.578-.573 1.202-1.1 1.749-1.704.086-.095.212-.268.127-.365-.09-.102-.294-.028-.402.054-.318.24-.522.605-.821.868-2.356 2.076-3.34 2.797-5.964 4.524-.293.193-.81.334-1.05-.132-.092-.18.044-.434.188-.575.393-.384.9-.629 1.357-.934.429-.286.878-.54 1.298-.838 1.733-1.234 3.587-2.643 5.17-4.07.172-.157.53-.346.426-.554-.095-.189-.424.094-.598.214-1.629 1.126-3.16 2.39-4.792 3.512-.92.632-1.847 1.272-2.858 1.746-.21.099-.495.045-.69-.08-.287-.184.026-.661.15-.764.267-.224.584-.382.877-.572.96-.621 1.947-1.203 2.882-1.861.924-.65 1.805-1.357 2.689-2.06.132-.105.412-.203.356-.363-.05-.145-.32.014-.45.095-1.555.974-3.029 2.075-4.58 3.055-.522.33-1.038.712-1.635.87-.262.07-.656.016-.782-.225-.11-.21.146-.486.338-.623 1.438-1.025 2.999-1.865 4.486-2.815 1.601-1.024 3.184-2.074 4.779-3.107.6-.389 1.225-.744 1.808-1.159.099-.07.26-.17.224-.286-.037-.117-.234-.15-.35-.112-.485.16-.944.4-1.373.677-1.34.863-2.611 1.828-3.923 2.733-.042.028-.092.04-.135.066-.82.506-1.63 1.032-2.455 1.53-.428.259-.886.467-1.306.74-.754.49-1.474 1.029-2.21 1.546-.054.038-.095.104-.16.119-.295.066-.598.15-.899.117-.115-.012-.199-.137-.252-.24-.129-.25-.02-.58.155-.77.107-.116.27-.165.409-.237.426-.221.874-.4 1.288-.643 1.855-1.09 5.377-3.365 7.06-4.555.085-.06.21-.176.162-.269-.048-.094-.218-.072-.315-.03-.748.323-1.484.683-2.18 1.108-1.135.694-2.167 1.547-3.303 2.24-.982.6-2.015 1.11-3.04 1.633-.163.083-.335.204-.518.185-.663-.068-1.172-.402-.38-.98.593-.434 1.304-.677 1.95-1.025.074-.04.152-.078.21-.138.06-.06.212-.245.135-.212-.671.277-1.305.637-1.953.964-.296.15-.846.633-1.194.067-.12-.194.061-.466.183-.658.098-.153.609-.253.44-.32-.335-.136-2.438-.054-2.846-.485-.947-1 1.313-1.396 1.357-1.416.153-.071.403-.131.41-.3.005-.152-.267-.147-.39-.235-.431-.307-.942-.52-.04-.984.46-.237.994-.29 1.495-.423.195-.051.85-.027.702-.48-.062-.191-.407-.06-.602-.015-.742.174-1.427.597-2.185.667-.261.025-.663-.138-.678-.4-.017-.303.335-.56.618-.669 1.104-.428 2.307-.546 3.437-.902.14-.043.385-.15.332-.285-.06-.151-.32-.121-.48-.09-1.26.242-2.489.625-3.741.902a.85.85 0 0 1-.373.005c-.302-.07-.594-.338-.516-.71a.588.588 0 0 1 .383-.409c.763-.236 1.575-.272 2.356-.438 1.173-.248 2.35-.484 3.506-.801.135-.037.364-.117.334-.254-.03-.142-.273-.147-.418-.129-.126.016-4.647.939-4.86.975-.34.059-1.182.07-1.179-.558.002-.28.414-.411.683-.486.512-.143 1.059-.086 1.586-.147.116-.014.226-.055.34-.078.89-.181 1.786-.336 2.672-.535.22-.049.67.015.644-.209-.027-.228-.452-.114-.68-.1a38.235 38.235 0 0 0-3.13.325c-.657.094-1.29.443-1.953.401-.325-.02-.755-.25-.79-.574-.034-.31.36-.563.654-.665.536-.187 1.13-.103 1.696-.154 3.011-.275 4.639-.371 7.621-.852.707-.114 1.399-.307 2.1-.447.111-.022 1.507-.188 1.514-.42.008-.256-.512-.03-.765 0-1.109.128-2.208.33-3.315.472-1.24.16-2.487.263-3.726.434-1.348.185-2.683.461-4.033.634-.691.089-1.39.202-2.086.15-.185-.013-.404-.157-.442-.338-.106-.5.194-.814.597-.909.137-.032.283.005.423-.004a23.22 23.22 0 0 0 1.28-.108c.744-.09 1.48-.233 2.225-.319 1.74-.2 3.49-.3 5.224-.541.9-.126 1.887-.097 2.67-.56.554-.326-1.284.063-1.925.12-2.062.183-4.117.448-6.182.601-.997.074-2.006.21-2.997.08-.39-.05-1.05-.209-1.016-.6.037-.42.703-.536 1.121-.588 2.084-.26 4.194-.201 6.29-.335.04-.003.141-.073.1-.074-1.46-.006-2.92.06-4.38.054-.928-.004-1.854-.052-2.78-.084-.06-.002-.12 0-.176-.018a.429.429 0 0 1-.26-.228c-.024-.054-.067-.121-.038-.172.32-.582.498-.521 1.169-.545 1.263-.043 2.527-.047 3.79-.064.366-.004.731.02 1.096 0 1.036-.056 2.075-.108 3.106-.23.045-.005.045-.13 0-.135-.352-.046-.71.026-1.063 0-1.312-.098-2.618-.28-3.93-.371-.332-.023-.665.009-.997.026-.784.041-1.574.265-2.35.15-.285-.043-.638-.308-.626-.596.01-.277.395-.457.67-.491 1.16-.142 2.336-.036 3.504-.02.735.01 1.468.112 2.202.1.215-.003.821-.053.627-.144-.64-.3-1.353-.45-2.056-.523-.23-.024-.418.24-.648.238-1.337-.01-2.698.024-4.001-.272-.275-.063-.272-.493-.419-.734-.064-.104-.098-.257-.213-.3-.368-.14-1.852-.116-2.004-.892-.05-.254.25-.498.485-.608 1.206-.566 2.508-.9 3.75-1.381.128-.05.373-.07.357-.207-.017-.146-.257-.16-.402-.18-.513-.074-1.04-.016-1.551-.1-.21-.036-.43-.11-.589-.254-.117-.107-.168-.283-.174-.441-.007-.2.27-.303.41-.3.8.009 1.6.05 2.398.106.549.04 1.094.12 1.64.18.348.037.694.11 1.044.11a7.012 7.012 0 0 0 1.277-.115c.088-.017.216-.078.212-.168-.005-.091-.138-.136-.228-.154-.64-.127-1.291-.179-1.936-.275-.856-.13-1.74-.139-2.565-.401-.267-.085-.655-.331-.584-.601.074-.282.53-.314.82-.301 2.226.096 3.918.69 6.087.862.527.041 1.82.43 1.586-.045-.285-.58-1.23-.416-1.867-.527-.883-.155-1.79-.127-2.675-.268-1.27-.202-2.517-.529-3.782-.76-.272-.05-.844-.001-1.122-.203-.276-.2-.54-.762.094-.948.398-.117.83.05 1.24.12 1.56.266 3.12.533 4.664.885.706.161 1.384.43 2.074.652.039.013.07.047.11.054.04.007.08-.015.12-.014.586.002 1.174-.037 1.757.023.549.056 1.08.227 1.624.322.164.029.756.089.786-.227.014-.152-.245-.198-.393-.233-.57-.132-1.157-.17-1.734-.263-2.945-.474-4.553-.832-8.053-1.596-.733-.16-1.496-.247-2.182-.55-.208-.092-.388-.35-.366-.577.021-.205.26-.408.466-.406.698.006 1.367.284 2.05.428 1.535.326 3.07.65 4.603.982 1.108.24 2.214.488 3.32.733.228.05.453.118.683.153 1.137.173 2.271.366 3.416.471.326.03 1.264.096.98-.067-.464-.267-1.056-.18-1.582-.279-.54-.1-1.08-.204-1.617-.321a212.264 212.264 0 0 1-3.946-.894c-.551-.131-1.092-.302-1.642-.439-1.327-.329-2.657-.64-3.986-.957-.552-.132-1.106-.254-1.657-.39-.08-.02-.188-.011-.237-.079-.167-.23-.481-.502-.377-.767.101-.261.513-.336.79-.289 1.723.295 3.383.885 5.083 1.295.045.01.171-.013.133-.038a5.16 5.16 0 0 0-.952-.501c-.902-.353-1.827-.647-2.748-.947-.457-.15-.93-.247-1.384-.401-.124-.042-.279-.073-.347-.185-.218-.358-.336-1.031.453-.831 1.437.365 2.802.969 4.213 1.424.253.081.519.114.775.185 2.195.608 4.369 1.3 6.58 1.85.25.063.869.221.772-.017-.122-.298-.605-.221-.91-.32-.173-.057-.366-.06-.526-.146-.16-.086-.29-.223-.413-.356a.326.326 0 0 1 .095-.51c.06-.028.13-.018.196-.024.28-.027 1.102.03.84-.075-1.234-.494-5.297-1.703-6.084-2.008zm66.094 40.385.002-.001c.002-.001.008.007.006.006l-.008-.005zm-22.706-9.812c.353 0 .63-.168.916-.355.89-.583 1.708-1.27 2.69-1.725.637-.3 1.032-.92 1.495-1.44-.332.045-.583.2-.834.365a8.238 8.238 0 0 1-1.158.692c-.24.106-.598.172-.744-.173-.138-.323.131-.49.374-.61a7.015 7.015 0 0 0 1.624-1.061c.2-.178.38-.387.602-.52.956-.565 1.654-1.439 2.562-2.073.947-.662 1.564-1.66 2.072-2.71.24-.497.42-1.015.659-1.504.1-.212.282-.411.556-.315.252.088.24.342.23.558a.968.968 0 0 1-.095.383c-.603 1.171-1.424 2.204-2.047 3.365-.423.791-1.174 1.358-1.808 2.004-.213.218-.42.541-.171.734.27.21.402-.214.584-.376.078-.071.1-.2.144-.314.068-.179.179-.35.347-.412.416-.157.68-.471.947-.793.17-.205.376-.315.603-.124.227.19.337.049.478-.117.574-.683.991-1.462 1.396-2.248.047-.091.147-.194.031-.31-.033.014-.072.018-.091.04-.152.17-.215.546-.546.351-.33-.194-.108-.465 0-.701.36-.79.676-1.598.947-2.422.246-.793.287-1.641.685-2.396.214-.4.215-.86.216-1.317a15.52 15.52 0 0 1 .118-1.696c.035-.308.157-.643.557-.549.332.08.351-.109.357-.3.028-.879.255-1.752.069-2.636a5.606 5.606 0 0 1-.1-1.345c.027-.882-.249-1.711-.455-2.551-.036-.147-.078-.327-.332-.412.081.608.147 1.181.238 1.75.055.398.065.801.03 1.202-.01.138-.065.27-.234.275-.14 0-.201-.1-.236-.221-.075-.29-.132-.586-.213-.876-.36-1.283-.385-2.641-.87-3.898-.088-.229-.208-.476-.007-.71.23-.267.427.034.697.122-.252-.946-.786-1.67-1.13-2.477-.3-.714-.86-1.261-1.27-1.904-.345-.547-.65-1.132-1.049-1.635-.992-1.252-1.98-2.505-3.355-3.407-1.449-.955-2.64-2.288-4.384-2.812-1.1-.33-2.01-1.14-3.168-1.343-.738-.13-1.472-.26-2.18-.526-.853-.322-1.777-.043-2.634-.224-1.737-.369-3.424.011-5.123.182-.664.068-1.356.1-1.976.318-1.68.59-3.406 1.055-4.981 1.94-1.343.755-2.58 1.658-3.85 2.514-.917.617-1.608 1.503-2.342 2.313-.833.924-1.607 1.904-2.223 3.006-.616 1.103-1.295 2.187-1.746 3.395-.684 1.83-1.327 3.642-1.469 5.63-.115 1.62-.15 3.24-.195 4.86-.038 1.335.375 2.63.628 3.935.19.98.64 1.89.973 2.83.655 1.847 1.783 3.425 2.803 5.058.45.72 1.206 1.24 1.714 1.932 1.105 1.503 2.592 2.6 4.119 3.539 1.526.94 3.067 1.855 4.84 2.369 1.732.5 3.42 1.102 5.242 1.223 2.125.138 4.24.182 6.328-.323.437-.106.923-.095 1.317-.282.982-.467 2.072-.61 3.045-1.09.642-.317 1.515-.3 1.707-1.243.033-.155.249-.21.394-.291.416-.234.857-.43 1.19-.794-.868.295-1.585.882-2.41 1.259-.651.3-1.25.714-1.982.81-.263.035-.576.116-.68-.231-.103-.347.16-.448.423-.57.388-.179.86-.2 1.149-.574zm6.48 17.893v-.001h-.001zm-.228-.95c-.313-.718-.627-1.457-1.12-2.06-.846-1.032-1.89-1.877-2.554-3.094-.462-.85-.583-1.68-.502-2.57.107-1.242.068-2.438-.644-3.52-.238-.362-.502-.702-.732-1.074-.376-.612-1.044-.845-1.7-.521-.567.278-1.166.471-1.748.71-.177.072-.217.158-.09.288.375.381.647.845 1.039 1.217.923.877 1.406 2.004 1.697 3.213.188.79.201 1.631.454 2.396.453 1.36 1.351 2.343 2.725 2.924.826.35 1.682.686 2.31 1.436.398.475.65 1.034 1.092 1.604.1-.437-.113-.688-.227-.949zm-52.15-51.726c.278.1.553.277.834.283 1.134.025 2.244.29 3.39.243 1.146-.047 2.337-.023 3.415.55.179.093.37.159.569.193 1.004.18 1.808.773 2.592 1.356.841.626 1.719 1.102 2.745 1.366.63.16 1.27.032 1.885.214.472.14.916-.064 1.088-.524.1-.227.219-.445.355-.652.185-.323.472-.69.2-1.062-.315-.428-.712-.765-1.29-.876-.854-.165-1.677.164-2.539.045-1.17-.161-2.287-.4-3.35-.939-1.43-.723-2.919-1.202-4.57-.913-.853.149-1.723.163-2.569.401a6.608 6.608 0 0 1-2.731.167zm65.943 16.74c.885.025 1.62.045 2.353.069.863.028 1.73.29 2.592.048.454-.128.93-.154 1.395-.076 1.459.238 2.925.28 4.398.27.267 0 .534.028.804.024a.201.201 0 0 0 .217-.172c.007-.1-.09-.131-.166-.161a4.821 4.821 0 0 0-.826-.2c-1.012-.211-2.05-.27-3.055-.526-1.522-.385-3.032-.828-4.59-1.066-1.556-.237-3.158-.292-4.665-.827-.882-.314-1.838-.284-2.712-.616-.258-.1-.415.064-.387.301.108.893.119 1.788.146 2.683.01.335.148.457.474.249.189-.12.42-.078.636-.1 1.178-.135 2.35.261 3.386.1zm-1.852 27.743c-.49-.401-.988-.794-1.474-1.203-1.525-1.271-2.605-2.943-3.94-4.385a77.414 77.414 0 0 1-2.162-2.415c-.618-.727-1.306-1.423-1.918-2.16-.473-.569-1.068-.586-1.674-.063-.49.423-.798 1.03-1.42 1.323-.463.217-.47.41-.045.701 1.285.866 2.585 1.709 3.863 2.584.402.273.845.447 1.237.748 1.03.794 2.082 1.561 3.186 2.256l1.942 1.22c.616.39 1.162.887 1.736 1.34.235.186.45.395.692.573.097.072.252.137.299-.08-.041-.2-.18-.322-.322-.44zm9.99-42.99c-.797-.137-1.617-.129-2.331.13-.857.313-1.66.702-2.604.735-.685.025-1.367.1-2.048-.012-.97-.161-1.936-.443-2.913-.477-1.499-.05-3.025.013-4.355.852-1.24.782-1.553 1.027-.817 2.29.017.029.036.056.051.086.502.983.481.943 1.44.414.883-.488 1.708-1.089 2.755-1.276a8.294 8.294 0 0 1 2.696-.075c1.902.288 3.436-.601 5.022-1.357.539-.257 1.014-.637 1.6-.817.502-.154 1.038-.2 1.503-.492zM248.52-1.096c-.08.014-.157.035-.232.063-1.165.56-2.144 1.403-3.156 2.18-.725.552-1.479 1.079-2.21 1.625-1.075.801-2.15 1.626-3.288 2.356-.459.294-.963.538-1.371.912-.408.375-.47.745-.1 1.066.553.478 1.08.985 1.579 1.518.33.357.614.323.927-.049.418-.5.844-.993 1.231-1.515.703-.953 1.593-1.751 2.318-2.69.987-1.28 2.03-2.516 3.084-3.742.456-.53.88-1.078 1.318-1.617zm-47.748 35.807c-.365-.646-.578-1.346-.739-2.065-.065-.295.018-.707-.372-.802-.413-.1-.603.279-.823.545a1.66 1.66 0 0 0-.18.301c-.874 1.709-2.175 2.97-4.024 3.533a10.202 10.202 0 0 0-4.49 2.79c-1.093 1.146-1.954 2.483-2.973 3.69-.08.094-.218.231-.07.342.13.1.232-.065.336-.142.38-.282.64-.677.941-1.032.792-.934 1.83-1.594 2.712-2.434.59-.562 1.265-1.133 2.05-1.42 1.449-.53 2.884-1.137 4.486-1.119 1.066.012 2.07-.311 3.013-.813.26-.137.429-.316.397-.602 0-.306-.133-.54-.264-.772zm7.28 29.15c.063-.077.109-.14.16-.2.407-.467.406-1.119.743-1.625.218-.328.497-.654.508-1.072.02-.733.132-1.497-.03-2.193-.247-1.064-.079-2.044.196-3.05a5.756 5.756 0 0 1 1.674-2.785c.445-.402.81-.884 1.076-1.42.37-.76.385-1.583.573-2.37.152-.632-.132-.995-.726-1.267-.286-.131-.603-.19-.86-.4-.224-.182-.383-.044-.444.183-.037.18-.052.363-.043.546 0 1.079-.379 2.056-.847 2.999-.468.943-1.176 1.743-1.6 2.705-.218.501-.587.943-.565 1.528.048 1.372.35 2.705.665 4.03.157.663.3 1.294.112 1.959-.176.606-.25 1.242-.541 1.817-.085.17-.181.363-.052.616zm51.638-18.476c.148.015.274.06.31-.068.046-.167-.108-.24-.221-.289-1.073-.46-2.11-1.04-3.263-1.261-1.448-.279-2.727-.701-3.86-1.784-1.298-1.247-2.543-2.546-3.817-3.812-.737-.732-1.558-1.319-2.563-1.59-.75-.2-1.171.05-1.445.758-.18.467-.361.93-.686 1.323-.1.122-.232.273-.117.449.095.146.273.121.416.1.793-.1 1.52.187 2.249.413 1.584.49 2.863 1.52 4.063 2.587 1.2 1.066 2.574 1.56 4.094 1.803 1.484.243 2.964.493 4.32 1.187.168.075.342.137.52.184zm-37.145 17.588c-.132-2.39.16-4.788-.19-7.181-.206-1.414-.082-2.856-.119-4.285-.017-.675-.173-.893-.827-.944-.565-.043-1.136-.018-1.707-.02-.314 0-.441.2-.37.458.236.869.33 1.769.574 2.63.234.831.44 1.669.602 2.512.201 1.024.238 2.08.467 3.096.383 1.703.59 3.445 1.217 5.085.203.534-.016 1.149.427 1.63-.192-.99-.02-1.986-.075-2.981zm9.271-60.223c.34-.687.562-1.428.972-2.081.432-.688.704-1.467 1.318-2.05a4.728 4.728 0 0 0 1.475-2.824 17.98 17.98 0 0 0 .213-2.79c-.025-1.672.35-3.234 1.248-4.659.089-.142.209-.315.02-.44-.206-.137-.339.036-.434.2-.183.319-.346.648-.536.962a6.001 6.001 0 0 0-.904 2.916 51.052 51.052 0 0 1-.112 1.995 3.241 3.241 0 0 1-.762 1.92 13.365 13.365 0 0 1-1.868 1.804c-.61.48-1.306.874-1.746 1.549-.574.884-.828 1.956-1.628 2.711-.162.154-.285.447.01.601.625.325 1.31.488 1.938.678.384-.038.628-.154.796-.492zm-46.401 23.052.003-.003h-.002zm1.66.065c.87-.209 1.737-.214 2.624-.248 2.22-.085 4.439-.211 6.662-.243.767-.011 1.535-.064 2.302-.09.334-.012.503-.158.57-.5.143-.701.213-1.414.21-2.129 0-.701-.073-.781-.766-.584-.658.188-1.29.477-1.97.576-1.728.252-3.356.882-5.023 1.349-1.8.5-3.556 1.161-5.424 1.423-.274.043-.561.09-.842.378.602 0 1.138.192 1.657.068zm34.8-38.014.004.003v-.006zm-.618 3.061a70.789 70.789 0 0 1-.89 5.76c-.323 1.615-.81 3.196-.994 4.84-.046.413.059.61.472.623.574.017 1.125-.11 1.683-.228.557-.117.703-.42.717-.953.035-1.47-.18-2.933-.1-4.4.053-1.034-.216-2.058-.064-3.094a7.39 7.39 0 0 0 .008-2.095c-.127-.93-.181-1.854 0-2.783.04-.22.093-.46-.21-.728-.11 1.1-.502 2.052-.622 3.058zm-25.306 6.763h.004v-.007zm.27.417c.914.882 2.037 1.503 2.943 2.404 1.031 1.04 2.097 2.042 3.127 3.083 1.406 1.417 2.889 2.76 4.295 4.18.166.167.341.328.615.2a4.747 4.747 0 0 0 1.521-1.125c.147-.161.216-.369.042-.54a5.853 5.853 0 0 0-.868-.745c-.724-.47-1.478-.89-2.181-1.402a53.107 53.107 0 0 0-2.6-1.77C201.93 1.613 200.723.876 199.601 0c-.944-.733-2.076-1.202-2.98-2.014a1.37 1.37 0 0 0-.665-.309c-.01.23.152.308.265.417zm13.755-3.386h.004v-.007zm.284 1.648c.183.627.1 1.246-.056 1.823-.578 2.18-.674 4.301.475 6.345.193.344.638.602.954.447.427-.22.843-.463 1.246-.727.201-.126.226-.31.12-.522a6.993 6.993 0 0 1-.75-2.806c-.03-.57.03-1.128.048-1.69a3.761 3.761 0 0 0-.57-2.196c-.427-.674-.955-1.281-1.322-1.996a.593.593 0 0 0-.425-.325c-.014.598.13 1.13.28 1.647zm-5.056 46.01c-.366-.552-.71-1.128-1.22-1.562-.202-.168-.454-.069-.541.163-.213.569-.634 1.013-.877 1.568-.39.903-.825 1.786-1.306 2.644-.533.94-1.022 1.903-1.624 2.805-.72 1.08-1.374 2.205-2.045 3.32-.137.228-.474.564-.247.723.318.224.487-.22.64-.447.804-1.172 1.708-2.262 2.57-3.385.584-.759 1.313-1.372 1.894-2.13.778-1.016 1.497-2.087 2.47-2.941a.99.99 0 0 0 .315-.605.437.437 0 0 0-.03-.153zm46.68 13.453c-.745-1.217-1.982-1.963-2.884-3.031-.301-.358-.544-.757-.857-1.102-1.14-1.262-2.304-2.505-3.34-3.852a19.891 19.891 0 0 0-1.9-2.104 18.309 18.309 0 0 1-1.724-1.86c-.074-.101-.128-.29-.29-.201-.126.068-.092.244-.06.37.116.47.416.842.74 1.173 1.063 1.083 2.2 2.091 3.164 3.27a51.974 51.974 0 0 0 2.79 3.143c.832.862 1.507 1.867 2.459 2.627a5.57 5.57 0 0 1 1.205 1.393c.25.401.582.613 1.028.902-.136-.479-.167-.46-.33-.728zm9.01-34.302c-1.33.33-2.719.285-4.074.469-1.435.195-2.85.538-4.3.634-.898.06-1.792.147-2.683.27-.224.03-.453.027-.627.244 4.968-.02 9.841-.831 14.698-1.78-1.015-.075-2.009-.087-3.013.163zm-20.507 43.03c-.283-1.042-.569-2.075-1.105-3.034-.603-1.072-1.442-1.96-2.194-2.906-.789-.989-1.26-2.064-1.6-3.238-.057-.2-.058-.501-.374-.4-.273.081-.201.342-.148.556.021.081.058.157.076.239.41 1.816 1.62 3.146 2.747 4.533.893 1.102 1.799 2.191 2.098 3.645.077.37.129.778.356 1.122.224-.151.188-.357.144-.518zm14.694-46.636c-.135-.172-.308-.1-.478-.06-.874.221-1.748.448-2.65.512-.75.053-1.507.1-2.223.33-.817.262-1.7.39-2.368 1.002-.228.209-.603.501-.402.758.201.256.585-.035.836-.214 1.004-.724 2.185-1.008 3.372-1.154 1.223-.15 2.362-.569 3.533-.888a.503.503 0 0 0 .38-.282zm-67.844 8.978c1.637.009 3.279-.045 4.911.052 1.967.117 3.927.242 5.884-.041.302-.043.833.181.842-.188.007-.262-.592-.227-.933-.215-1.417.053-2.835.2-4.25.176-2.203-.04-4.407-.091-6.612-.077-.278-.001-.563-.032-.889.144.338.108.692.158 1.047.149zm68.25 13.827a.544.544 0 0 0-.267-.364c-.301-.2-.649-.359-.917-.601a78.918 78.918 0 0 1-2.332-2.194c-1.348-1.314-2.936-2.23-4.692-2.878-.175-.065-.388-.125-.47.11-.075.217.129.268.288.326.454.165.915.316 1.359.5 1.292.553 2.356 1.436 3.38 2.37.848.773 1.673 1.57 2.522 2.342.229.195.478.365.743.506.15.096.33.118.386-.117zm-32.211-39.22c.056-.634.291-1.117.269-1.653-.06-1.412.135-2.823 0-4.237-.07-.76.048-1.555-.063-2.28-.191-1.235-.065-2.46-.154-3.683-.014-.21.04-.429-.13-.693-.114.865-.074 12.117.078 12.546zm-.12 61.521c-.076.654.065 1.195.092 1.744 0 .08.015.184.122.189.108.005.139-.085.146-.17.021-.148.026-.299.013-.448a7.721 7.721 0 0 1-.084-1.796c.17-2.01.126-4.027.14-6.039.011-1.548-.07-3.098.007-4.647a2.8 2.8 0 0 0-.053-.501c-.011-.08-.01-.184-.118-.193-.135-.011-.15.107-.167.2a1.508 1.508 0 0 0-.015.25c-.04 3.84.086 7.678-.086 11.411zm27.725-47.043c-.94-.1-1.83.151-2.713.39-.595.16-1.183.374-1.68.761-.201.156-.425.363-.23.626.172.231.39.042.577-.065 1.329-.758 2.749-1.192 4.289-1.21.55-.006 1.105.044 1.643-.133.172-.057.485-.024.436-.3-.044-.247-.332-.163-.52-.162-.609.006-1.204.15-1.808.093zm.456 22.8.018.017-.012-.017zm1.491 1.887c1.188 1.102 2.49 1.889 4.106 2.124a9.39 9.39 0 0 1 2.195.636c.268.11.515.295.919.266-.201-.29-.395-.487-.654-.606a7.482 7.482 0 0 0-1.655-.561c-.539-.109-1.09-.174-1.615-.33-1.023-.3-1.901-.885-2.704-1.578-.693-.604-1.38-1.215-2.065-1.821.49.642.88 1.32 1.473 1.87zm-4.042 10.33c-.37-.702-.91-1.265-1.406-1.865-.921-1.12-1.909-2.185-2.855-3.278-.703-.801-1.278-1.711-2.072-2.433-.1-.09-.201-.3-.359-.153-.133.125.007.28.1.394.876 1.07 1.74 2.15 2.635 3.206.733.864 1.506 1.696 2.258 2.543.521.574.973 1.217 1.7 1.585zm-24.27 9.876c.217-.757.175-1.546.2-2.312.067-2.198.026-4.4.024-6.599 0-.2.008-.423-.18-.593-.27.496-.333 8.818-.045 9.504zM236.75-6.31c-.136.3-.122.63-.152.955-.1 1.102-.297 2.177-.772 3.192-.475 1.015-1.33 1.786-1.855 2.776-.412.775-1.018 1.454-1.157 2.361-.023.153-.118.391.083.432.18.036.264-.2.255-.363-.023-.438.216-.756.44-1.089.379-.566.779-1.12 1.123-1.703.395-.672.765-1.365 1.176-2.023.85-1.358 1.005-2.838.985-4.372a.142.142 0 0 0-.125-.166zm20.222 37.515h-.001zm7.624 1.083c-.755-.572-6.98-1.484-7.623-1.083.817.35 7.18 1.244 7.623 1.083zm-35.865 33.754a59.013 59.013 0 0 0-.968-8.909zm-16.683-9.18c.41-.453.572-1.001.921-1.41a15.78 15.78 0 0 0 2.634-4.498c.138-.35.325-.701.29-1.102-.011-.12-.033-.24-.185-.254a.165.165 0 0 0-.178.144c-.157.774-.663 1.41-.84 2.185-.21.926-.703 1.726-1.342 2.42a8.991 8.991 0 0 0-1.163 1.62c-.142.253-.255.531-.137.896zm13.503-3.383v.902c.007.482.011.965.032 1.447.005.127.043.3.209.3.166 0 .136-.164.146-.275.039-.43.053-.864.114-1.29.142-.982-.015-1.999.347-2.954.05-.133.192-.314.01-.396-.22-.1-.448-.27-.703-.2-.196.051-.165.267-.166.43 0 .673.003 1.355.003 2.036zm-25.97-2.134c.53-.824 1.373-1.352 1.962-2.117 1.019-1.322 2.149-2.543 3.292-3.757.445-.47 1.032-.868 1.163-1.658-1.013.738-6.247 6.849-6.417 7.532zm36.12.359a.235.235 0 0 0-.095.266c.18 1.303.248 2.628.64 3.89.267.862.662 1.68 1.406 2.261.092.072.23.22.349.09.12-.129-.045-.234-.12-.334-.643-.868-1.167-1.79-1.322-2.88-.162-1.123-.658-2.157-.856-3.292zm17.057-15.248c-1.56-1.342-3.277-2.384-5.352-2.72-.142-.023-.348-.084-.402.078-.065.185.16.21.278.285.413.261.91.165 1.353.322 1.156.41 2.19 1.034 3.201 1.717.55.375.932.94 1.591 1.38-.2-.501-.365-.802-.669-1.063zM237.873 2.949c1.499-2.047 2.182-4.416 3.294-6.577-.348.3-.544.694-.762 1.075-.388.679-.525 1.475-1.005 2.105-.38.492-.65 1.046-.925 1.595-.098.23-.242.437-.424.608-.387.315-.422.685-.178 1.191zM224.735-.058c.077-1.61-.094-3.223-.012-4.835.011-.218-.024-.552-.301-.545-.215.006-.22.335-.26.54a3.005 3.005 0 0 0-.02.45c-.053 1.236.22 2.453.229 3.686a2.5 2.5 0 0 0 .217 1.05c.156-.11.142-.233.147-.346zm9.352 3.789a1.46 1.46 0 0 0 .562-.739c.324-1.102.963-2.039 1.556-3 .331-.538.685-1.063 1.01-1.603.08-.136.28-.348.05-.47-.2-.107-.249.156-.323.29a12.236 12.236 0 0 1-1.325 1.996c-.857 1.02-1.253 2.241-1.53 3.526zm-32.733 33.458c-.365 0-.363 0-.703.163-1.279.61-2.612 1.002-4.045.968a7.195 7.195 0 0 0-1.397.1c-.708.12-1.854.71-2.1 1.103a1.28 1.28 0 0 0 .201-.037c.096-.03.188-.07.273-.123.916-.618 1.96-.774 3.014-.733 1.325.05 2.532-.375 3.74-.794a2.45 2.45 0 0 0 1.017-.647zm.66 13.039c.654-.236 4.987-4.902 5.142-5.528-.542 0-.785.41-1.04.756-.803 1.103-1.79 2.047-2.611 3.132-.441.578-1.093.972-1.49 1.64zM211.12-5.97c-.92-1.359-1.745-2.758-1.87-4.451-.011-.143-.042-.343-.231-.33-.166.012-.13.2-.142.33a1.444 1.444 0 0 0 0 .25c.193 2.014 1.242 3.556 2.733 4.823-.163-.207-.342-.4-.49-.622zM206 9.018a.918.918 0 0 0-.288-.388 29.725 29.725 0 0 1-3.175-2.978c-.133-.142-.32-.44-.503-.255-.162.161.09.394.25.527 1.105.924 2.009 2.044 3.04 3.043.12.116.228.253.41.27.146.017.27-.016.266-.219zm32.747-5.246c1.299-1.588 2.01-3.49 2.89-5.303zm-43.72 11.79c1.522 1.333 3.255 2.06 5.392 1.624-1.856-.363-3.822-.423-5.282-1.898zm-.657 24.543c.552-.123.97-.401 1.436-.377 1.474.076 2.892-.166 4.285-.633.62-.209 1.158-.54 1.727-.966-.391.03-.38.054-.747.23-1.105.527-2.229.957-3.487.973-.903.025-1.8.164-2.668.415a.876.876 0 0 0-.546.358zM212.021-4.48c1.063 1.441 1.297 3.099 1.277 4.826-.02.388.063.775.244 1.12.056-.301.29-.573.172-.867-.332-.83-.223-1.71-.315-2.563-.122-1.15-.7-2.04-1.388-2.96-.152.222-.065.341.01.444zm24.683 54.695c-.13-.26-.209-.747-.56-.622-.201.073.039.537.14.81.34.931.952 1.767.952 2.816 0 .166.063.427.28.412.249-.017.148-.284.21-.532-.276-.933-.553-1.943-1.022-2.884zm8.742-4.981c-.392-.596-.685-1.249-1.182-1.763-.465-.48-.703-1.139-1.212-1.582-.14-.122-.334-.244-.495-.1-.2.186.026.326.133.453.684.819 1.368 1.636 2.068 2.44.188.217.365.465.688.552zm-2.09-33.59c.38-.7.76-1.392 1.361-1.953.596-.552 1-1.28 1.15-2.077-1.021 1.392-2.301 2.612-2.894 4.385.286-.066.316-.228.384-.355zm.919-5.712.002.004.002-.004zm-2.238 2.7c-.209.29-.491.5-.703.78-.096.128-.15.284-.023.41.154.156.269.008.378-.092.038-.033.066-.076.1-.112.928-.963 1.56-2.15 2.412-3.172.078-.099.197-.23.076-.51-.626 1.058-1.566 1.762-2.24 2.696zm-45.174 31.965a24.819 24.819 0 0 0 5.36-1.47zm38.375-36.555c-.012.128-.056.244.06.295.117.051.19-.051.233-.136.097-.175.173-.36.227-.552.15-.676.454-1.28.803-1.866.292-.485.584-.969.873-1.455.042-.07.1-.16.01-.223-.09-.064-.148 0-.206.072a9.995 9.995 0 0 0-1.567 2.575c-.18.426-.296.88-.433 1.29zm8.067 5.337v-.002zm.311-.202c.307-.395.622-.784.923-1.183a97.11 97.11 0 0 0 1.306-1.77c.093-.127.27-.312.119-.436-.201-.163-.328.1-.423.218a49.115 49.115 0 0 0-1.689 2.232c-.228.332-.355.734-.546 1.139.188-.008.242-.112.31-.2zm9.421 21.03c-.264-.035-.527-.075-.792-.101-1.306-.132-2.633-.11-3.94-.292-.351-.049-.74.085-1.026-.258-.093-.11-.172 0-.207.107-.095.279.085.478.383.47.603-.017 1.234-.1 1.82.007.979.187 1.961.043 2.936.151.28.017.562.018.842.003zm4.888-5.357c2.041.148 3.958-.159 5.883-.242-.302-.236-5.495-.035-5.884.24zM215.196 2.953c-.173-1.7-.32-3.347-.803-4.947-.1 1.45.402 4.615.803 4.947zm35.192 14.332c-1.532-.115-2.812.383-3.806 1.572-.08.1-.254.2-.125.323.128.124.244-.05.32-.14.702-.835 1.676-1.15 2.68-1.435.413-.117.845-.07 1.266-.2-.1-.157-.228-.112-.335-.12zm-56.85 10.891c.46.021.81.162 1.185.092a5.903 5.903 0 0 1 1.792-.01c.53.071 1.066.065 1.594-.018.1-.017.275-.014.273-.162 0-.182-.182-.158-.307-.17a3.59 3.59 0 0 0-.402 0l-3.487.1a1.159 1.159 0 0 0-.649.168zm3.39-10.22a.222.222 0 0 0 .135.238c.627.313 1.27.59 1.972.677.232.02.466.016.697-.016.174-.018.334-.11.34-.307.008-.227-.184-.257-.351-.261a3.81 3.81 0 0 0-.797.03c-.546.106-1.053.084-1.528-.248-.124-.086-.273-.204-.468-.113zm19.724-22.029c-.208.227-.14.401-.142.552 0 1.035.377 2.027.344 3.07-.01.301.163.494.426.732-.208-1.443-.277-2.88-.628-4.354zm34.027 32.825c-.904-.158-1.755-.374-2.641-.2a.517.517 0 0 1-.418-.12c-.114-.083-.244-.137-.355 0a.466.466 0 0 0-.087.47c.074.2.215.06.336.047a7.21 7.21 0 0 1 .744-.052c.798-.014 1.597.053 2.42-.145zm-57.63 14.068a17.204 17.204 0 0 0-4.36 2.605zm19.1 11.4c-1.004.483-1.625 2.035-1.292 3.122zm37.716-22.987c-.793.1-1.593.041-2.388.086a.866.866 0 0 0-.463.169c-.084.06-.147.139-.1.252a.19.19 0 0 0 .209.1c1.001-.092 1.999-.198 2.968-.543a.617.617 0 0 0-.226-.064zM229.522-8.254c-.36 1.677-.764 3.35-.708 5.085zM214.28 49.204c-.2.095-.187.245-.174.368.058.59-.123 1.115-.402 1.622-.177.321-.323.659-.477.993-.1.207-.181.419 0 .757.64-1.225 1.288-2.336 1.053-3.74zm42.78-20.28c-1.672-.176-3.34-.288-5.012-.128 1.67.145 3.34.263 5.012.129zM202.564 8.066a.19.19 0 0 0 .07.093c.424.317.676.762.932 1.21.201.326.458.614.76.85.115.1.27.188.402.072.167-.144 0-.26-.08-.377-.534-.747-1.357-1.217-1.9-1.958a.127.127 0 0 0-.185-.005.185.185 0 0 0 .001.115zm13.139 44.894.1.081a.945.945 0 0 0 .214-.105c.785-.651.755-1.656 1.08-2.505a.179.179 0 0 0-.08-.156c-.13-.036-.173.086-.201.171-.128.41-.222.826-.45 1.203-.251.416-.444.87-.663 1.308zM201.075 4.374c-1.012-1.367-2.253-2.514-3.497-3.657zm44.318 24.797c-.564.922-.74 2.161-.43 3.04zM201.923 9.34c.35.688.636 1.383 1.354 1.753.084.044.187.134.273.059.123-.107.017-.223-.051-.301-.417-.501-.84-.987-1.266-1.476-.054-.068-.135-.102-.31-.035zm-2.063 6.722c.166 0 .335.011.502 0 .134-.012.358.034.34-.172-.016-.16-.22-.111-.343-.088-1.126.215-2.14-.148-3.141-.592-.1-.045-.224-.17-.296-.016-.06.132.094.189.194.246.852.476 1.794.57 2.744.621zm1.465-9.506c-.402-.85-1.053-1.47-1.817-1.994zm53.145 10.318c1.04-.157 1.959-.648 2.883-1.118a.117.117 0 0 0 .072-.122.118.118 0 0 0-.016-.048c-.075-.1-.176-.057-.267-.014-.421.2-.828.42-1.27.573-.496.172-.975.388-1.46.586zm-55.395 35.02-.14-.123c-.695.929-1.667 1.614-2.283 2.612l.181.158z"/><path fill="#a87104" d="M218.44 59.757c-.232 1.19-.231 2.458-.488 3.707-.336 1.629-.555 3.28-.833 4.92-.052.26-.12.516-.201.769-.064.221-.17.42-.448.37-.261-.048-.395-.239-.426-.494-.01-.1 0-.2.03-.295.28-.877.25-1.804.474-2.693a.988.988 0 0 0-.04-.685.421.421 0 0 1-.026-.338c.452-1.218.688-2.481.848-3.765.07-.56.187-1.113.213-1.682.016-.34.217-.758.55-.73.495.04.261.547.347.916zM190.681 15.864c.466.368 1.073.349 1.595.567.213.09.388.191.474.409.063.161.081.33-.035.476-.115.145-.275.074-.416.037-1.628-.431-3.28-.775-4.846-1.415a.25.25 0 0 0-.095-.032c-1.348.066-2.422-.802-3.675-1.067a1.736 1.736 0 0 1-.983-.566c-.24-.28-.138-.548.225-.607.418-.069.795.1 1.162.25 1.249.514 2.541.917 3.862 1.202.405.1.802.235 1.184.401.49.216 1.019.334 1.554.346zM190.21-1.166c.433-.007.702.149.892.381.746.933 1.78 1.544 2.612 2.376.517.517 1.004 1.067 1.49 1.61.126.14.225.314.073.493-.172.2-.37.116-.536-.008-1.708-1.273-3.386-2.576-4.722-4.263-.1-.128-.259-.243-.155-.432a.344.344 0 0 1 .345-.157zM260.267 19.887c-.42-.01-.836-.014-1.244.11-.248.076-.477.068-.567-.23-.089-.3.057-.483.308-.608a.596.596 0 0 1 .239-.07c1.143-.028 2.226-.441 3.36-.524.375-.027.703-.2 1.038-.358.226-.111.48-.15.73-.113.301.047.544.186.584.524.036.314-.155.484-.416.613-.438.21-.911.337-1.396.374-.878.079-1.741.321-2.636.282zM206.67 59.974c-.025.449-.301.812-.567 1.17-.762 1.011-1.282 2.164-1.909 3.252-.152.263-.293.522-.547.701-.255.18-.497.24-.73.015-.233-.224-.327-.474-.13-.761.458-.67.976-1.303 1.372-2.01.409-.729 1.02-1.303 1.414-2.036.136-.23.309-.437.51-.613.109-.1.217-.229.39-.165.191.071.185.252.197.447zM260.048 39.91c.616-.01 1.063.457 1.64.577.436.09.848.3 1.272.45.204.075.391.19.55.34.19.175.27.396.166.633-.116.267-.363.337-.63.29a2.527 2.527 0 0 1-.572-.175c-.853-.378-1.7-.768-2.55-1.153-.03-.014-.062-.026-.091-.042-.254-.14-.542-.294-.458-.631.084-.337.407-.284.673-.289zM189.27-.24c.252.052.513.078.667.309.62.933 1.57 1.523 2.367 2.273.072.068.16.12.229.192.181.194.224.422.055.632-.169.21-.402.2-.63.064-.449-.268-.772-.681-1.175-1.002-.557-.449-1.095-.92-1.638-1.386a.821.821 0 0 1-.315-.655c.01-.27.154-.437.44-.427zM254.48 55.351c-.162-.877-.86-1.313-1.498-1.791-.3-.228-.49-.501-.502-.878-.006-.323.134-.48.471-.342.111.039.216.092.313.16a12.924 12.924 0 0 1 2.11 2.034.671.671 0 0 1-.02.843c-.187.243-.418.122-.637.024a1.294 1.294 0 0 0-.243-.056zM186.07 6.25c.084.019.275 0 .366.091.589.566 1.382.793 2.034 1.249.27.188.665.393.444.77-.21.358-.638.15-.904.02-.82-.402-1.53-1.003-2.35-1.418a.371.371 0 0 1-.21-.462c.095-.25.338-.236.62-.25zM193.304 3.591c.703.313 1.424.729 1.898 1.474a.345.345 0 0 1-.06.456c-.153.148-.302.08-.447-.029-.552-.42-1.047-.916-1.655-1.266a.39.39 0 0 1-.201-.47c.062-.176.212-.194.465-.165zM181.764 22.575c-.28-.075-.684-.067-.704-.47-.013-.294.269-.438.574-.424.305.014.65.065.665.447.011.28-.237.414-.535.447zM239.32 22.11c-.154.048-.307.102-.46.155-.163.057-.325.114-.49.165-.212.065-.442.11-.594-.108-.134-.192-.045-.38.064-.56.43-.709.357-.935-.402-1.292-.747-.35-.76-.352-.895.474-.111.684-.444 1.168-1.112 1.403-.124.05-.24.118-.345.2-1.324.965-3.056.566-4.019-.647l-.082-.104c-.23-.293-.46-.585-.798-.778-.417-.238-.704-.16-.985.228-.824 1.138-1.161 2.417-1.125 3.807.006.244-.018.488-.042.73-.048.48-.095.958.09 1.45a3.054 3.054 0 0 0 1.004 1.403c.652.501.953 1.118.874 1.904-.082.802-.632 1.266-1.327 1.56-.396.166-.732.349-.95.754-.27.5-.774.748-1.315.818-.597.077-.772.448-.84.95a1.366 1.366 0 0 0-.01.113c-.001.045-.004.09-.011.136-.055.306-.228.535-.532.6-.283.06-.384-.15-.48-.352l-.042-.086a1.16 1.16 0 0 1-.138-.477v-.007c-.01-.198-.02-.418-.301-.417a.437.437 0 0 0-.472.424c-.026.334-.123.62-.383.838-.328.276-.634.195-.772-.216a.9.9 0 0 1-.066-.391c.092-.66-.2-1.087-.728-1.464-.566-.406-1.106-.85-1.647-1.292-.209-.171-.418-.343-.628-.512-.559-.447-.697-.96-.49-1.635.136-.5.357-.971.656-1.394.141-.188.301-.32.55-.247a.572.572 0 0 1 .443.54c.015.286-.05.57-.188.82-.175.357-.131.658.271.816.482.188.905.476 1.33.764.402.273.806.548 1.263.739.594.245 1.068.117 1.47-.267a2.877 2.877 0 0 1 1.88-.828c.273-.014.574-.03.608-.447.04-.498-.217-.902-.624-.978-.938-.187-1.01-.89-1.062-1.58l-.036-.48c-.111-1.47-.223-2.94-.178-4.416a14.86 14.86 0 0 1 .816-4.556c.548-1.545 1.607-2.63 2.89-3.593 1.444-1.087 3.1-1.414 4.822-1.558.571-.048 1.14.107 1.671.284 1.6.534 3.062 1.31 4.17 2.634a.693.693 0 0 1 .12.791c-.137.28-.39.217-.617.16l-.049-.012a2.414 2.414 0 0 1-.66-.23c-.381-.227-.763-.313-1.198-.193a.539.539 0 0 1-.39-.021c-.302-.2-.55-.144-.869-.007-.301.128-.584-.02-.658-.407-.09-.48-.55-.647-.852-.267-.42.526-.95.59-1.53.528-.822-.087-1.328.38-1.833.847a6.014 6.014 0 0 1-.577.49.15.15 0 0 0-.025.223.242.242 0 0 0 .274.07l.099-.034c.188-.065.377-.13.557-.212.934-.424 1.92-.408 2.904-.392l.4.005a4.92 4.92 0 0 1 2.598.767c.258.16.525.303.793.446.523.28 1.046.56 1.5.97.4.354.639.709.615 1.234-.01.814-.122.964-.904 1.216zm-6.425-1.521c.411 0 .744-.27.744-.602 0-.332-.333-.6-.744-.6-.41 0-.744.268-.744.6 0 .332.333.602.744.602zM213.924 16.712c-.272-.125-.502-.272-.517-.609-.01-.232-.183-.234-.341-.235h-1.13a26 26 0 0 0-.074 0c-.399.001-.773.002-1.145-.3-.302-.241-.819-.22-1.142.017-.337.247-.695.344-1.07.446l-.072.02c-.56.153-1.074.411-1.59.67-.201.102-.403.203-.607.298-.133.07-.27.134-.408.19-.184.064-.322-.036-.437-.17a.325.325 0 0 1-.03-.416c.027-.043.052-.09.078-.137.09-.167.184-.34.35-.409.386-.163.7-.423 1.016-.684.283-.235.566-.47.904-.636 1.714-.847 3.463-1.516 5.413-1.392 1.552.106 3.07.514 4.465 1.202.84.406 1.473 1.022 2.115 1.648l.106.104c.199.193.312.435.426.678.064.135.127.27.205.397.084.135.162.274.24.413.166.297.333.594.555.857.072.087.16.212.149.309-.039.349.01.695.059 1.04.065.458.13.916-.007 1.382-.082.276-.17.542-.494.532-.325-.01-.514-.242-.509-.571.007-.411-.078-.702-.502-.922-.241-.124-.414-.386-.58-.638a8.03 8.03 0 0 0-.123-.185c-.411-.582-1.011-.89-1.614-1.198l-.285-.147c-.089-.049-.2-.1-.274 0-.1.137.025.222.122.273.655.347 1.038.93 1.421 1.513.156.237.313.475.487.696.514.658.302 1.395-.43 1.786-.15.08-.298.164-.446.247a10.79 10.79 0 0 1-.879.463c-.617.277-1.212.477-1.862.095a.73.73 0 0 0-.443-.043c-.614.09-1.163.154-1.737-.301-.216-.172-.546-.198-.88-.224-.18-.014-.36-.028-.526-.065-.894-.2-1.45-.852-1.968-1.533-.142-.186-.124-.437-.1-.678.049-.409-.134-.574-.524-.462-.47.135-.847.376-.927.929-.08.553-.331.631-.78.31a1.133 1.133 0 0 1-.076-.06l-.003-.003c-1.05-.878-1.046-1.483.052-2.304.744-.556 1.59-.864 2.51-1.058.323-.068.648-.108.974-.148.415-.051.83-.102 1.237-.212a3.309 3.309 0 0 1 1.592-.07c.216.05.436.05.658.05.293 0 .588 0 .877.114-.286-.12-.538-.289-.787-.457-.224-.15-.447-.3-.692-.412zm1.595 5.15a.644.644 0 0 1-.066.09c-.08.104-.168.213-.04.34.121.122.301.025.418-.046.56-.327.955-.823 1.347-1.316.088-.11.175-.221.265-.33.21-.252-.061-.592-.412-.59-.662 0-.889.161-1.042.76a4.228 4.228 0 0 1-.47 1.092zm-3.111-1.437c.417 0 .755-.274.755-.61 0-.338-.338-.611-.755-.611-.418 0-.756.273-.756.61 0 .337.338.61.756.61zM225.217 42.402c-.59-.228-1.16-.511-1.816-.54a1.299 1.299 0 0 1-.602-.22 8.652 8.652 0 0 0-3.725-1.354c-.69-.08-1.332-.323-1.847-.822a1.21 1.21 0 0 0-.895-.375c-.431 0-.644-.271-.62-.683a4.409 4.409 0 0 1 .402-1.644c.207-.436.658-.48.964-.108a.474.474 0 0 0 .03.04c.257.252.142.786.587.872.55.106 1.096-.046 1.635-.15.54-.104 1.005-.363 1.469-.63.388-.224.831-.328 1.195-.613a.905.905 0 0 1 .723-.129c.663.127 1.294.267 2.01.092 1.06-.262 1.984.218 2.827.85.511.383 1.067.667 1.726.729.627.059 1.045-.192 1.37-.712.369-.587.54-.579.991-.026.064.077.132.152.192.232.617.83.302 1.715-.71 1.837a2.888 2.888 0 0 0-1.499.592c-.473.37-1.134.28-1.624.63-.339.242-.703.443-1.043.686-.294.214-.214.58-.277.878-.106.464-.326.727-.804.68-.225.007-.45-.03-.66-.112zm1.826-3.004a.905.905 0 0 0-.716-.061c-1.075.286-2.148.2-3.224.017-.475-.08-.95-.17-1.426-.235-.156-.02-.396-.049-.434.146-.045.225.207.212.355.256.272.08.529.195.79.3.936.374 1.881.692 2.893.191a3.708 3.708 0 0 1 1.151-.33c.204-.027.438-.038.61-.282zM223.528 42.805c1.135.064 2.063.132 2.934.52.279.112.53.283.736.5.464.52.424.998-.123 1.475-.301.266-.862.121-1.22-.33a1.042 1.042 0 0 1-.221-.388c-.14-.623-.593-.801-1.15-.845a4.22 4.22 0 0 0-2.014.266 3.41 3.41 0 0 1-.722.2c-.228.04-.493.07-.591-.224a.5.5 0 0 1 .301-.661c.33-.159.677-.28 1.034-.36.401-.08.814-.181 1.036-.153zM244.093 27.125c-.116.68-.026 1.303 0 1.904.061 1.286-.54 2.433-.594 3.679-.01.25-.12.55-.423.53-.304-.019-.329-.352-.333-.59a2.033 2.033 0 0 1 .113-.787c.309-.764.401-1.58.61-2.367.172-.642-.124-1.287-.05-1.938.034-.3 0-.601.014-.902.007-.172.06-.357.256-.382.197-.025.276.164.316.325.05.197.07.397.091.528zM242.02 29.88c-.23-1.623.18-3.218.211-4.829 0-.16 0-.4.176-.428.22-.035.189.222.241.365.226.616.076 1.252.115 1.877.057.901.025 1.803.062 2.697.02.478-.123.922-.22 1.377-.036.17-.11.337-.322.315-.212-.022-.254-.2-.26-.372-.01-.334-.003-.668-.003-1.001zM242.422 32.343a1.83 1.83 0 0 1-.179.986 84.15 84.15 0 0 0-.991 2.34c-.075.185-.19.351-.334.489-.16.15-.332.332-.563.18-.231-.15-.182-.416-.08-.588.717-1.21 1.106-2.556 1.615-3.849.055-.14.138-.286.327-.243.19.043.194.209.201.358.011.134.004.267.004.327zM241.116 31.783a5.433 5.433 0 0 1-.761 2.676c-.166.275-.402.415-.715.256-.334-.168-.242-.441-.11-.685.355-.652.511-1.37.713-2.072l.067-.24c.07-.265.223-.484.512-.455.356.035.275.352.294.52zM231.772 45.524c-.216 0-.43.037-.635.108-.284.095-.502-.049-.612-.29-.109-.242.053-.414.244-.537.552-.356 1.196-.467 1.808-.65.176-.054.324.046.401.219.087.193-.016.31-.172.408-.365.225-.767.4-1.043.747zM236.246 40.701c-.174 0-.301-.02-.38-.152-.088-.15-.038-.293.055-.418a4.59 4.59 0 0 1 .842-.913c.205-.168.395-.353.567-.555a.336.336 0 0 1 .492-.048c.147.113.223.294.114.44-.437.582-.885 1.158-1.485 1.59a.55.55 0 0 1-.205.056z"/><g><path fill="#f5d494" d="M168 8h1v38h-1z"/></g></svg>